<?xml version="1.0" encoding="utf-8"?>
<!-- Generator: Adobe Illustrator 23.0.1, SVG Export Plug-In . SVG Version: 6.00 Build 0)  -->
<svg version="1.1" id="Layer_1" xmlns="http://www.w3.org/2000/svg" xmlns:xlink="http://www.w3.org/1999/xlink" x="0px" y="0px"
	 viewBox="0 0 90 35" style="enable-background:new 0 0 90 35;" xml:space="preserve">
<style type="text/css">
	.st0{display:none;}
	.st1{display:inline;fill:#3D2483;}
	.st2{display:inline;}
	.st3{fill:#FFFFFF;}
	.st4{font-family:'Gulim';}
	.st5{font-size:23.7863px;}
	.st6{fill:none;stroke:#FFFFFF;stroke-width:1.4998;stroke-miterlimit:5;}
	.st7{font-size:23.7855px;}
	.st8{fill-rule:evenodd;clip-rule:evenodd;fill:#FFFFFF;}
	.st9{enable-background:new    ;}
	.st10{fill:#E50000;}
</style>
<g class="st0">
	<rect x="0.1" class="st1" width="89.9" height="35"/>
</g>
<g id="Layer_1_1_" class="st0">
	<g class="st2">
		<text transform="matrix(1 0 0 1 9.069824e-02 21.6507)" class="st3 st4 st5">F</text>
		<text transform="matrix(1 0 0 1 9.069824e-02 21.6507)" class="st3 st4 st5">F</text>
		<text transform="matrix(1 0 0 1 9.069824e-02 21.6507)" class="st6 st4 st5">F</text>
		<text transform="matrix(1 0 0 1 14.2907 21.6507)" class="st3 st4 st5">x</text>
		<text transform="matrix(1 0 0 1 14.2907 21.6507)" class="st3 st4 st5">x</text>
		<text transform="matrix(1 0 0 1 14.2907 21.6507)" class="st6 st4 st5">x</text>
		<text transform="matrix(1 0 0 1 28.0223 22.6809)" class="st3 st4 st7">B</text>
		<text transform="matrix(1 0 0 1 28.0223 22.6809)" class="st3 st4 st7">B</text>
		<text transform="matrix(1 0 0 1 28.0223 22.6809)" class="st6 st4 st7">B</text>
		<text transform="matrix(1 0 0 1 44.1223 22.6809)" class="st3 st4 st7">ytes</text>
		<text transform="matrix(1 0 0 1 44.1223 22.6809)" class="st3 st4 st7">ytes</text>
		<text transform="matrix(1 0 0 1 44.1223 22.6809)" class="st6 st4 st7">ytes</text>
		<g>
			<path class="st3" d="M47.7,28.8l0.3,1.5c0.1,0.3,0.1,0.7,0.2,1l0,0c0.1-0.3,0.2-0.7,0.2-1l0.4-1.5h0.6l0.4,1.5
				c0.1,0.4,0.2,0.7,0.2,1.1l0,0c0-0.3,0.1-0.7,0.2-1.1l0.3-1.5h0.8l-1,3.3h-0.7l-0.4-1.3c-0.1-0.3-0.2-0.6-0.2-1l0,0
				c-0.1,0.4-0.1,0.7-0.2,1l-0.4,1.3h-0.7l-0.9-3.3H47.7z"/>
			<path class="st3" d="M53.9,27.9c0,0.2-0.2,0.4-0.5,0.4S53,28.1,53,27.9s0.2-0.4,0.4-0.4S53.9,27.7,53.9,27.9z M53.1,32.1v-3.3
				h0.8v3.3H53.1z"/>
			<path class="st3" d="M56.8,28v0.8h0.7v0.6h-0.7v1.5c0,0.4,0.1,0.6,0.4,0.6c0.1,0,0.2,0,0.3,0v0.6c-0.1,0-0.3,0.1-0.6,0.1
				s-0.5-0.1-0.7-0.2c-0.2-0.2-0.3-0.5-0.3-0.9v-1.6h-0.4v-0.6h0.4v-0.6L56.8,28z"/>
			<path class="st3" d="M59.3,27.4h0.8v1.9l0,0c0.1-0.1,0.2-0.3,0.4-0.3c0.2-0.1,0.3-0.1,0.5-0.1c0.5,0,1,0.4,1,1.4v2h-0.8v-1.9
				c0-0.4-0.1-0.8-0.6-0.8c-0.3,0-0.5,0.2-0.6,0.4c0,0.1,0,0.2,0,0.2v2h-0.8L59.3,27.4L59.3,27.4z"/>
		</g>
		<path class="st3" d="M2.5,32h0.8v-3.8h1.2v-0.7H1.3v0.7h1.1L2.5,32L2.5,32z M8.2,30.6c0-0.1,0-0.2,0-0.4c0-0.8-0.3-1.6-1.3-1.6
			c-0.9,0-1.5,0.8-1.5,1.8S6,32,7,32c0.4,0,0.8-0.1,1-0.2v-0.5c-0.2,0.1-0.5,0.1-0.8,0.1c-0.5,0-0.9-0.2-0.9-0.9L8.2,30.6L8.2,30.6z
			 M6.3,30c0-0.3,0.2-0.8,0.7-0.8s0.6,0.4,0.6,0.8H6.3L6.3,30z M12.2,31.3c-0.1,0.1-0.3,0.1-0.6,0.1c-0.5,0-0.9-0.4-0.9-1.1
			c0-0.6,0.3-1.1,0.9-1.1c0.3,0,0.4,0.1,0.5,0.1l0.1-0.6c-0.2-0.1-0.4-0.1-0.7-0.1c-1.1,0-1.7,0.8-1.7,1.7c0,1,0.6,1.7,1.6,1.7
			c0.4,0,0.7-0.1,0.8-0.1L12.2,31.3L12.2,31.3z M14,32h0.8v-2c0-0.1,0-0.2,0-0.2c0.1-0.3,0.3-0.4,0.6-0.4c0.4,0,0.6,0.3,0.6,0.8v1.9
			h0.8v-2c0-1-0.5-1.4-1-1.4c-0.2,0-0.4,0.1-0.5,0.1c-0.1,0.1-0.3,0.2-0.4,0.3l0,0v-1.9H14V32L14,32z M18.8,32h0.8v-1.9
			c0-0.1,0-0.2,0-0.3c0.1-0.3,0.3-0.5,0.6-0.5c0.4,0,0.6,0.3,0.6,0.8V32h0.8v-2c0-1-0.5-1.3-1.1-1.3c-0.5,0-0.8,0.3-1,0.5l0,0v-0.5
			h-0.7c0,0.3,0,0.6,0,1L18.8,32L18.8,32z M24.9,28.7c-0.9,0-1.5,0.6-1.5,1.7s0.6,1.7,1.5,1.7c0.7,0,1.5-0.5,1.5-1.7
			C26.4,29.3,25.8,28.7,24.9,28.7L24.9,28.7z M24.9,29.3c0.5,0,0.7,0.6,0.7,1.1c0,0.6-0.3,1.1-0.7,1.1c-0.5,0-0.7-0.5-0.7-1.1
			C24.2,29.8,24.4,29.3,24.9,29.3L24.9,29.3z M28.2,32H29v-4.7h-0.8V32L28.2,32z M32.4,28.7c-0.9,0-1.5,0.6-1.5,1.7s0.6,1.7,1.5,1.7
			c0.7,0,1.5-0.5,1.5-1.7C33.9,29.3,33.3,28.7,32.4,28.7L32.4,28.7z M32.4,29.3c0.5,0,0.7,0.6,0.7,1.1c0,0.6-0.3,1.1-0.7,1.1
			c-0.5,0-0.7-0.5-0.7-1.1S31.9,29.3,32.4,29.3L32.4,29.3z M38.5,29.7c0-0.4,0-0.7,0-1h-0.7v0.4l0,0c-0.1-0.2-0.4-0.5-0.8-0.5
			c-0.7,0-1.4,0.6-1.4,1.7c0,0.9,0.5,1.6,1.3,1.6c0.4,0,0.7-0.2,0.8-0.4l0,0v0.3c0,0.7-0.3,1-0.8,1c-0.4,0-0.7-0.1-0.9-0.2l-0.2,0.6
			c0.3,0.1,0.6,0.2,1,0.2s0.9-0.1,1.2-0.4s0.4-0.7,0.4-1.4v-1.9H38.5z M37.7,30.6c0,0.1,0,0.2,0,0.3c-0.1,0.3-0.3,0.4-0.6,0.4
			c-0.4,0-0.7-0.4-0.7-1c0-0.7,0.3-1.1,0.7-1.1c0.3,0,0.5,0.2,0.6,0.5c0,0.1,0,0.1,0,0.2V30.6L37.7,30.6z M40.1,28.7l1.1,3
			c0,0.1,0,0.1,0,0.1v0.1c-0.1,0.2-0.3,0.4-0.4,0.5c-0.2,0.1-0.3,0.2-0.5,0.3l0.2,0.7c0.2,0,0.5-0.1,0.8-0.4c0.4-0.4,0.7-1,1-2
			l0.8-2.3h-0.8l-0.4,1.8c-0.1,0.2-0.1,0.4-0.2,0.6l0,0c0-0.2-0.1-0.4-0.2-0.6L41,28.7H40.1z"/>
		<path class="st3" d="M68.6,31.9c0.2,0.1,0.7,0.3,1.1,0.3c1.1,0,1.6-0.6,1.6-1.3c0-0.6-0.3-1-1.1-1.3c-0.6-0.3-0.8-0.4-0.8-0.8
			c0-0.3,0.2-0.5,0.7-0.5c0.4,0,0.6,0.1,0.8,0.2l0.2-0.7c-0.2-0.1-0.5-0.2-1-0.2c-0.9,0-1.5,0.6-1.5,1.3c0,0.6,0.4,1,1.1,1.3
			c0.5,0.2,0.7,0.4,0.7,0.8s-0.3,0.6-0.8,0.6c-0.4,0-0.7-0.1-1-0.3L68.6,31.9L68.6,31.9z M75.8,30.7c0-0.1,0-0.2,0-0.4
			c0-0.8-0.3-1.6-1.3-1.6c-0.9,0-1.5,0.8-1.5,1.8s0.6,1.6,1.6,1.6c0.4,0,0.8-0.1,1-0.2l-0.1-0.6c-0.2,0.1-0.5,0.1-0.8,0.1
			c-0.5,0-0.9-0.2-0.9-0.9h2C75.8,30.5,75.8,30.7,75.8,30.7z M73.9,30.1c0-0.3,0.2-0.8,0.7-0.8s0.6,0.4,0.6,0.8H73.9L73.9,30.1z
			 M77.7,32.1h0.8v-1.9c0-0.1,0-0.2,0-0.3c0.1-0.3,0.3-0.5,0.6-0.5c0.4,0,0.6,0.3,0.6,0.8v1.9h0.8v-2c0-1-0.5-1.3-1.1-1.3
			c-0.5,0-0.8,0.3-1,0.5l0,0v-0.5h-0.7c0,0.3,0,0.6,0,1L77.7,32.1L77.7,32.1z M82.2,32c0.2,0.1,0.6,0.2,0.9,0.2c0.8,0,1.3-0.4,1.3-1
			c0-0.5-0.3-0.8-0.8-1C83.2,30,83,29.9,83,29.7s0.1-0.3,0.4-0.3s0.5,0.1,0.6,0.2l0.2-0.6c-0.2-0.1-0.5-0.2-0.8-0.2
			c-0.7,0-1.2,0.4-1.2,1c0,0.4,0.2,0.7,0.8,0.9c0.4,0.2,0.5,0.3,0.5,0.5s-0.2,0.4-0.5,0.4s-0.6-0.1-0.8-0.2V32L82.2,32z M88.8,30.7
			c0-0.1,0-0.2,0-0.4c0-0.8-0.3-1.6-1.3-1.6c-0.9,0-1.5,0.8-1.5,1.8s0.6,1.6,1.6,1.6c0.4,0,0.8-0.1,1-0.2l-0.1-0.6
			c-0.2,0.1-0.5,0.1-0.8,0.1c-0.5,0-0.9-0.2-0.9-0.9h2C88.8,30.5,88.8,30.7,88.8,30.7z M86.8,30.1c0-0.3,0.2-0.8,0.7-0.8
			s0.6,0.4,0.6,0.8H86.8z"/>
		<rect x="1.2" y="25.4" class="st3" width="41.9" height="1"/>
		<rect x="50.9" y="25.4" class="st3" width="37.8" height="1"/>
	</g>
</g>
<g>
	<g>
		<path class="st8" d="M40.4,11.7c0,0,1.8-0.5,1.8-2.6c0,0,0-2.3-2.7-3.1h-3.9v2.4h3c0,0,1.1,0.2,0.9,1.2c0,0,0,0.9-0.9,1.2h-3v2.1
			h3.3c0,0,1.2,0.3,0.8,1.8c0,0,0.2,1.3-1.4,1.4h-2.7v2.4h3.8c0,0,2.7-0.1,3.1-3.5C42.4,14.8,42.8,12.8,40.4,11.7z M46,18.4h3.3
			L54.6,6h-3L46,18.4z M48.8,10.9l-1.9-5h-2.7l3.3,7.6L48.8,10.9z M55.4,8.3h9.3V6h-9.3C55.4,6,55.4,8.3,55.4,8.3z M58.7,18.4h2.8
			V8.8h-2.8V18.4z M67,18.4h2.8V6H67V18.4z M76.2,6h-5.9v2.4h5.9V6z M75.7,10.7h-5.4v2.4h5.4V10.7z M70.3,18.4h6V16h-6V18.4z
			 M85.8,9.9l2.5-0.1C88.1,6,83.8,6,83.8,6v2.2C85.8,8.2,85.8,9.9,85.8,9.9z M85.9,11.2c0,0-3.1-0.4-3.3-1.4c0,0-0.7-1.1,0.8-1.5V6
			c0,0-5.1-0.1-4.6,4.3c0,0,0.1,2.4,4,3c0,0,3.4,0.3,3,1.7c0,0,0.3,1.6-2,1.3v2.2c0,0,3.3,0.2,4.4-2.2C88.2,16.2,89.9,13,85.9,11.2z
			 M81.2,14.3h-2.7c0.1,4.6,4.8,4.1,4.8,4.1v-2.2C81,16.1,81.2,14.3,81.2,14.3z"/>
	</g>
</g>
<g>
	<g>
		<path class="st8" d="M1.3,18.4h3V6h-3C1.3,6,1.3,18.4,1.3,18.4z M4.7,6c0,1.2,0,2.2,0,2.2h2c0,0,1.2,0.1,1.4,0.9V15
			c0,0-0.1,0.6-1.1,0.8H4.7v2.5c0,0,5.6,0.9,6.3-3.3V9.3C11,9.3,11.3,5.3,4.7,6z M13.2,18.4h3V6h-3C13.2,6,13.2,18.4,13.2,18.4z
			 M22.6,6h-5.9v2.4h5.9V6z M22.1,10.7h-5.4v2.4h5.4V10.7z M16.7,18.4h6V16h-6V18.4z M30.4,6l-5.6,12.4h3.1L33.4,6H30.4z M28.9,8.1
			l-1-2.1h-3l2.2,5.4L28.9,8.1z M29.5,16.4l0.9,2h3L31,13.2L29.5,16.4z"/>
	</g>
</g>
<g class="st9">
	<path class="st10" d="M37.5,38.9v6.6h-0.4v-6.6h-1.8v-0.4h4v0.4H37.5z"/>
	<path class="st10" d="M40.6,44.8c0.4,0.3,0.8,0.5,1.3,0.5c0.6,0,1-0.2,1.4-0.6c0,0,0.1-0.1,0.1-0.2l0.4,0.1
		c-0.1,0.1-0.2,0.2-0.3,0.3c-0.5,0.5-1,0.7-1.7,0.7s-1.2-0.2-1.7-0.7s-0.7-1-0.7-1.7s0.2-1.2,0.7-1.7s1-0.7,1.7-0.7
		c0.6,0,1.1,0.2,1.5,0.5c0.1,0.1,0.1,0.1,0.2,0.2l0.1,0.1l-0.1,0.3L40.6,44.8z M43.2,41.7c-0.3-0.3-0.7-0.4-1.2-0.4s-1,0.2-1.4,0.6
		c-0.4,0.4-0.6,0.9-0.6,1.4s0.1,0.9,0.4,1.2L43.2,41.7z"/>
	<path class="st10" d="M48.7,44.5l0.4,0.1c-0.1,0.1-0.2,0.2-0.3,0.3c-0.5,0.5-1,0.7-1.7,0.7s-1.2-0.2-1.7-0.7s-0.7-1-0.7-1.7
		s0.2-1.2,0.7-1.7s1-0.7,1.7-0.7s1.2,0.2,1.7,0.7c0.1,0.1,0.2,0.2,0.3,0.3L48.7,42c0-0.1-0.1-0.1-0.1-0.2c-0.4-0.4-0.9-0.6-1.4-0.6
		s-1,0.2-1.4,0.6c-0.4,0.4-0.6,0.9-0.6,1.4s0.2,1,0.6,1.4c0.4,0.4,0.9,0.6,1.4,0.6C47.8,45.2,48.2,45,48.7,44.5
		C48.6,44.6,48.7,44.6,48.7,44.5z"/>
	<path class="st10" d="M50.2,38.5h0.4v2.9c0.3-0.3,0.7-0.5,1.2-0.5s0.9,0.2,1.2,0.5s0.5,0.7,0.5,1.2v2.9h-0.4v-2.9
		c0-0.4-0.1-0.7-0.4-0.9c-0.3-0.3-0.6-0.4-0.9-0.4s-0.7,0.1-0.9,0.4c-0.1,0.1-0.2,0.2-0.3,0.4v3.4h-0.4
		C50.2,45.5,50.2,38.5,50.2,38.5z"/>
	<path class="st10" d="M55.2,42.2v3.4h-0.4v-4.3h0.4v0.3c0.4-0.4,0.8-0.5,1.3-0.5s0.9,0.2,1.2,0.5s0.5,0.7,0.5,1.2v2.9h-0.4v-2.9
		c0-0.4-0.1-0.7-0.4-0.9c-0.3-0.3-0.6-0.4-0.9-0.4s-0.7,0.1-0.9,0.4C55.4,41.9,55.3,42.1,55.2,42.2z"/>
	<path class="st10" d="M61.7,40.9c0.7,0,1.2,0.2,1.7,0.7s0.7,1,0.7,1.7s-0.2,1.2-0.7,1.7c-0.5,0.5-1,0.7-1.7,0.7S60.5,45.5,60,45
		s-0.7-1-0.7-1.7s0.2-1.2,0.7-1.7S61,40.9,61.7,40.9z M60.3,41.9c-0.4,0.4-0.6,0.9-0.6,1.4s0.2,1,0.6,1.4c0.4,0.4,0.9,0.6,1.4,0.6
		s1-0.2,1.4-0.6c0.4-0.4,0.6-0.9,0.6-1.4s-0.2-1-0.6-1.4c-0.4-0.4-0.9-0.6-1.4-0.6S60.7,41.5,60.3,41.9z"/>
	<path class="st10" d="M65.5,38.5v7h-0.4v-7H65.5z"/>
	<path class="st10" d="M69,40.9c0.7,0,1.2,0.2,1.7,0.7s0.7,1,0.7,1.7s-0.2,1.2-0.7,1.7s-1,0.7-1.7,0.7s-1.2-0.2-1.7-0.7
		s-0.7-1-0.7-1.7s0.2-1.2,0.7-1.7S68.3,40.9,69,40.9z M67.6,41.9c-0.4,0.4-0.6,0.9-0.6,1.4s0.2,1,0.6,1.4c0.4,0.4,0.9,0.6,1.4,0.6
		s1-0.2,1.4-0.6c0.4-0.4,0.6-0.9,0.6-1.4s-0.2-1-0.6-1.4c-0.4-0.4-0.8-0.6-1.4-0.6S68,41.5,67.6,41.9z"/>
	<path class="st10" d="M76.7,44.7c-0.1,0.1-0.2,0.2-0.2,0.3c-0.5,0.5-1,0.7-1.7,0.7s-1.2-0.2-1.7-0.7s-0.7-1-0.7-1.7
		s0.2-1.2,0.7-1.7s1-0.7,1.7-0.7s1.2,0.2,1.7,0.7c0.1,0.1,0.2,0.2,0.3,0.3v-0.6h0.4v3.4c0,0.6-0.2,1.2-0.7,1.7s-1,0.7-1.7,0.7
		s-1.2-0.2-1.7-0.7c-0.1-0.1-0.2-0.2-0.3-0.3l0.4-0.1c0,0.1,0.1,0.1,0.1,0.2c0.4,0.4,0.9,0.6,1.4,0.6s1-0.2,1.4-0.6
		C76.5,45.6,76.7,45.2,76.7,44.7z M76.7,42.9c-0.1-0.4-0.3-0.7-0.5-1c-0.4-0.4-0.9-0.6-1.4-0.6s-1,0.2-1.4,0.6
		c-0.4,0.4-0.6,0.9-0.6,1.4s0.2,1,0.6,1.4c0.4,0.4,0.9,0.6,1.4,0.6s1-0.2,1.4-0.6c0.3-0.3,0.5-0.6,0.5-1V42.9z"/>
	<path class="st10" d="M79,39.8c0.1,0.1,0.1,0.2,0.1,0.3s0,0.2-0.1,0.3s-0.2,0.1-0.3,0.1s-0.2,0-0.3-0.1c-0.1-0.1-0.1-0.2-0.1-0.3
		c0-0.1,0-0.2,0.1-0.3c0.1-0.1,0.2-0.1,0.3-0.1S79,39.8,79,39.8z M79,41.2v4.3h-0.4v-4.3C78.6,41.2,79,41.2,79,41.2z"/>
	<path class="st10" d="M81.2,44.8c0.4,0.3,0.8,0.5,1.3,0.5c0.6,0,1-0.2,1.4-0.6c0,0,0.1-0.1,0.1-0.2l0.4,0.1
		c-0.1,0.1-0.2,0.2-0.3,0.3c-0.5,0.5-1,0.7-1.7,0.7s-1.2-0.2-1.7-0.7s-0.7-1-0.7-1.7s0.2-1.2,0.7-1.7s1-0.7,1.7-0.7
		c0.6,0,1.1,0.2,1.5,0.5c0.1,0.1,0.1,0.1,0.2,0.2l0.1,0.1l-0.3,0.3L81.2,44.8z M83.7,41.7c-0.3-0.3-0.7-0.4-1.2-0.4s-1,0.2-1.4,0.6
		c-0.4,0.3-0.6,0.8-0.6,1.4c0,0.5,0.1,0.9,0.4,1.2L83.7,41.7z"/>
	<path class="st10" d="M86.7,43.3c-0.3-0.2-0.6-0.3-0.7-0.5c-0.2-0.2-0.3-0.4-0.3-0.7s0.1-0.5,0.3-0.7c0.2-0.2,0.4-0.3,0.7-0.3
		c0.3,0,0.5,0.1,0.7,0.3s0.3,0.4,0.3,0.6l0,0l-0.3,0.1c0-0.2-0.1-0.4-0.2-0.5c-0.1-0.1-0.3-0.2-0.4-0.2c-0.2,0-0.3,0.1-0.5,0.2
		c-0.1,0.1-0.2,0.3-0.2,0.5s0.1,0.3,0.2,0.5c0.1,0.1,0.2,0.2,0.5,0.3c0.4,0.2,0.6,0.4,0.8,0.5c0.2,0.3,0.4,0.6,0.4,0.9
		c0,0.4-0.1,0.7-0.4,0.9c-0.2,0.3-0.6,0.4-0.9,0.4s-0.7-0.1-0.9-0.4c-0.2-0.3-0.4-0.5-0.4-0.8l0.4-0.1c0,0.3,0.1,0.5,0.3,0.6
		c0.2,0.2,0.4,0.3,0.6,0.3s0.5-0.1,0.6-0.3c0.2-0.2,0.3-0.4,0.3-0.6s-0.1-0.5-0.3-0.6C87.2,43.7,87,43.5,86.7,43.3z"/>
</g>
<g class="st9">
	<path class="st3" d="M58.2,21.4v6.9h-0.4v-6.9H58.2z"/>
	<path class="st3" d="M60,25v3.3h-0.4v-4.2H60v0.3c0.4-0.4,0.8-0.5,1.2-0.5c0.5,0,0.9,0.2,1.2,0.5c0.3,0.3,0.5,0.7,0.5,1.2v2.8h-0.4
		v-2.8c0-0.4-0.1-0.7-0.4-0.9s-0.6-0.4-0.9-0.4c-0.4,0-0.7,0.1-0.9,0.4C60.2,24.7,60.1,24.9,60,25z"/>
	<path class="st3" d="M64.8,24.5v3.8h-0.4v-3.8H64v-0.4h0.4v-1.1c0-0.3,0.1-0.6,0.4-0.8c0.2-0.2,0.5-0.3,0.8-0.3
		c0.2,0,0.3,0,0.5,0.1L66,22.2c-0.1-0.1-0.2-0.1-0.3-0.1c-0.2,0-0.4,0.1-0.6,0.2c-0.2,0.2-0.2,0.3-0.3,0.6v1.1h0.9v0.4H64.8z"/>
	<path class="st3" d="M68.5,23.7c0.7,0,1.2,0.2,1.7,0.7c0.5,0.5,0.7,1,0.7,1.7c0,0.7-0.2,1.2-0.7,1.7c-0.5,0.5-1,0.7-1.7,0.7
		c-0.7,0-1.2-0.2-1.7-0.7c-0.5-0.5-0.7-1-0.7-1.7c0-0.7,0.2-1.2,0.7-1.7C67.3,23.9,67.9,23.7,68.5,23.7z M67.1,24.7
		c-0.4,0.4-0.6,0.8-0.6,1.4s0.2,1,0.6,1.4c0.4,0.4,0.8,0.6,1.4,0.6s1-0.2,1.4-0.6c0.4-0.4,0.6-0.8,0.6-1.4s-0.2-1-0.6-1.4
		s-0.8-0.6-1.4-0.6S67.5,24.3,67.1,24.7z"/>
	<path class="st3" d="M72.5,24.1v-1.8h0.4v1.8h0.9v0.4h-0.9v3.8h-0.4v-3.8h-0.9v-0.4H72.5z"/>
	<path class="st3" d="M75.6,27.5c0.4,0.3,0.8,0.5,1.3,0.5c0.5,0,1-0.2,1.4-0.6c0,0,0.1-0.1,0.1-0.2l0.4,0.1
		c-0.1,0.1-0.2,0.2-0.3,0.3c-0.5,0.5-1,0.7-1.7,0.7c-0.7,0-1.2-0.2-1.7-0.7c-0.5-0.5-0.7-1-0.7-1.7c0-0.7,0.2-1.2,0.7-1.7
		c0.5-0.5,1-0.7,1.7-0.7c0.6,0,1,0.2,1.5,0.5c0.1,0.1,0.1,0.1,0.2,0.2c0,0,0,0.1,0.1,0.1l-0.3,0.3L75.6,27.5z M78.1,24.5
		c-0.3-0.3-0.7-0.4-1.2-0.4c-0.5,0-1,0.2-1.4,0.6c-0.4,0.4-0.6,0.8-0.6,1.4c0,0.4,0.1,0.8,0.4,1.2L78.1,24.5z"/>
	<path class="st3" d="M83.5,27.3l0.4,0.1c-0.1,0.1-0.2,0.2-0.3,0.3c-0.5,0.5-1,0.7-1.7,0.7c-0.7,0-1.2-0.2-1.7-0.7
		c-0.5-0.5-0.7-1-0.7-1.7c0-0.7,0.2-1.2,0.7-1.7c0.5-0.5,1-0.7,1.7-0.7c0.7,0,1.2,0.2,1.7,0.7c0.1,0.1,0.2,0.2,0.3,0.3l-0.4,0.2
		c0-0.1-0.1-0.1-0.1-0.2c-0.4-0.4-0.8-0.6-1.4-0.6c-0.5,0-1,0.2-1.4,0.6c-0.4,0.4-0.6,0.8-0.6,1.4s0.2,1,0.6,1.4
		C81,27.8,81.4,28,82,28c0.5,0,1-0.2,1.4-0.6C83.4,27.4,83.4,27.3,83.5,27.3z"/>
	<path class="st3" d="M84.9,21.4h0.4v2.9c0.3-0.3,0.7-0.5,1.2-0.5c0.5,0,0.9,0.2,1.2,0.5c0.3,0.3,0.5,0.7,0.5,1.2v2.8h-0.4v-2.8
		c0-0.4-0.1-0.7-0.4-0.9s-0.6-0.4-0.9-0.4s-0.7,0.1-0.9,0.4c-0.1,0.1-0.2,0.2-0.3,0.4v3.4h-0.4V21.4z"/>
</g>
</svg>
