<svg xmlns="http://www.w3.org/2000/svg" width="18" height="18" viewBox="0 0 18 18">
  <metadata><?xpacket begin="﻿" id="W5M0MpCehiHzreSzNTczkc9d"?>
<x:xmpmeta xmlns:x="adobe:ns:meta/" x:xmptk="Adobe XMP Core 5.6-c142 79.160924, 2017/07/13-01:06:39        ">
   <rdf:RDF xmlns:rdf="http://www.w3.org/1999/02/22-rdf-syntax-ns#">
      <rdf:Description rdf:about=""/>
   </rdf:RDF>
</x:xmpmeta>
                                                                                                    
                                                                                                    
                                                                                                    
                                                                                                    
                                                                                                    
                                                                                                    
                                                                                                    
                                                                                                    
                                                                                                    
                                                                                                    
                                                                                                    
                                                                                                    
                                                                                                    
                                                                                                    
                                                                                                    
                                                                                                    
                                                                                                    
                                                                                                    
                                                                                                    
                                                                                                    
                           
<?xpacket end="w"?></metadata>
<defs>
    <style>
      .cls-1 {
        fill: #fff;
        fill-rule: evenodd;
      }
    </style>
  </defs>
  <path class="cls-1" d="M6.333,0h9.282a0.189,0.189,0,0,0,.048.023,1.641,1.641,0,0,1,1.345,1.668C16.995,6.564,17,11.437,17,16.31A1.592,1.592,0,0,1,15.288,18H2.7A1.593,1.593,0,0,1,1,16.317Q1,10.9,1,5.475v-0.2H5.708a0.552,0.552,0,0,0,.625-0.617Q6.334,2.328,6.333,0Zm6.4,11.051a2.284,2.284,0,0,0-.095-0.245c-0.226-.457-0.457-0.911-0.686-1.367C11.144,7.832,10.339,6.224,9.524,4.62a0.761,0.761,0,0,0-.3-0.321,0.543,0.543,0,0,0-.749.322L5.864,9.8c-0.179.356-.364,0.709-0.533,1.069a0.518,0.518,0,0,0,.384.752A0.542,0.542,0,0,0,6.3,11.291q0.417-.833.827-1.669a0.19,0.19,0,0,1,.2-0.133q1.68,0.008,3.36,0a0.177,0.177,0,0,1,.186.119c0.118,0.249.244,0.494,0.367,0.741,0.167,0.335.328,0.675,0.5,1.005a0.505,0.505,0,0,0,.6.255A0.546,0.546,0,0,0,12.732,11.051ZM9.01,12.725H5.792c-0.688,0-1.375,0-2.063,0a0.544,0.544,0,0,0-.564.367,0.538,0.538,0,0,0,.606.688h9.584c0.314,0,.628,0,0.942,0a0.543,0.543,0,0,0,.57-0.528,0.552,0.552,0,0,0-.576-0.526c-0.047,0-.095,0-0.142,0H9.01ZM9,15.89H11.17c0.681,0,1.362,0,2.043,0a0.528,0.528,0,0,0,.539-0.733,0.581,0.581,0,0,0-.6-0.323q-3.189,0-6.379,0c-0.663,0-1.327,0-1.99,0a0.528,0.528,0,0,0-.539.733,0.569,0.569,0,0,0,.58.323Q6.915,15.887,9,15.89ZM12.735,3.163c0-.169,0-0.309,0-0.449a0.555,0.555,0,0,0-.532-0.6,0.549,0.549,0,0,0-.536.6c0,0.149,0,.3,0,0.456-0.172,0-.32,0-0.467,0a0.549,0.549,0,0,0-.6.536,0.555,0.555,0,0,0,.6.519c0.152,0,.3,0,0.466,0,0,0.174,0,.325,0,0.476a0.535,0.535,0,1,0,1.067.007c0-.156,0-0.312,0-0.483,0.178,0,.337,0,0.495,0a0.529,0.529,0,1,0,0-1.054C13.07,3.16,12.911,3.163,12.735,3.163ZM5.266,0V4.207H1a1.5,1.5,0,0,1,.31-1.013,4.066,4.066,0,0,1,.37-0.4C2.368,2.112,3.061,1.439,3.74.752A2.325,2.325,0,0,1,4.946,0h0.32Zm5,8.428H7.733L9,5.917Z"/>
</svg>
