<svg xmlns="http://www.w3.org/2000/svg" width="18" height="18" viewBox="0 0 18 18">
  <metadata><?xpacket begin="﻿" id="W5M0MpCehiHzreSzNTczkc9d"?>
<x:xmpmeta xmlns:x="adobe:ns:meta/" x:xmptk="Adobe XMP Core 5.6-c142 79.160924, 2017/07/13-01:06:39        ">
   <rdf:RDF xmlns:rdf="http://www.w3.org/1999/02/22-rdf-syntax-ns#">
      <rdf:Description rdf:about=""/>
   </rdf:RDF>
</x:xmpmeta>
                                                                                                    
                                                                                                    
                                                                                                    
                                                                                                    
                                                                                                    
                                                                                                    
                                                                                                    
                                                                                                    
                                                                                                    
                                                                                                    
                                                                                                    
                                                                                                    
                                                                                                    
                                                                                                    
                                                                                                    
                                                                                                    
                                                                                                    
                                                                                                    
                                                                                                    
                                                                                                    
                           
<?xpacket end="w"?></metadata>
<defs>
    <style>
      .cls-1 {
        fill: #fff;
        fill-rule: evenodd;
      }
    </style>
  </defs>
  <path class="cls-1" d="M10.608,10.176A7.755,7.755,0,0,0,9.751,9.9a1.088,1.088,0,0,0-1.325,1.089c-0.007.628,0,1.255,0,1.883v0.259c-0.07,0-.121.008-0.171,0.008q-3.539,0-7.078,0a1.072,1.072,0,0,1-1.1-1.062q0-4.3,0-8.6c0-.037,0-0.074.007-0.127H16.756v7.735a1.548,1.548,0,0,0-.865-0.789,1.272,1.272,0,0,0-1.13.167,1.274,1.274,0,0,0-1.609-.48V7.7c0.277,0,.546,0,0.815,0a0.988,0.988,0,0,0,.946-0.648,0.912,0.912,0,0,0-.869-1.162c-1.074-.017-2.148-0.012-3.221,0a0.941,0.941,0,0,0-.937.8,0.936,0.936,0,0,0,.643.959l0.078,0.029v2.5ZM4.954,8.426q1.316,0,2.632,0a0.4,0.4,0,0,0,.478-0.482q0-1.339,0-2.677A0.4,0.4,0,0,0,7.6,4.794q-2.62,0-5.241,0a0.4,0.4,0,0,0-.467.468q0,1.339,0,2.677a0.411,0.411,0,0,0,.5.486H4.954ZM4.986,9.513H2.513a2.56,2.56,0,0,0-.272,0,0.36,0.36,0,0,0-.009.719,1.367,1.367,0,0,0,.181,0q2.552,0,5.1,0A0.546,0.546,0,0,0,7.824,10.2a0.516,0.516,0,0,0,.219-0.326A0.555,0.555,0,0,0,7.812,9.55a0.461,0.461,0,0,0-.262-0.035Q6.268,9.511,4.986,9.513Zm6.345,0.971c0-.855,0-1.709,0-2.564a0.55,0.55,0,0,1,.338-0.543,0.444,0.444,0,0,1,.543.09,0.833,0.833,0,0,1,.2.477c0.017,1.028.006,2.057,0.013,3.086a0.508,0.508,0,0,0,.094.333,0.5,0.5,0,0,0,.355.121,0.337,0.337,0,0,0,.276-0.342,0.535,0.535,0,0,1,.482-0.537,0.557,0.557,0,0,1,.6.515c0.009,0.12,0,.242,0,0.363a0.362,0.362,0,1,0,.722.041,0.542,0.542,0,0,1,.6-0.557,0.585,0.585,0,0,1,.491.652c0,0.2-.005.393,0,0.59a0.375,0.375,0,0,0,.361.39,0.382,0.382,0,0,0,.363-0.366,0.532,0.532,0,0,1,.573-0.539,0.56,0.56,0,0,1,.515.6c-0.01.839,0.031,1.684-.059,2.514a4.249,4.249,0,0,1-1.761,2.976,0.438,0.438,0,0,1-.25.073q-2.28.006-4.56,0a0.5,0.5,0,0,1-.287-0.1,4.4,4.4,0,0,1-1.789-3.528c-0.02-1.059,0-2.118,0-3.176a0.392,0.392,0,0,1,.511-0.451,1.092,1.092,0,0,1,.94,1.035c0.007,0.469,0,.938,0,1.407a0.373,0.373,0,1,0,.726,0Q11.333,11.766,11.331,10.484ZM16.777,2.6H0.083c0-.546-0.03-1.083.009-1.615A1.05,1.05,0,0,1,1.164.075q2.756,0,5.512,0H15.59a1.086,1.086,0,0,1,1.187,1.179C16.778,1.7,16.777,2.143,16.777,2.6ZM3.864,11.692c-0.505,0-1.011,0-1.516,0a0.372,0.372,0,1,1,0-.725q1.539,0,3.078,0a0.373,0.373,0,1,1,0,.726c-0.521,0-1.041,0-1.562,0v0ZM2.252,1.529a0.379,0.379,0,0,0-.358-0.365,0.38,0.38,0,0,0-.365.358,0.379,0.379,0,0,0,.358.365A0.379,0.379,0,0,0,2.252,1.529Zm1.815-.017a0.362,0.362,0,0,0-.723.026,0.379,0.379,0,0,0,.373.349A0.386,0.386,0,0,0,4.067,1.512Zm1.815,0a0.361,0.361,0,1,0-.723.018A0.361,0.361,0,1,0,5.883,1.517Zm-3.63.012a0.379,0.379,0,0,1-.365.358A0.379,0.379,0,0,1,1.53,1.522a0.38,0.38,0,0,1,.365-0.358A0.379,0.379,0,0,1,2.252,1.529Zm1.815-.017a0.386,0.386,0,0,1-.35.375,0.379,0.379,0,0,1-.373-0.349A0.362,0.362,0,0,1,4.067,1.512Zm1.815,0a0.361,0.361,0,1,1-.723.018A0.361,0.361,0,1,1,5.883,1.517Z"/>
</svg>
