<?xml version="1.0" encoding="utf-8"?>
<!-- Generator: Adobe Illustrator 23.0.1, SVG Export Plug-In . SVG Version: 6.00 Build 0)  -->
<svg version="1.1" id="Layer_1" xmlns="http://www.w3.org/2000/svg" xmlns:xlink="http://www.w3.org/1999/xlink" x="0px" y="0px"
	 viewBox="0 0 113.9 35" style="enable-background:new 0 0 113.9 35;" xml:space="preserve">
<style type="text/css">
	.st0{display:none;}
	.st1{display:inline;}
	.st2{fill:#3D2483;}
	.st3{fill:#FFFFFF;}
	.st4{font-family:'Gulim';}
	.st5{font-size:23.7863px;}
	.st6{fill:none;stroke:#FFFFFF;stroke-width:1.4998;stroke-miterlimit:5;}
	.st7{font-size:23.7855px;}
	.st8{fill-rule:evenodd;clip-rule:evenodd;fill:#FFFFFF;}
	.st9{enable-background:new    ;}
</style>
<g class="st0">
	<g class="st1">
		<g>
			<rect x="11.9" class="st2" width="89.9" height="35"/>
		</g>
		<g id="Layer_1_1_">
			<g>
				<text transform="matrix(1 0 0 1 11.8972 21.6508)" class="st3 st4 st5">F</text>
				<text transform="matrix(1 0 0 1 11.8972 21.6508)" class="st3 st4 st5">F</text>
				<text transform="matrix(1 0 0 1 11.8972 21.6508)" class="st6 st4 st5">F</text>
				<text transform="matrix(1 0 0 1 26.0972 21.6508)" class="st3 st4 st5">x</text>
				<text transform="matrix(1 0 0 1 26.0972 21.6508)" class="st3 st4 st5">x</text>
				<text transform="matrix(1 0 0 1 26.0972 21.6508)" class="st6 st4 st5">x</text>
				<text transform="matrix(1 0 0 1 39.8288 22.6809)" class="st3 st4 st7">B</text>
				<text transform="matrix(1 0 0 1 39.8288 22.6809)" class="st3 st4 st7">B</text>
				<text transform="matrix(1 0 0 1 39.8288 22.6809)" class="st6 st4 st7">B</text>
				<text transform="matrix(1 0 0 1 55.9288 22.6809)" class="st3 st4 st7">ytes</text>
				<text transform="matrix(1 0 0 1 55.9288 22.6809)" class="st3 st4 st7">ytes</text>
				<text transform="matrix(1 0 0 1 55.9288 22.6809)" class="st6 st4 st7">ytes</text>
				<g>
					<path class="st3" d="M59.5,28.8l0.3,1.5c0.1,0.3,0.1,0.7,0.2,1l0,0c0.1-0.3,0.2-0.7,0.2-1l0.4-1.5h0.6l0.4,1.5
						c0.1,0.4,0.2,0.7,0.2,1.1l0,0c0-0.3,0.1-0.7,0.2-1.1l0.3-1.5h0.8l-1,3.3h-0.7L61,30.8c-0.1-0.3-0.2-0.6-0.2-1l0,0
						c-0.1,0.4-0.1,0.7-0.2,1l-0.4,1.3h-0.7l-0.9-3.3H59.5z"/>
					<path class="st3" d="M65.7,27.9c0,0.2-0.2,0.4-0.5,0.4c-0.3,0-0.4-0.2-0.4-0.4s0.2-0.4,0.4-0.4C65.4,27.5,65.7,27.7,65.7,27.9z
						 M64.9,32.1v-3.3h0.8v3.3H64.9z"/>
					<path class="st3" d="M68.6,28v0.8h0.7v0.6h-0.7v1.5c0,0.4,0.1,0.6,0.4,0.6c0.1,0,0.2,0,0.3,0v0.6c-0.1,0-0.3,0.1-0.6,0.1
						c-0.3,0-0.5-0.1-0.7-0.2c-0.2-0.2-0.3-0.5-0.3-0.9v-1.6h-0.4v-0.6h0.4v-0.6L68.6,28z"/>
					<path class="st3" d="M71.1,27.4h0.8v1.9l0,0c0.1-0.1,0.2-0.3,0.4-0.3c0.2-0.1,0.3-0.1,0.5-0.1c0.5,0,1,0.4,1,1.4v2H73v-1.9
						c0-0.4-0.1-0.8-0.6-0.8c-0.3,0-0.5,0.2-0.6,0.4c0,0.1,0,0.2,0,0.2v2H71L71.1,27.4L71.1,27.4z"/>
				</g>
				<path class="st3" d="M14.3,32h0.8v-3.8h1.2v-0.7h-3.2v0.7h1.1L14.3,32L14.3,32z M20,30.6c0-0.1,0-0.2,0-0.4
					c0-0.8-0.3-1.6-1.3-1.6c-0.9,0-1.5,0.8-1.5,1.8s0.6,1.6,1.6,1.6c0.4,0,0.8-0.1,1-0.2v-0.5c-0.2,0.1-0.5,0.1-0.8,0.1
					c-0.5,0-0.9-0.2-0.9-0.9L20,30.6L20,30.6z M18.1,30c0-0.3,0.2-0.8,0.7-0.8s0.6,0.4,0.6,0.8H18.1L18.1,30z M24,31.3
					c-0.1,0.1-0.3,0.1-0.6,0.1c-0.5,0-0.9-0.4-0.9-1.1c0-0.6,0.3-1.1,0.9-1.1c0.3,0,0.4,0.1,0.5,0.1l0.1-0.6
					c-0.2-0.1-0.4-0.1-0.7-0.1c-1.1,0-1.7,0.8-1.7,1.7c0,1,0.6,1.7,1.6,1.7c0.4,0,0.7-0.1,0.8-0.1L24,31.3L24,31.3z M25.8,32h0.8v-2
					c0-0.1,0-0.2,0-0.2c0.1-0.3,0.3-0.4,0.6-0.4c0.4,0,0.6,0.3,0.6,0.8v1.9h0.8v-2c0-1-0.5-1.4-1-1.4c-0.2,0-0.4,0.1-0.5,0.1
					c-0.1,0.1-0.3,0.2-0.4,0.3l0,0v-1.9h-0.9V32L25.8,32z M30.6,32h0.8v-1.9c0-0.1,0-0.2,0-0.3c0.1-0.3,0.3-0.5,0.6-0.5
					c0.4,0,0.6,0.3,0.6,0.8V32h0.8v-2c0-1-0.5-1.3-1.1-1.3c-0.5,0-0.8,0.3-1,0.5l0,0v-0.5h-0.7c0,0.3,0,0.6,0,1L30.6,32L30.6,32z
					 M36.7,28.7c-0.9,0-1.5,0.6-1.5,1.7s0.6,1.7,1.5,1.7c0.7,0,1.5-0.5,1.5-1.7C38.2,29.3,37.6,28.7,36.7,28.7L36.7,28.7z
					 M36.7,29.3c0.5,0,0.7,0.6,0.7,1.1c0,0.6-0.3,1.1-0.7,1.1c-0.5,0-0.7-0.5-0.7-1.1S36.2,29.3,36.7,29.3L36.7,29.3z M40,32h0.8
					v-4.7H40V32L40,32z M44.2,28.7c-0.9,0-1.5,0.6-1.5,1.7s0.6,1.7,1.5,1.7c0.7,0,1.5-0.5,1.5-1.7C45.7,29.3,45.1,28.7,44.2,28.7
					L44.2,28.7z M44.2,29.3c0.5,0,0.7,0.6,0.7,1.1c0,0.6-0.3,1.1-0.7,1.1c-0.5,0-0.7-0.5-0.7-1.1S43.7,29.3,44.2,29.3L44.2,29.3z
					 M50.3,29.7c0-0.4,0-0.7,0-1h-0.7v0.4l0,0c-0.1-0.2-0.4-0.5-0.8-0.5c-0.7,0-1.4,0.6-1.4,1.7c0,0.9,0.5,1.6,1.3,1.6
					c0.4,0,0.7-0.2,0.8-0.4l0,0v0.3c0,0.7-0.3,1-0.8,1c-0.4,0-0.7-0.1-0.9-0.2l-0.2,0.6c0.3,0.1,0.6,0.2,1,0.2s0.9-0.1,1.2-0.4
					s0.4-0.7,0.4-1.4v-1.9H50.3z M49.5,30.6c0,0.1,0,0.2,0,0.3c-0.1,0.3-0.3,0.4-0.6,0.4c-0.4,0-0.7-0.4-0.7-1
					c0-0.7,0.3-1.1,0.7-1.1c0.3,0,0.5,0.2,0.6,0.5c0,0.1,0,0.1,0,0.2V30.6L49.5,30.6z M51.9,28.7l1.1,3c0,0.1,0,0.1,0,0.1v0.1
					c-0.1,0.2-0.3,0.4-0.4,0.5c-0.2,0.1-0.3,0.2-0.5,0.3l0.2,0.7c0.2,0,0.5-0.1,0.8-0.4c0.4-0.4,0.7-1,1-2l0.8-2.3h-0.8l-0.4,1.8
					c-0.1,0.2-0.1,0.4-0.2,0.6l0,0c0-0.2-0.1-0.4-0.2-0.6l-0.5-1.8H51.9z"/>
				<path class="st3" d="M80.4,31.9c0.2,0.1,0.7,0.3,1.1,0.3c1.1,0,1.6-0.6,1.6-1.3c0-0.6-0.3-1-1.1-1.3c-0.6-0.3-0.8-0.4-0.8-0.8
					c0-0.3,0.2-0.5,0.7-0.5c0.4,0,0.6,0.1,0.8,0.2l0.2-0.7c-0.2-0.1-0.5-0.2-1-0.2c-0.9,0-1.5,0.6-1.5,1.3c0,0.6,0.4,1,1.1,1.3
					c0.5,0.2,0.7,0.4,0.7,0.8s-0.3,0.6-0.8,0.6c-0.4,0-0.7-0.1-1-0.3L80.4,31.9L80.4,31.9z M87.6,30.7c0-0.1,0-0.2,0-0.4
					c0-0.8-0.3-1.6-1.3-1.6c-0.9,0-1.5,0.8-1.5,1.8s0.6,1.6,1.6,1.6c0.4,0,0.8-0.1,1-0.2l-0.1-0.6c-0.2,0.1-0.5,0.1-0.8,0.1
					c-0.5,0-0.9-0.2-0.9-0.9h2C87.6,30.5,87.6,30.7,87.6,30.7z M85.7,30.1c0-0.3,0.2-0.8,0.7-0.8s0.6,0.4,0.6,0.8H85.7L85.7,30.1z
					 M89.5,32.1h0.8v-1.9c0-0.1,0-0.2,0-0.3c0.1-0.3,0.3-0.5,0.6-0.5c0.4,0,0.6,0.3,0.6,0.8v1.9h0.8v-2c0-1-0.5-1.3-1.1-1.3
					c-0.5,0-0.8,0.3-1,0.5l0,0v-0.5h-0.7c0,0.3,0,0.6,0,1L89.5,32.1L89.5,32.1z M94,32c0.2,0.1,0.6,0.2,0.9,0.2c0.8,0,1.3-0.4,1.3-1
					c0-0.5-0.3-0.8-0.8-1c-0.4-0.2-0.6-0.3-0.6-0.5s0.1-0.3,0.4-0.3s0.5,0.1,0.6,0.2L96,29c-0.2-0.1-0.5-0.2-0.8-0.2
					c-0.7,0-1.2,0.4-1.2,1c0,0.4,0.2,0.7,0.8,0.9c0.4,0.2,0.5,0.3,0.5,0.5s-0.2,0.4-0.5,0.4s-0.6-0.1-0.8-0.2V32L94,32z M100.6,30.7
					c0-0.1,0-0.2,0-0.4c0-0.8-0.3-1.6-1.3-1.6c-0.9,0-1.5,0.8-1.5,1.8s0.6,1.6,1.6,1.6c0.4,0,0.8-0.1,1-0.2l-0.1-0.6
					c-0.2,0.1-0.5,0.1-0.8,0.1c-0.5,0-0.9-0.2-0.9-0.9h2C100.6,30.5,100.6,30.7,100.6,30.7z M98.6,30.1c0-0.3,0.2-0.8,0.7-0.8
					s0.6,0.4,0.6,0.8H98.6z"/>
				<rect x="13" y="25.4" class="st3" width="41.9" height="1"/>
				<rect x="62.7" y="25.4" class="st3" width="37.8" height="1"/>
			</g>
		</g>
		<g>
			<g>
				<path class="st8" d="M52.2,11.7c0,0,1.8-0.5,1.8-2.6c0,0,0-2.3-2.7-3.1h-3.9v2.4h3c0,0,1.1,0.2,0.9,1.2c0,0,0,0.9-0.9,1.2h-3
					v2.1h3.3c0,0,1.2,0.3,0.8,1.8c0,0,0.2,1.3-1.4,1.4h-2.7v2.4h3.8c0,0,2.7-0.1,3.1-3.5C54.2,14.8,54.6,12.8,52.2,11.7z M57.8,18.4
					h3.3L66.4,6h-3L57.8,18.4z M60.6,10.9l-1.9-5H56l3.3,7.6L60.6,10.9z M67.2,8.3h9.3V6h-9.3C67.2,6,67.2,8.3,67.2,8.3z M70.5,18.4
					h2.8V8.8h-2.8V18.4z M78.8,18.4h2.8V6h-2.8V18.4z M88,6h-5.9v2.4H88V6z M87.5,10.7h-5.4v2.4h5.4V10.7z M82.1,18.4h6V16h-6V18.4z
					 M97.6,9.9l2.5-0.1C99.9,6,95.6,6,95.6,6v2.2C97.6,8.2,97.6,9.9,97.6,9.9z M97.7,11.2c0,0-3.1-0.4-3.3-1.4c0,0-0.7-1.1,0.8-1.5
					V6c0,0-5.1-0.1-4.6,4.3c0,0,0.1,2.4,4,3c0,0,3.4,0.3,3,1.7c0,0,0.3,1.6-2,1.3v2.2c0,0,3.3,0.2,4.4-2.2
					C100,16.2,101.7,13,97.7,11.2z M93,14.3h-2.7c0.1,4.6,4.8,4.1,4.8,4.1v-2.2C92.8,16.1,93,14.3,93,14.3z"/>
			</g>
		</g>
		<g>
			<g>
				<path class="st8" d="M13.1,18.4h3V6h-3C13.1,6,13.1,18.4,13.1,18.4z M16.5,6c0,1.2,0,2.2,0,2.2h2c0,0,1.2,0.1,1.4,0.9V15
					c0,0-0.1,0.6-1.1,0.8h-2.3v2.5c0,0,5.6,0.9,6.3-3.3V9.3C22.8,9.3,23.1,5.3,16.5,6z M25,18.4h3V6h-3C25,6,25,18.4,25,18.4z
					 M34.4,6h-5.9v2.4h5.9V6z M33.9,10.7h-5.4v2.4h5.4V10.7z M28.5,18.4h6V16h-6V18.4z M42.2,6l-5.6,12.4h3.1L45.2,6H42.2z
					 M40.7,8.1l-1-2.1h-3l2.2,5.4L40.7,8.1z M41.3,16.4l0.9,2h3l-2.4-5.2L41.3,16.4z"/>
			</g>
		</g>
		<g class="st9">
			<path class="st3" d="M70,21.4v6.9h-0.4v-6.9H70z"/>
			<path class="st3" d="M71.8,25v3.3h-0.4v-4.2h0.4v0.3c0.4-0.4,0.8-0.5,1.2-0.5c0.5,0,0.9,0.2,1.2,0.5c0.3,0.3,0.5,0.7,0.5,1.2v2.8
				h-0.4v-2.8c0-0.4-0.1-0.7-0.4-0.9s-0.6-0.4-0.9-0.4c-0.4,0-0.7,0.1-0.9,0.4C72,24.7,71.9,24.9,71.8,25z"/>
			<path class="st3" d="M76.6,24.5v3.8h-0.4v-3.8h-0.4v-0.4h0.4V23c0-0.3,0.1-0.6,0.4-0.8c0.2-0.2,0.5-0.3,0.8-0.3
				c0.2,0,0.3,0,0.5,0.1l-0.1,0.2c-0.1-0.1-0.2-0.1-0.3-0.1c-0.2,0-0.4,0.1-0.6,0.2c-0.2,0.2-0.2,0.3-0.3,0.6V24h0.9v0.4L76.6,24.5
				L76.6,24.5z"/>
			<path class="st3" d="M80.3,23.7c0.7,0,1.2,0.2,1.7,0.7s0.7,1,0.7,1.7s-0.2,1.2-0.7,1.7s-1,0.7-1.7,0.7s-1.2-0.2-1.7-0.7
				s-0.7-1-0.7-1.7s0.2-1.2,0.7-1.7C79.1,23.9,79.7,23.7,80.3,23.7z M78.9,24.7c-0.4,0.4-0.6,0.8-0.6,1.4s0.2,1,0.6,1.4
				s0.8,0.6,1.4,0.6s1-0.2,1.4-0.6s0.6-0.8,0.6-1.4s-0.2-1-0.6-1.4s-0.8-0.6-1.4-0.6S79.3,24.3,78.9,24.7z"/>
			<path class="st3" d="M84.3,24.1v-1.8h0.4v1.8h0.9v0.4h-0.9v3.8h-0.4v-3.8h-0.9v-0.4H84.3z"/>
			<path class="st3" d="M87.4,27.5c0.4,0.3,0.8,0.5,1.3,0.5s1-0.2,1.4-0.6c0,0,0.1-0.1,0.1-0.2l0.4,0.1c-0.1,0.1-0.2,0.2-0.3,0.3
				c-0.5,0.5-1,0.7-1.7,0.7s-1.2-0.2-1.7-0.7s-0.7-1-0.7-1.7s0.2-1.2,0.7-1.7s1-0.7,1.7-0.7c0.6,0,1,0.2,1.5,0.5
				c0.1,0.1,0.1,0.1,0.2,0.2c0,0,0,0.1,0.1,0.1l-0.3,0.3L87.4,27.5z M89.9,24.5c-0.3-0.3-0.7-0.4-1.2-0.4s-1,0.2-1.4,0.6
				s-0.6,0.8-0.6,1.4c0,0.4,0.1,0.8,0.4,1.2L89.9,24.5z"/>
			<path class="st3" d="M95.3,27.3l0.4,0.1c-0.1,0.1-0.2,0.2-0.3,0.3c-0.5,0.5-1,0.7-1.7,0.7s-1.2-0.2-1.7-0.7s-0.7-1-0.7-1.7
				s0.2-1.2,0.7-1.7s1-0.7,1.7-0.7s1.2,0.2,1.7,0.7c0.1,0.1,0.2,0.2,0.3,0.3l-0.4,0.2c0-0.1-0.1-0.1-0.1-0.2
				c-0.4-0.4-0.8-0.6-1.4-0.6c-0.5,0-1,0.2-1.4,0.6s-0.6,0.8-0.6,1.4s0.2,1,0.6,1.4s0.8,0.6,1.4,0.6c0.5,0,1-0.2,1.4-0.6
				C95.2,27.4,95.2,27.3,95.3,27.3z"/>
			<path class="st3" d="M96.7,21.4h0.4v2.9c0.3-0.3,0.7-0.5,1.2-0.5s0.9,0.2,1.2,0.5c0.3,0.3,0.5,0.7,0.5,1.2v2.8h-0.4v-2.8
				c0-0.4-0.1-0.7-0.4-0.9s-0.6-0.4-0.9-0.4s-0.7,0.1-0.9,0.4c-0.1,0.1-0.2,0.2-0.3,0.4v3.4h-0.4L96.7,21.4L96.7,21.4z"/>
		</g>
	</g>
	<g class="st1">
		<g>
			<path id="Ellipse_1_copy_1_" class="st8" d="M37.4,29.2l1.6-0.1l1.7,1.9c-0.2,0.1-3.1,1-6,0.7c-3.7-0.4-3.5-5.6-3.5-5.6V5.4h0.9
				V4.5h-0.9V3.6h0.9v0.9H33V3.6h-0.9v-1H33v0.9h0.9V2.6h0.9v0.9h-0.9v0.9h0.9v1.8h-0.9v0.9h0.9v11.1c1.3,0.1,2.7,0.3,4,0.6
				l-1.3,0.8c-0.8-0.2-1.7-0.3-2.7-0.4v7.3C34.8,28.1,36,29.2,37.4,29.2z M32.1,5.4v1.8H33V5.4H32.1z M33.9,4.5H33v0.9h0.9V4.5z
				 M33.9,7.3H33v0.9h0.9V7.3z M25.1,10.4h-0.9v-1h0.9V10.4z M30.7,29.9c0.2,0.4,0.4,0.8,0.7,1.2c0.3,0.4,0.7,0.8,1.1,1.1
				c-0.4,0-0.8,0-1.3,0c-9.4,0-17.1-3.1-17.1-7c0-3.2,5.2-5.9,12.3-6.7v-6.8h0.9v-0.9h-0.9v0.9h-1.8v-0.9h1.8v-0.6h-0.9V9.1h0.9v0.6
				h0.9V9.1h0.6V8.2h0.6v0.9h0.9V8.2H30v10l0,0v0.2V28h-0.9c-1.6,0-2.8-1.3-2.8-2.8l0,0v-5.6c-5.4,0.8-9.2,2.7-9.2,5
				C17.3,27.4,23.2,29.7,30.7,29.9z M28.7,11.9h0.9V11h-0.9v-0.9h-0.9V11h0.9V11.9z M27.5,12.4h0.9v-0.9h-0.9
				C27.5,11.5,27.5,12.4,27.5,12.4z M24.6,8.2h0.9v0.9h-0.9V8.2z M26.4,7.3v0.9h-0.9V7.3H26.4L26.4,7.3z M26.4,8.2H27v0.6h-0.6V8.2z
				"/>
			<path id="Ellipse_1_copy_2_1_" class="st8" d="M42.1,30.6l-1.6-1.9c3.2-1,5.2-2.5,5.2-4.1c0-1.8-2.5-3.5-6.3-4.4l1.4-0.7
				c4.5,1.3,7.5,3.4,7.5,5.8C48.2,27.3,45.8,29.3,42.1,30.6z"/>
			<g class="st9">
				<path class="st3" d="M52.2,22.1V13H55c1.4,0,2.5,0.4,3.2,1.1c0.7,0.8,1.1,1.9,1.1,3.4s-0.4,2.7-1.1,3.4
					c-0.7,0.8-1.8,1.2-3.3,1.2H52.2z M54,20.6h0.9c0.9,0,1.6-0.2,2-0.7s0.6-1.3,0.6-2.4c0-1-0.2-1.8-0.6-2.3c-0.4-0.5-1.1-0.7-2-0.7
					H54V20.6z"/>
				<path class="st3" d="M65.6,20.8c-0.2,0.5-0.6,0.8-1,1.1c-0.4,0.2-1,0.4-1.6,0.4c-0.9,0-1.6-0.3-2-0.9c-0.5-0.6-0.7-1.4-0.7-2.5
					s0.2-1.9,0.7-2.5s1.2-0.9,2-0.9c0.9,0,1.5,0.3,2,0.9c0.5,0.6,0.7,1.4,0.7,2.5c0,0,0,0.1,0,0.2s0,0.1,0,0.2h-3.9
					c0,0.6,0.1,1.1,0.4,1.4c0.2,0.3,0.6,0.5,1,0.5c0.3,0,0.5-0.1,0.7-0.2s0.4-0.3,0.6-0.6L65.6,20.8z M61.7,18h2.4
					c0-0.4-0.1-0.8-0.3-1s-0.5-0.4-0.9-0.4s-0.6,0.1-0.8,0.4C61.9,17.2,61.8,17.6,61.7,18z"/>
				<path class="st3" d="M65.9,22.1l2-3.4l-1.8-3.1h1.7l1,1.9l1-1.9h1.5l-1.8,3.1l2,3.4h-1.7l-1.1-2.3l-1.2,2.3H65.9z"/>
				<path class="st3" d="M72.4,22.1V13h3.3c1,0,1.8,0.2,2.3,0.6c0.5,0.4,0.8,1,0.8,1.8c0,0.4-0.1,0.8-0.3,1.1
					c-0.2,0.3-0.6,0.6-1,0.8c0.5,0.2,0.9,0.4,1.2,0.8c0.3,0.4,0.4,0.8,0.4,1.4c0,0.9-0.3,1.5-0.8,1.9c-0.6,0.4-1.4,0.6-2.5,0.6h-3.4
					V22.1z M74.1,16.7h1.4c0.5,0,0.9-0.1,1.2-0.3s0.4-0.5,0.4-0.8c0-0.4-0.1-0.7-0.4-0.9s-0.7-0.3-1.3-0.3h-1.3
					C74.1,14.4,74.1,16.7,74.1,16.7z M74.1,20.7h1.4c0.6,0,1.1-0.1,1.4-0.3c0.3-0.2,0.4-0.6,0.4-1s-0.1-0.8-0.4-1s-0.7-0.3-1.3-0.3
					h-1.5V20.7z"/>
				<path class="st3" d="M82.1,22l-2.3-6.4h1.6l1.4,4.3l1.3-4.3h1.5l-2.1,6.2c-0.3,1.2-0.7,1.9-1.1,2.2s-0.9,0.5-1.5,0.5
					c-0.1,0-0.2,0-0.3,0c-0.1,0-0.2,0-0.3-0.1v-1.3c0.1,0,0.2,0,0.3,0.1c0.1,0,0.2,0,0.3,0c0.3,0,0.6-0.1,0.8-0.3
					C81.9,22.7,82,22.4,82.1,22z"/>
				<path class="st3" d="M88.3,20.2c0,0.3,0,0.5,0.1,0.6s0.3,0.1,0.5,0.1c0.1,0,0.2,0,0.3,0c0.1,0,0.2,0,0.3,0v1.3
					c-0.2,0-0.4,0.1-0.6,0.1s-0.5,0-0.7,0c-0.5,0-0.9-0.1-1.2-0.4c-0.2-0.2-0.4-0.6-0.4-1.2v-3.9h-0.9v-1.3h0.9v-2.1h1.6v2.1h1.3
					v1.3h-1.3L88.3,20.2L88.3,20.2z"/>
				<path class="st3" d="M95.5,20.8c-0.2,0.5-0.6,0.8-1,1.1c-0.4,0.2-1,0.4-1.6,0.4c-0.9,0-1.6-0.3-2-0.9c-0.5-0.6-0.7-1.4-0.7-2.5
					s0.2-1.9,0.7-2.5s1.2-0.9,2-0.9c0.9,0,1.5,0.3,2,0.9c0.5,0.6,0.7,1.4,0.7,2.5c0,0,0,0.1,0,0.2s0,0.1,0,0.2h-3.9
					c0,0.6,0.1,1.1,0.4,1.4c0.2,0.3,0.6,0.5,1,0.5c0.3,0,0.5-0.1,0.7-0.2s0.4-0.3,0.6-0.6L95.5,20.8z M91.7,18h2.4
					c0-0.4-0.1-0.8-0.3-1c-0.2-0.2-0.5-0.4-0.9-0.4s-0.6,0.1-0.8,0.4C91.8,17.2,91.7,17.6,91.7,18z"/>
				<path class="st3" d="M96.3,20.9l1.1-0.8c0.2,0.3,0.5,0.6,0.7,0.7c0.2,0.2,0.5,0.2,0.8,0.2s0.5-0.1,0.7-0.2s0.2-0.3,0.2-0.5
					c0-0.3-0.3-0.6-1-0.9c-0.1,0-0.1-0.1-0.2-0.1c-0.8-0.3-1.4-0.6-1.6-0.9c-0.3-0.3-0.4-0.7-0.4-1.1c0-0.6,0.2-1,0.6-1.4
					s1-0.5,1.6-0.5c0.4,0,0.9,0.1,1.2,0.2c0.4,0.2,0.7,0.4,1,0.8l-1,0.9c-0.2-0.2-0.4-0.4-0.6-0.5s-0.4-0.2-0.6-0.2
					c-0.3,0-0.5,0.1-0.6,0.2S98,17.1,98,17.3s0.3,0.5,1,0.8c0.2,0.1,0.3,0.1,0.4,0.2c0.7,0.3,1.2,0.6,1.4,0.9
					c0.3,0.3,0.4,0.7,0.4,1.2c0,0.6-0.2,1.1-0.6,1.5s-1,0.6-1.7,0.6c-0.5,0-1-0.1-1.4-0.3C97,21.7,96.6,21.4,96.3,20.9z"/>
			</g>
		</g>
		<g class="st9">
			<path class="st3" d="M53.9,31.7h-0.7v-5.4h0.7V31.7z"/>
			<path class="st3" d="M55.7,27.6v0.5c0.1-0.2,0.3-0.3,0.5-0.4s0.4-0.2,0.7-0.2c0.2,0,0.4,0,0.5,0.1c0.2,0.1,0.3,0.1,0.4,0.3
				c0.1,0.1,0.2,0.3,0.3,0.5s0.1,0.4,0.1,0.7v2.6h-0.7V29c0-0.2,0-0.3-0.1-0.4c0-0.1-0.1-0.2-0.2-0.3c-0.1-0.1-0.2-0.1-0.3-0.2
				c-0.1,0-0.2,0-0.3,0c-0.2,0-0.4,0.1-0.6,0.2c-0.2,0.1-0.3,0.3-0.4,0.5v2.9h-0.7v-4h0.8V27.6z"/>
			<path class="st3" d="M59.6,31.7v-3.5H59v-0.5h0.6v-0.4c0-0.2,0-0.4,0.1-0.6s0.1-0.3,0.3-0.4c0.1-0.1,0.3-0.2,0.4-0.3
				c0.2-0.1,0.3-0.1,0.6-0.1c0.2,0,0.3,0,0.5,0.1v0.6c-0.1,0-0.1,0-0.2,0c-0.1,0-0.1,0-0.2,0c-0.2,0-0.4,0.1-0.5,0.2
				s-0.2,0.3-0.2,0.6v0.4h0.9v0.5h-0.9v3.5h-0.8C59.6,31.8,59.6,31.7,59.6,31.7z"/>
			<path class="st3" d="M61.7,29.6c0-0.3,0-0.6,0.1-0.8c0.1-0.2,0.2-0.5,0.4-0.6c0.2-0.2,0.3-0.3,0.6-0.4c0.2-0.1,0.5-0.2,0.8-0.2
				s0.5,0.1,0.8,0.2c0.2,0.1,0.4,0.2,0.6,0.4c0.2,0.2,0.3,0.4,0.4,0.6s0.1,0.5,0.1,0.8v0.1c0,0.3,0,0.6-0.1,0.8
				c-0.1,0.2-0.2,0.5-0.4,0.6c-0.2,0.2-0.4,0.3-0.6,0.4s-0.5,0.2-0.8,0.2s-0.5-0.1-0.8-0.2c-0.2-0.1-0.4-0.2-0.6-0.4
				c-0.2-0.2-0.3-0.4-0.4-0.6C61.8,30.3,61.7,30,61.7,29.6L61.7,29.6z M62.4,29.7c0,0.2,0,0.4,0.1,0.6c0,0.2,0.1,0.3,0.2,0.5
				c0.1,0.1,0.2,0.2,0.4,0.3c0.1,0.1,0.3,0.1,0.5,0.1s0.4,0,0.5-0.1s0.3-0.2,0.4-0.3c0.1-0.1,0.2-0.3,0.2-0.5s0.1-0.4,0.1-0.6v-0.1
				c0-0.2,0-0.4-0.1-0.6c0-0.2-0.1-0.3-0.2-0.5c-0.1-0.1-0.2-0.2-0.4-0.3c-0.1-0.1-0.3-0.1-0.5-0.1s-0.4,0-0.5,0.1s-0.3,0.2-0.4,0.3
				c-0.1,0.1-0.2,0.3-0.2,0.5C62.5,29.2,62.4,29.4,62.4,29.7L62.4,29.7z"/>
			<path class="st3" d="M67.2,26.7v1H68v0.5h-0.8v2.5c0,0.1,0,0.2,0,0.3c0,0.1,0.1,0.1,0.1,0.1l0.1,0.1c0.1,0,0.1,0,0.2,0
				c0.1,0,0.1,0,0.2,0s0.1,0,0.1,0v0.6c-0.1,0-0.1,0-0.2,0s-0.2,0-0.3,0s-0.2,0-0.4-0.1c-0.1,0-0.2-0.1-0.3-0.2s-0.2-0.2-0.2-0.3
				c0-0.1-0.1-0.3-0.1-0.5v-2.5h-0.6v-0.5h0.7v-1H67.2z"/>
			<path class="st3" d="M70.4,31.7c-0.3,0-0.5,0-0.8-0.1c-0.2-0.1-0.4-0.2-0.6-0.4c-0.2-0.2-0.3-0.4-0.4-0.6s-0.1-0.5-0.1-0.8v-0.2
				c0-0.3,0-0.6,0.1-0.9s0.2-0.5,0.4-0.7c0.2-0.2,0.4-0.3,0.6-0.4s0.4-0.1,0.7-0.1c0.3,0,0.5,0.1,0.7,0.2c0.2,0.1,0.4,0.2,0.5,0.4
				c0.1,0.2,0.2,0.4,0.3,0.6s0.1,0.5,0.1,0.8v0.3h-2.7c0,0.2,0,0.4,0.1,0.5c0.1,0.2,0.1,0.3,0.2,0.4s0.2,0.2,0.4,0.3
				c0.1,0.1,0.3,0.1,0.5,0.1c0.2,0,0.4,0,0.6-0.1c0.2-0.1,0.3-0.2,0.4-0.4l0.4,0.3c-0.1,0.1-0.1,0.2-0.2,0.3
				c-0.1,0.1-0.2,0.2-0.3,0.2s-0.3,0.1-0.4,0.2C70.8,31.7,70.6,31.7,70.4,31.7z M70.3,28.1c-0.1,0-0.3,0-0.4,0.1
				c-0.1,0.1-0.2,0.1-0.3,0.2s-0.2,0.2-0.2,0.4c-0.1,0.1-0.1,0.3-0.1,0.5h2v-0.1c0-0.1,0-0.3-0.1-0.4c0-0.1-0.1-0.2-0.2-0.4
				c-0.1-0.1-0.2-0.2-0.3-0.3C70.7,28.2,70.5,28.1,70.3,28.1z"/>
			<path class="st3" d="M74.4,31.2c0.1,0,0.2,0,0.4-0.1c0.1,0,0.2-0.1,0.3-0.2s0.2-0.2,0.2-0.2s0.1-0.2,0.1-0.3h0.7
				c0,0.2-0.1,0.3-0.1,0.5c-0.1,0.2-0.2,0.3-0.3,0.4s-0.3,0.2-0.5,0.3c-0.2,0.1-0.4,0.1-0.6,0.1c-0.3,0-0.6-0.1-0.8-0.2
				c-0.2-0.1-0.4-0.3-0.6-0.4c-0.1-0.2-0.3-0.4-0.3-0.6c-0.1-0.2-0.1-0.5-0.1-0.8v-0.2c0-0.3,0-0.5,0.1-0.8c0.1-0.2,0.2-0.5,0.3-0.6
				c0.1-0.2,0.3-0.3,0.6-0.4c0.3-0.1,0.5-0.2,0.8-0.2c0.2,0,0.4,0,0.6,0.1c0.2,0.1,0.4,0.2,0.5,0.3c0.1,0.1,0.2,0.3,0.3,0.5
				s0.1,0.4,0.1,0.6h-0.7c0-0.1,0-0.2-0.1-0.3c0-0.1-0.1-0.2-0.2-0.3c-0.1-0.1-0.2-0.1-0.3-0.2c-0.1,0-0.2-0.1-0.4-0.1
				c-0.2,0-0.4,0-0.5,0.1s-0.3,0.2-0.3,0.3c-0.1,0.1-0.1,0.3-0.2,0.5c0,0.2-0.1,0.3-0.1,0.5v0.2c0,0.2,0,0.4,0.1,0.5
				c0,0.2,0.1,0.3,0.2,0.5c0.1,0.1,0.2,0.2,0.3,0.3C74,31.1,74.2,31.2,74.4,31.2z"/>
			<path class="st3" d="M77.5,28.1c0.1-0.2,0.3-0.3,0.5-0.4s0.4-0.1,0.7-0.1c0.2,0,0.4,0,0.5,0.1c0.2,0.1,0.3,0.1,0.4,0.3
				c0.1,0.1,0.2,0.3,0.3,0.5c0.1,0.2,0.1,0.4,0.1,0.7v2.6h-0.7V29c0-0.2,0-0.3-0.1-0.4c0-0.1-0.1-0.2-0.2-0.3
				c-0.1-0.1-0.2-0.1-0.3-0.2c-0.1,0-0.2,0-0.3,0c-0.2,0-0.4,0.1-0.6,0.2s-0.3,0.3-0.4,0.5v2.9h-0.6V26h0.7V28.1z"/>
		</g>
	</g>
</g>
<g>
	<g>
		<g>
			<path class="st3" d="M29.2,17.8h4.2l1.6-2.2l-2.1-2.9L29.2,17.8z M16.7,7.1h11v-3h-11V7.1z M35,6.3l-1.6-2.2h-4.2l3.7,5.1L35,6.3
				z M38.3,10.9l5-6.8h-4.2l-2.9,4l0,0L34.1,11l3.5,4.7l0,0l1.6,2.1h4.2L38.3,10.9z M16.7,17.8h11v-3.1h-11V17.8z M16.7,12.1h11v-3
				h-11V12.1z"/>
		</g>
	</g>
</g>
<g>
	<path class="st3" d="M86.1,20.6v6.1h-0.3v-6.1H86.1z"/>
	<path class="st3" d="M87.6,23.8v2.9h-0.3V23h0.3v0.2c0.3-0.3,0.7-0.5,1.1-0.5s0.8,0.1,1.1,0.4c0.3,0.3,0.4,0.6,0.4,1v2.5h-0.3v-2.5
		c0-0.3-0.1-0.6-0.3-0.8S89.1,23,88.8,23s-0.6,0.1-0.8,0.3C87.8,23.5,87.7,23.6,87.6,23.8z"/>
	<path class="st3" d="M91.9,23.3v3.4h-0.3v-3.4h-0.4V23h0.4v-1c0-0.3,0.1-0.5,0.3-0.7c0.2-0.2,0.4-0.3,0.7-0.3c0.1,0,0.3,0,0.4,0.1
		l-0.1,0.3c-0.1,0-0.2-0.1-0.3-0.1c-0.2,0-0.4,0.1-0.5,0.2c-0.1,0.1-0.2,0.3-0.2,0.5v1h0.8v0.3H91.9z"/>
	<path class="st3" d="M95.2,22.6c0.6,0,1.1,0.2,1.5,0.6c0.4,0.4,0.6,0.9,0.6,1.5s-0.2,1.1-0.6,1.5s-0.9,0.6-1.5,0.6
		s-1.1-0.2-1.5-0.6c-0.4-0.4-0.6-0.9-0.6-1.5s0.2-1.1,0.6-1.5C94.1,22.8,94.6,22.6,95.2,22.6z M93.9,23.4c-0.3,0.3-0.5,0.8-0.5,1.3
		s0.2,1,0.5,1.3c0.3,0.3,0.8,0.5,1.3,0.5c0.5,0,1-0.2,1.3-0.5c0.3-0.3,0.5-0.8,0.5-1.3s-0.2-1-0.5-1.3s-0.8-0.5-1.2-0.5
		S94.3,23,93.9,23.4z"/>
	<path class="st3" d="M98.7,22.9v-1.6H99v1.6h0.8v0.3H99v3.4h-0.3v-3.4h-0.8v-0.3H98.7z"/>
	<path class="st3" d="M109.7,20.6h0.3v2.5c0.3-0.3,0.6-0.4,1-0.4s0.8,0.1,1.1,0.4c0.3,0.3,0.4,0.6,0.4,1v2.5h-0.3v-2.5
		c0-0.3-0.1-0.6-0.3-0.8s-0.5-0.3-0.8-0.3s-0.6,0.1-0.8,0.3c-0.1,0.1-0.2,0.2-0.2,0.3v3h-0.3L109.7,20.6L109.7,20.6z"/>
</g>
<path class="st8" d="M103.1,8c0,0.8,0.3,1.1,0.6,1.3c0.2,0.1,0.4,0.1,0.6,0.1c0.7,0,1.3,0,2,0c-0.6,0.8-2.4,2.9-2.4,2.9
	s-2.3-0.4-3.4-2c-0.6-0.9-0.7-2.1-0.4-3.2c0.2-0.9,0.8-1.7,1.5-2.2c1.2-0.8,2.7-0.8,4.1-0.8c2.2,0,4.4,0,6.5,0c0,0.9,0,1.9,0,2.8
	c-2.7,0-5.3,0-8,0C104,6.9,103.2,7.1,103.1,8z M87.1,14.8h11v2.9h-11V14.8z M87.1,9.1h11V12h-11V9.1z M87.1,4h11v2.9h-11V4z
	 M81.4,6.9h-4.3l0,0h-3.6V4h11.7v2.9H81.4L81.4,6.9z M70.4,16.2c-0.3,0.4-0.6,0.7-1,1c-1,0.6-2.1,0.6-3.3,0.6c-2.2,0-4.4,0-6.6-0.1
	c-0.2,0-0.6,0-0.7-0.1c-0.1-0.2,0-0.6,0-0.8c0-0.7,0-1.3,0.1-2c2.6,0,5.1,0,7.7,0c0.4,0,0.8,0,1-0.4c0.1-0.2,0.1-0.4,0.1-0.6
	c0-3.3,0-6.5,0-9.8c1.2,0,2.4,0,3.5,0c0,2.4,0.1,4.9,0.1,7.3c0,1.1,0,2.2-0.2,3.2C71.1,15.2,70.8,15.7,70.4,16.2z M61,12
	c-0.2-0.1-0.3-0.2-0.5-0.3c-0.9-0.6-1.5-1.6-1.7-2.6c-0.2-1.3-0.1-2.6-0.1-3.8c0-0.1,0-1.2,0-1.2c1.1,0,2.3,0,3.4,0
	c0,1.2,0,2.4,0,3.6c0,0.3,0,0.7,0.1,1c0.1,0.3,0.4,0.6,0.7,0.7c0.1,0,0.3,0,0.4,0c0.9,0,1.7,0,2.6,0c0,1,0,1.9,0,2.9
	c-1,0-1.8,0-2.8,0C62.4,12.3,61.7,12.2,61,12z M56.9,13.2c0.1,0.9-0.1,1.8-0.6,2.5c-0.6,1-1.7,1.5-2.8,1.8c-1.1,0.3-2.3,0.3-3.4,0.3
	c-1.6,0-6,0-6,0s0-2.2,0-3c2.7,0,5.4,0,8.2,0c0.3,0,0.7,0,0.9-0.2c0.3-0.2,0.5-0.7,0.5-1c0-1.4-1-1.4-1.4-1.4c-2.7,0-5.4,0-8.1,0
	c0-1,0-2.1,0-3.1c2.5,0,5.1,0,7.6,0c0.5,0,1.1,0,1.4-0.2c0.3-0.2,0.5-0.5,0.3-1.3c-0.1-0.4-0.7-0.4-1-0.4c-2.8,0-5.6,0-8.4,0
	c0-1,0-2,0-3c2.2,0,4.4,0,6.6,0c1,0,2.1,0,3.1,0.2s2,0.8,2.5,1.7c0.4,0.7,0.5,1.6,0.4,2.4s-0.5,1.6-1,2.2c0.6,0.7,1.1,1.5,1.2,2.4
	C56.9,13.1,56.9,13.1,56.9,13.2z M44.2,11.9L44.2,11.9L44.2,11.9L44.2,11.9L44.2,11.9z M81,17.7h-3.6V9.1H81V17.7z M109.5,13.5
	c0-1.1-1.2-1.2-1.6-1.2c-0.4,0-0.8,0-1.1,0c0.7-0.8,1.4-1.7,2.1-2.5c0.1-0.1,0.3-0.3,0.3-0.3s0.2,0.1,0.3,0.1
	c1.5,0.4,2.8,1.6,3.1,3.2c0.2,1.2,0,2.4-0.7,3.4c-0.4,0.6-0.8,1-1.4,1.3c-0.7,0.3-1.4,0.3-2.1,0.3c-1,0-2,0-3,0s-2,0-3,0
	c-0.5,0-2,0-2,0l0-2.9c0,0,5,0,7.5,0C108.1,14.8,109.5,14.8,109.5,13.5z"/>
<path class="st8" d="M14.7,13.4c-0.1,0.3-0.2,0.7-0.4,1c-0.7,1.4-1.9,2.5-3.3,3c-0.9,0.3-1.8,0.4-2.7,0.4c-0.9,0-3.3,0-3.3,0l-0.6,0
	v-0.7H3.7v-0.7h0.7l0-0.7l-0.7,0l0-0.7l-0.8,0l0,0.7l-0.7,0V15H1.5v-0.7l0.7,0l0,0.7l0.7,0v-0.7l0.8,0V15c0,0,2.2,0,3.4,0
	s2.3-0.1,3.2-0.7c1-0.6,1.7-1.8,1.7-3S11.5,8.9,10.7,8c-0.4-0.4-0.9-0.8-1.5-0.9C8.8,7,8.4,7,8,7C6.6,7,3.7,7,3.7,7v0.7H2.9V7l0.8,0
	V6.3H2.9V7H2.2V6.3h0.7V5.6H2.2l0-0.7l-0.7,0V4.2l0.7,0l0,0.7l0.7,0l0-0.7c0,0,3.2,0,4.7,0s3.2,0.2,4.5,1.1c1.5,1,2.4,2.8,2.7,4.6
	C15.1,11,15,12.2,14.7,13.4z M3.7,4.9H2.9l0,0.7h0.8V4.9z M4.4,5.6H3.7v0.7h0.7V5.6z M2.2,8.4V7.7h0.7v0.7L2.2,8.4z M2.9,9.9H2.2
	V9.1h0.7V9.9z M2.9,11.3H2.2l0-0.7h0.7L2.9,11.3z M2.9,12.8H2.2V12l0.7,0L2.9,12.8z M2.9,14.3l-0.7,0l0-0.8h0.7L2.9,14.3z M2.9,9.1
	V8.4h0.8v0.7H2.9z M2.9,10.6V9.9h0.8v0.7H2.9z M2.9,12v-0.7h0.8V12L2.9,12z M2.9,13.5v-0.7h0.8v0.7H2.9z M2.9,17.1H2.2l0-0.7h0.7
	L2.9,17.1z M2.9,15.7l0.8,0l0,0.7H2.9L2.9,15.7z M2.9,17.8v-0.7h0.8l0,0.7H2.9z M1.5,17.8v-0.7h0.7v0.7H1.5z M1.5,16.4v-0.7l0.7,0
	l0,0.7H1.5z M1.5,13.5v-0.7h0.7v0.7H1.5z M1.5,12v-0.7l0.7,0V12L1.5,12z M1.5,10.6V9.9h0.7v0.7H1.5z M1.5,9.1V8.4l0.7,0v0.7H1.5z
	 M1.5,7h0.7v0.7H1.5V7z M2.2,6.3H1.5l0-0.7l0.7,0V6.3z"/>
<path class="st3" d="M104,25.8c-0.3,0.4-0.8,0.7-1.4,0.7c-0.5,0-0.9-0.2-1.2-0.5l2.6-2.5c0,0,0,0,0,0l0.2-0.2
	c-0.4-0.5-1-0.7-1.6-0.7c-1.2,0-2.1,0.9-2.1,2.1s0.9,2.1,2.1,2.1c0.7,0,1.4-0.4,1.7-0.9L104,25.8z M102.6,22.8
	c0.4,0,0.9,0.2,1.2,0.4l-2.6,2.5c-0.2-0.3-0.4-0.7-0.4-1.1C100.8,23.6,101.6,22.8,102.6,22.8z"/>
<path class="st3" d="M108.5,25.8c-0.3,0.4-0.8,0.7-1.4,0.7c-1,0-1.7-0.9-1.7-1.8c0-1,0.8-1.8,1.7-1.8c0.6,0,1,0.3,1.4,0.7l0.4-0.1
	c-0.4-0.5-1-0.9-1.7-0.9c-1.2,0-2.1,0.9-2.1,2.1c0,1.2,0.9,2.1,2.1,2.1c0.7,0,1.3-0.4,1.7-0.9L108.5,25.8z"/>
</svg>
