<svg xmlns="http://www.w3.org/2000/svg" xmlns:xlink="http://www.w3.org/1999/xlink" style="margin:auto;background:#16abfc;display:block;z-index:1;position:relative" width="1219" height="1321" preserveAspectRatio="xMidYMid" viewBox="0 0 1219 1321">
<g transform="translate(609.5,660.5) scale(1,1) translate(-609.5,-660.5)"><defs>
  <path id="path-bapa2x7ludk-1" d="M-35 -35L35 -35L35 35L-35 35Z" fill="none" stroke="inherit" stroke-width="4.333333333333334" transform="scale(0.3)"></path>
  <path id="path-bapa2x7ludk-2" d="M0 -37A37 37 0 0 1 0 37A37 37 0 0 1 0 -37" fill="none" stroke="inherit" stroke-width="4.333333333333334" transform="scale(0.3)"></path>
  <path id="path-bapa2x7ludk-3" d="M0 -34.641L40 34.641L-40 34.641Z" fill="none" stroke="inherit" stroke-width="4.333333333333334" transform="scale(0.3)"></path>
</defs><path id="path0" d="M 71.58798000451338 455.3666096374124
c 0 43.65388518671148 -10.681269779727275 12.538881915332022 -23.220151695059297 12.538881915332022
S 25.147676614394793 499.0204948241239 25.147676614394793 455.3666096374124
s 10.681269779727275 -12.538881915332022 23.220151695059297 -12.538881915332022
S 71.58798000451338 411.71272445070093 71.58798000451338 455.3666096374124
z" fill="none" stroke="none"></path>
<use xlink:href="#path-bapa2x7ludk-2" x="0" y="0" stroke="#2e91ff">
  <animateMotion begin="-0.8495182074331702s" dur="14.872683375439454s" keyPoints="0;1" keyTimes="0;1" repeatCount="indefinite" calcMode="linear">
    <mpath xlink:href="#path0"></mpath>
  </animateMotion>
</use><path id="path1" d="M 84.80737908098337 1219.649578088318
c 0 24.199019672877004 -5.921036728469905 6.950782246464672 -12.871818974934577 6.950782246464672
S 59.063741131114206 1243.8485977611952 59.063741131114206 1219.649578088318
s 5.921036728469905 -6.950782246464672 12.871818974934577 -6.950782246464672
S 84.80737908098337 1195.450558415441 84.80737908098337 1219.649578088318
z" fill="none" stroke="none"></path>
<use xlink:href="#path-bapa2x7ludk-3" x="0" y="0" stroke="#003f85">
  <animateMotion begin="-3.7350295083151566s" dur="18.895710399000034s" keyPoints="0;1" keyTimes="0;1" repeatCount="indefinite" calcMode="linear">
    <mpath xlink:href="#path1"></mpath>
  </animateMotion>
</use><path id="path2" d="M 115.01613127152476 53.07891148926328
c 0 45.103064450288784 -11.035856195283424 12.955135533593587 -23.990991728877013 12.955135533593587
S 67.03414781377074 98.18197593955206 67.03414781377074 53.07891148926328
s 11.035856195283424 -12.955135533593587 23.990991728877013 -12.955135533593587
S 115.01613127152476 7.975847038974493 115.01613127152476 53.07891148926328
z" fill="none" stroke="none"></path>
<use xlink:href="#path-bapa2x7ludk-2" x="0" y="0" stroke="#003f85">
  <animateMotion begin="-5.801248982181207s" dur="16.371904978495124s" keyPoints="0;1" keyTimes="0;1" repeatCount="indefinite" calcMode="linear">
    <mpath xlink:href="#path2"></mpath>
  </animateMotion>
</use><path id="path3" d="M 136.38445048285595 200.97259184105098
c 0 48.56759435585887 -11.883560321114404 13.95026646391691 -25.833826785031313 13.95026646391691
S 84.71679691279334 249.54018619690987 84.71679691279334 200.97259184105098
s 11.883560321114404 -13.95026646391691 25.833826785031313 -13.95026646391691
S 136.38445048285595 152.4049974851921 136.38445048285595 200.97259184105098
z" fill="none" stroke="none"></path>
<use xlink:href="#path-bapa2x7ludk-3" x="0" y="0" stroke="#2e91ff">
  <animateMotion begin="-3.5520640357781854s" dur="14.850290146138347s" keyPoints="1;0" keyTimes="0;1" repeatCount="indefinite" calcMode="linear">
    <mpath xlink:href="#path3"></mpath>
  </animateMotion>
</use><path id="path4" d="M 164.15777735132332 488.7007166985056
c 0 36.22230915781615 -8.86290543223161 10.404280290011021 -19.267185722242633 10.404280290011021
S 125.62340590683806 524.9230258563217 125.62340590683806 488.7007166985056
s 8.86290543223161 -10.404280290011021 19.267185722242633 -10.404280290011021
S 164.15777735132332 452.47840754068943 164.15777735132332 488.7007166985056
z" fill="none" stroke="none"></path>
<use xlink:href="#path-bapa2x7ludk-2" x="0" y="0" stroke="#003f85">
  <animateMotion begin="-4.7179436206492396s" dur="13.281697565145903s" keyPoints="0;1" keyTimes="0;1" repeatCount="indefinite" calcMode="linear">
    <mpath xlink:href="#path4"></mpath>
  </animateMotion>
</use><path id="path5" d="M 197.78130036528782 680.6656837519629
c 0 29.652026451731697 -7.255283067976904 8.517071427625062 -15.772354495601967 8.517071427625062
S 166.23659137408387 710.3177102036946 166.23659137408387 680.6656837519629
s 7.255283067976904 -8.517071427625062 15.772354495601967 -8.517071427625062
S 197.78130036528782 651.0136573002312 197.78130036528782 680.6656837519629
z" fill="none" stroke="none"></path>
<use xlink:href="#path-bapa2x7ludk-1" x="0" y="0" stroke="#003f85">
  <animateMotion begin="-1.7605121815570246s" dur="16.80444366599937s" keyPoints="1;0" keyTimes="0;1" repeatCount="indefinite" calcMode="linear">
    <mpath xlink:href="#path5"></mpath>
  </animateMotion>
</use><path id="path6" d="M 216.33413028482968 731.9849588021021
c 0 28.158269444683548 -6.889789332209804 8.088013563898466 -14.977802896108269 8.088013563898466
S 186.37852449261314 760.1432282467857 186.37852449261314 731.9849588021021
s 6.889789332209804 -8.088013563898466 14.977802896108269 -8.088013563898466
S 216.33413028482968 703.8266893574186 216.33413028482968 731.9849588021021
z" fill="none" stroke="none"></path>
<use xlink:href="#path-bapa2x7ludk-3" x="0" y="0" stroke="#003f85">
  <animateMotion begin="-2.4070658824969624s" dur="12.207497737647522s" keyPoints="1;0" keyTimes="0;1" repeatCount="indefinite" calcMode="linear">
    <mpath xlink:href="#path6"></mpath>
  </animateMotion>
</use><path id="path7" d="M 252.31054172384285 677.9433624195323
c 0 37.86444007954498 -9.264703423718451 10.875956193060793 -20.140659616779246 10.875956193060793
S 212.02922249028433 715.8078024990773 212.02922249028433 677.9433624195323
s 9.264703423718451 -10.875956193060793 20.140659616779246 -10.875956193060793
S 252.31054172384285 640.0789223399872 252.31054172384285 677.9433624195323
z" fill="none" stroke="none"></path>
<use xlink:href="#path-bapa2x7ludk-3" x="0" y="0" stroke="#2e91ff">
  <animateMotion begin="-3.0629280074048566s" dur="13.186570463771798s" keyPoints="1;0" keyTimes="0;1" repeatCount="indefinite" calcMode="linear">
    <mpath xlink:href="#path7"></mpath>
  </animateMotion>
</use><path id="path8" d="M 275.4899210920154 245.50921881746586
c 0 53.25706467211933 -13.030983909135578 15.297241980289593 -28.32822588942517 15.297241980289593
S 218.83346931316507 298.7662834895852 218.83346931316507 245.50921881746586
s 13.030983909135578 -15.297241980289593 28.32822588942517 -15.297241980289593
S 275.4899210920154 192.25215414534654 275.4899210920154 245.50921881746586
z" fill="none" stroke="none"></path>
<use xlink:href="#path-bapa2x7ludk-1" x="0" y="0" stroke="#2e91ff">
  <animateMotion begin="-5.049630953964815s" dur="13.701257857403382s" keyPoints="1;0" keyTimes="0;1" repeatCount="indefinite" calcMode="linear">
    <mpath xlink:href="#path8"></mpath>
  </animateMotion>
</use><path id="path9" d="M 285.3215653029753 1291.7733719860341
c 0 21.59870895413792 -5.284790488778426 6.2038844868268495 -11.488674975605274 6.2038844868268495
S 262.3442153517648 1313.372080940172 262.3442153517648 1291.7733719860341
s 5.284790488778426 -6.2038844868268495 11.488674975605274 -6.2038844868268495
S 285.3215653029753 1270.1746630318962 285.3215653029753 1291.7733719860341
z" fill="none" stroke="none"></path>
<use xlink:href="#path-bapa2x7ludk-1" x="0" y="0" stroke="#003f85">
  <animateMotion begin="-4.263744139728151s" dur="24.15718851978059s" keyPoints="0;1" keyTimes="0;1" repeatCount="indefinite" calcMode="linear">
    <mpath xlink:href="#path9"></mpath>
  </animateMotion>
</use><path id="path10" d="M 332.728700703903 926.4656311824792
c 0 59.20191987516126 -14.485576139667115 17.004806772652703 -31.490382912319816 17.004806772652703
S 269.7479348792633 985.6675510576405 269.7479348792633 926.4656311824792
s 14.485576139667115 -17.004806772652703 31.490382912319816 -17.004806772652703
S 332.728700703903 867.263711307318 332.728700703903 926.4656311824792
z" fill="none" stroke="none"></path>
<use xlink:href="#path-bapa2x7ludk-1" x="0" y="0" stroke="#2e91ff">
  <animateMotion begin="-3.9484441090794933s" dur="14.911096590656497s" keyPoints="1;0" keyTimes="0;1" repeatCount="indefinite" calcMode="linear">
    <mpath xlink:href="#path10"></mpath>
  </animateMotion>
</use><path id="path11" d="M 361.36409139155484 736.1541135476529
c 0 30.693902954522905 -7.510210297383263 8.816333827362962 -16.326544124746224 8.816333827362962
S 328.71100314206234 766.8480165021757 328.71100314206234 736.1541135476529
s 7.510210297383263 -8.816333827362962 16.326544124746224 -8.816333827362962
S 361.36409139155484 705.46021059313 361.36409139155484 736.1541135476529
z" fill="none" stroke="none"></path>
<use xlink:href="#path-bapa2x7ludk-3" x="0" y="0" stroke="#2e91ff">
  <animateMotion begin="-0.4693861190666068s" dur="17.555069496405295s" keyPoints="0;1" keyTimes="0;1" repeatCount="indefinite" calcMode="linear">
    <mpath xlink:href="#path11"></mpath>
  </animateMotion>
</use><path id="path12" d="M 386.0543996336991 1171.5111066165364
c 0 64.90305422185696 -15.880534543645851 18.642366638192957 -34.52290118183881 18.642366638192957
S 317.00859727002154 1236.4141608383934 317.00859727002154 1171.5111066165364
s 15.880534543645851 -18.642366638192957 34.52290118183881 -18.642366638192957
S 386.0543996336991 1106.6080523946794 386.0543996336991 1171.5111066165364
z" fill="none" stroke="none"></path>
<use xlink:href="#path-bapa2x7ludk-2" x="0" y="0" stroke="#003f85">
  <animateMotion begin="-0.37641566881333505s" dur="16.10273865730196s" keyPoints="1;0" keyTimes="0;1" repeatCount="indefinite" calcMode="linear">
    <mpath xlink:href="#path12"></mpath>
  </animateMotion>
</use><path id="path13" d="M 403.8814921764 539.9400222372053
c 0 43.486260487395924 -10.640255225639427 12.490734395315851 -23.130989620955276 12.490734395315851
S 357.6195129344894 583.4262827246013 357.6195129344894 539.9400222372053
s 10.640255225639427 -12.490734395315851 23.130989620955276 -12.490734395315851
S 403.8814921764 496.45376174980936 403.8814921764 539.9400222372053
z" fill="none" stroke="none"></path>
<use xlink:href="#path-bapa2x7ludk-1" x="0" y="0" stroke="#003f85">
  <animateMotion begin="-2.4562687543275823s" dur="21.731380935314764s" keyPoints="0;1" keyTimes="0;1" repeatCount="indefinite" calcMode="linear">
    <mpath xlink:href="#path13"></mpath>
  </animateMotion>
</use><path id="path14" d="M 462.22249633270627 991.9988910579242
c 0 63.91172439068045 -15.637975116868619 18.357622963280555 -33.99559808014917 18.357622963280555
S 394.2313001724079 1055.9106154486046 394.2313001724079 991.9988910579242
s 15.637975116868619 -18.357622963280555 33.99559808014917 -18.357622963280555
S 462.22249633270627 928.0871666672438 462.22249633270627 991.9988910579242
z" fill="none" stroke="none"></path>
<use xlink:href="#path-bapa2x7ludk-2" x="0" y="0" stroke="#003f85">
  <animateMotion begin="-3.684934898762948s" dur="17.92047816207593s" keyPoints="1;0" keyTimes="0;1" repeatCount="indefinite" calcMode="linear">
    <mpath xlink:href="#path14"></mpath>
  </animateMotion>
</use><path id="path15" d="M 488.3018713963525 800.1311237450282
c 0 56.983591070305025 -13.942793559755483 16.367627222321655 -30.310420782077138 16.367627222321655
S 427.68102983219825 857.1147148153332 427.68102983219825 800.1311237450282
s 13.942793559755483 -16.367627222321655 30.310420782077138 -16.367627222321655
S 488.3018713963525 743.1475326747232 488.3018713963525 800.1311237450282
z" fill="none" stroke="none"></path>
<use xlink:href="#path-bapa2x7ludk-1" x="0" y="0" stroke="#003f85">
  <animateMotion begin="-4.475823053234763s" dur="18.540135725372405s" keyPoints="1;0" keyTimes="0;1" repeatCount="indefinite" calcMode="linear">
    <mpath xlink:href="#path15"></mpath>
  </animateMotion>
</use><path id="path16" d="M 495.11902182118905 724.258421816268
c 0 30.12018571429322 -7.369832674773872 8.65154270516933 -16.0213753799432 8.65154270516933
S 463.07627106130263 754.3786075305612 463.07627106130263 724.258421816268
s 7.369832674773872 -8.65154270516933 16.0213753799432 -8.65154270516933
S 495.11902182118905 694.1382361019747 495.11902182118905 724.258421816268
z" fill="none" stroke="none"></path>
<use xlink:href="#path-bapa2x7ludk-2" x="0" y="0" stroke="#003f85">
  <animateMotion begin="-1.6371303541069986s" dur="22.020361006627972s" keyPoints="0;1" keyTimes="0;1" repeatCount="indefinite" calcMode="linear">
    <mpath xlink:href="#path16"></mpath>
  </animateMotion>
</use><path id="path17" d="M 514.9775125905818 250.80928513189434
c 0 44.142755027318266 -10.800886868386383 12.679301975931843 -23.480188844318228 12.679301975931843
S 468.0171349019453 294.95204015921263 468.0171349019453 250.80928513189434
s 10.800886868386383 -12.679301975931843 23.480188844318228 -12.679301975931843
S 514.9775125905818 206.66653010457608 514.9775125905818 250.80928513189434
z" fill="none" stroke="none"></path>
<use xlink:href="#path-bapa2x7ludk-2" x="0" y="0" stroke="#003f85">
  <animateMotion begin="-2.386652259886742s" dur="18.532717643613427s" keyPoints="0;1" keyTimes="0;1" repeatCount="indefinite" calcMode="linear">
    <mpath xlink:href="#path17"></mpath>
  </animateMotion>
</use><path id="path18" d="M 553.8316817187803 653.3764755930332
c 0 58.65948402306204 -14.352852473727944 16.84900073002846 -31.201853203756404 16.84900073002846
S 491.42797531126746 712.0359596160953 491.42797531126746 653.3764755930332
s 14.352852473727944 -16.84900073002846 31.201853203756404 -16.84900073002846
S 553.8316817187803 594.7169915699711 553.8316817187803 653.3764755930332
z" fill="none" stroke="none"></path>
<use xlink:href="#path-bapa2x7ludk-1" x="0" y="0" stroke="#003f85">
  <animateMotion begin="-0.7131050600929122s" dur="23.20697287265941s" keyPoints="0;1" keyTimes="0;1" repeatCount="indefinite" calcMode="linear">
    <mpath xlink:href="#path18"></mpath>
  </animateMotion>
</use><path id="path19" d="M 583.3863594506452 844.3040559524852
c 0 43.235914940964804 -10.579000464278622 12.418826631979254 -22.997827096257875 12.418826631979254
S 537.3907052581294 887.53997089345 537.3907052581294 844.3040559524852
s 10.579000464278622 -12.418826631979254 22.997827096257875 -12.418826631979254
S 583.3863594506452 801.0681410115204 583.3863594506452 844.3040559524852
z" fill="none" stroke="none"></path>
<use xlink:href="#path-bapa2x7ludk-2" x="0" y="0" stroke="#003f85">
  <animateMotion begin="-4.316927151155967s" dur="22.247814281752845s" keyPoints="1;0" keyTimes="0;1" repeatCount="indefinite" calcMode="linear">
    <mpath xlink:href="#path19"></mpath>
  </animateMotion>
</use><path id="path20" d="M 612.9327466746238 663.6692970538812
c 0 62.93533294722991 -15.3990708275137 18.07717010186391 -33.47624092937761 18.07717010186391
S 545.9802648158686 726.6046300011111 545.9802648158686 663.6692970538812
s 15.3990708275137 -18.07717010186391 33.47624092937761 -18.07717010186391
S 612.9327466746238 600.7339641066513 612.9327466746238 663.6692970538812
z" fill="none" stroke="none"></path>
<use xlink:href="#path-bapa2x7ludk-1" x="0" y="0" stroke="#003f85">
  <animateMotion begin="-5.7757858092555585s" dur="12.150381158317415s" keyPoints="0;1" keyTimes="0;1" repeatCount="indefinite" calcMode="linear">
    <mpath xlink:href="#path20"></mpath>
  </animateMotion>
</use><path id="path21" d="M 651.4625684512636 1210.6823305753082
c 0 57.981027877406746 -14.186847246599521 16.654125028616832 -30.84097227521635 16.654125028616832
S 589.7806239008308 1268.6633584527149 589.7806239008308 1210.6823305753082
s 14.186847246599521 -16.654125028616832 30.84097227521635 -16.654125028616832
S 651.4625684512636 1152.7013026979016 651.4625684512636 1210.6823305753082
z" fill="none" stroke="none"></path>
<use xlink:href="#path-bapa2x7ludk-3" x="0" y="0" stroke="#2e91ff">
  <animateMotion begin="-1.899841265433147s" dur="16.016044825578163s" keyPoints="1;0" keyTimes="0;1" repeatCount="indefinite" calcMode="linear">
    <mpath xlink:href="#path21"></mpath>
  </animateMotion>
</use><path id="path22" d="M 663.8099659995665 817.727627812706
c 0 44.109807240010056 -10.79282517574714 12.669838249790123 -23.46266342553726 12.669838249790123
S 616.884639148492 861.837435052716 616.884639148492 817.727627812706
s 10.79282517574714 -12.669838249790123 23.46266342553726 -12.669838249790123
S 663.8099659995665 773.617820572696 663.8099659995665 817.727627812706
z" fill="none" stroke="none"></path>
<use xlink:href="#path-bapa2x7ludk-1" x="0" y="0" stroke="#003f85">
  <animateMotion begin="-2.864611809612053s" dur="14.848802398650056s" keyPoints="0;1" keyTimes="0;1" repeatCount="indefinite" calcMode="linear">
    <mpath xlink:href="#path22"></mpath>
  </animateMotion>
</use><path id="path23" d="M 686.5370699513494 903.9481241094397
c 0 63.823953969818795 -15.616499375593959 18.332412310479867 -33.94891168607383 18.332412310479867
S 618.6392465792017 967.7720780792586 618.6392465792017 903.9481241094397
s 15.616499375593959 -18.332412310479867 33.94891168607383 -18.332412310479867
S 686.5370699513494 840.1241701396209 686.5370699513494 903.9481241094397
z" fill="none" stroke="none"></path>
<use xlink:href="#path-bapa2x7ludk-1" x="0" y="0" stroke="#003f85">
  <animateMotion begin="-0.006470455180369111s" dur="20.737149951897727s" keyPoints="0;1" keyTimes="0;1" repeatCount="indefinite" calcMode="linear">
    <mpath xlink:href="#path23"></mpath>
  </animateMotion>
</use><path id="path24" d="M 722.6968217374745 866.2035623733886
c 0 57.05564319352431 -13.960423334585734 16.38832304494847 -30.348746379534205 16.38832304494847
S 661.9993289784061 923.259205566913 661.9993289784061 866.2035623733886
s 13.960423334585734 -16.38832304494847 30.348746379534205 -16.38832304494847
S 722.6968217374745 809.1479191798643 722.6968217374745 866.2035623733886
z" fill="none" stroke="none"></path>
<use xlink:href="#path-bapa2x7ludk-3" x="0" y="0" stroke="#003f85">
  <animateMotion begin="-3.859564743681257s" dur="18.918785811634077s" keyPoints="1;0" keyTimes="0;1" repeatCount="indefinite" calcMode="linear">
    <mpath xlink:href="#path24"></mpath>
  </animateMotion>
</use><path id="path25" d="M 724.1798284309075 1159.3575971578234
c 0 31.024603341173993 -7.5911263494361885 8.911322236294659 -16.502448585730846 8.911322236294659
S 691.1749312594459 1190.3822004989975 691.1749312594459 1159.3575971578234
s 7.5911263494361885 -8.911322236294659 16.502448585730846 -8.911322236294659
S 724.1798284309075 1128.3329938166494 724.1798284309075 1159.3575971578234
z" fill="none" stroke="none"></path>
<use xlink:href="#path-bapa2x7ludk-3" x="0" y="0" stroke="#003f85">
  <animateMotion begin="-4.2681178401713975s" dur="19.127729128018597s" keyPoints="0;1" keyTimes="0;1" repeatCount="indefinite" calcMode="linear">
    <mpath xlink:href="#path25"></mpath>
  </animateMotion>
</use><path id="path26" d="M 769.0403148969931 471.09877856326864
c 0 50.306911237656756 -12.309137856022396 14.449857483156727 -26.758995339179123 14.449857483156727
S 715.5223242186348 521.4056898009254 715.5223242186348 471.09877856326864
s 12.309137856022396 -14.449857483156727 26.758995339179123 -14.449857483156727
S 769.0403148969931 420.79186732561186 769.0403148969931 471.09877856326864
z" fill="none" stroke="none"></path>
<use xlink:href="#path-bapa2x7ludk-2" x="0" y="0" stroke="#003f85">
  <animateMotion begin="-1.1352830385104173s" dur="14.141808683726588s" keyPoints="0;1" keyTimes="0;1" repeatCount="indefinite" calcMode="linear">
    <mpath xlink:href="#path26"></mpath>
  </animateMotion>
</use><path id="path27" d="M 807.1569478666609 54.41865891611694
c 0 57.58549455607862 -14.090067816912853 16.540514393767264 -30.630582210680117 16.540514393767264
S 745.8957834453006 112.00415347219555 745.8957834453006 54.41865891611694
s 14.090067816912853 -16.540514393767264 30.630582210680117 -16.540514393767264
S 807.1569478666609 -3.1668356399616826 807.1569478666609 54.41865891611694
z" fill="none" stroke="none"></path>
<use xlink:href="#path-bapa2x7ludk-3" x="0" y="0" stroke="#003f85">
  <animateMotion begin="-3.1645850629794112s" dur="21.496288569416798s" keyPoints="0;1" keyTimes="0;1" repeatCount="indefinite" calcMode="linear">
    <mpath xlink:href="#path27"></mpath>
  </animateMotion>
</use><path id="path28" d="M 815.2626440162437 1080.8392745984222
c 0 34.88247743172699 -8.535074265209794 10.019435006985411 -18.554509272195205 10.019435006985411
S 778.1536254718533 1115.7217520301492 778.1536254718533 1080.8392745984222
s 8.535074265209794 -10.019435006985411 18.554509272195205 -10.019435006985411
S 815.2626440162437 1045.9567971666952 815.2626440162437 1080.8392745984222
z" fill="none" stroke="none"></path>
<use xlink:href="#path-bapa2x7ludk-1" x="0" y="0" stroke="#003f85">
  <animateMotion begin="-5.478918622233248s" dur="21.882845664974006s" keyPoints="0;1" keyTimes="0;1" repeatCount="indefinite" calcMode="linear">
    <mpath xlink:href="#path28"></mpath>
  </animateMotion>
</use><path id="path29" d="M 867.4837503521961 1122.4205710859467
c 0 61.50807856531481 -15.049849010662133 17.66721405599468 -32.71706306665681 17.66721405599468
S 802.0496242188825 1183.9286496512616 802.0496242188825 1122.4205710859467
s 15.049849010662133 -17.66721405599468 32.71706306665681 -17.66721405599468
S 867.4837503521961 1060.9124925206318 867.4837503521961 1122.4205710859467
z" fill="none" stroke="none"></path>
<use xlink:href="#path-bapa2x7ludk-1" x="0" y="0" stroke="#003f85">
  <animateMotion begin="-2.606766140422736s" dur="24.2079151523995s" keyPoints="0;1" keyTimes="0;1" repeatCount="indefinite" calcMode="linear">
    <mpath xlink:href="#path29"></mpath>
  </animateMotion>
</use><path id="path30" d="M 888.9308563756996 557.8980370670047
c 0 58.230414682881786 -14.247867422407245 16.725757408912855 -30.973624831320098 16.725757408912855
S 826.9836067130594 616.1284517498865 826.9836067130594 557.8980370670047
s 14.247867422407245 -16.725757408912855 30.973624831320098 -16.725757408912855
S 888.9308563756996 499.66762238412286 888.9308563756996 557.8980370670047
z" fill="none" stroke="none"></path>
<use xlink:href="#path-bapa2x7ludk-3" x="0" y="0" stroke="#003f85">
  <animateMotion begin="-1.6879890270065703s" dur="16.5906840514411s" keyPoints="0;1" keyTimes="0;1" repeatCount="indefinite" calcMode="linear">
    <mpath xlink:href="#path30"></mpath>
  </animateMotion>
</use><path id="path31" d="M 910.2758836340215 232.0370984657114
c 0 35.60677034686467 -8.712294872105184 10.227476588993044 -18.93977146109823 10.227476588993044
S 872.3963407118251 267.6438688125761 872.3963407118251 232.0370984657114
s 8.712294872105184 -10.227476588993044 18.93977146109823 -10.227476588993044
S 910.2758836340215 196.43032811884675 910.2758836340215 232.0370984657114
z" fill="none" stroke="none"></path>
<use xlink:href="#path-bapa2x7ludk-2" x="0" y="0" stroke="#003f85">
  <animateMotion begin="-0.5383039288016944s" dur="23.181273716866666s" keyPoints="1;0" keyTimes="0;1" repeatCount="indefinite" calcMode="linear">
    <mpath xlink:href="#path31"></mpath>
  </animateMotion>
</use><path id="path32" d="M 918.1669584399908 342.28018705058054
c 0 26.873149973816016 -6.575345206359238 7.718883503117366 -14.294228709476604 7.718883503117366
S 889.5785010210377 369.15333702439654 889.5785010210377 342.28018705058054
s 6.575345206359238 -7.718883503117366 14.294228709476604 -7.718883503117366
S 918.1669584399908 315.40703707676454 918.1669584399908 342.28018705058054
z" fill="none" stroke="none"></path>
<use xlink:href="#path-bapa2x7ludk-2" x="0" y="0" stroke="#003f85">
  <animateMotion begin="-0.3084368976730789s" dur="19.347654253301894s" keyPoints="1;0" keyTimes="0;1" repeatCount="indefinite" calcMode="linear">
    <mpath xlink:href="#path32"></mpath>
  </animateMotion>
</use><path id="path33" d="M 957.6262849063181 788.526813526157
c 0 53.311870532180855 -13.044393853618718 15.312984089030673 -28.357377942649393 15.312984089030673
S 900.9115290210194 841.8386840583378 900.9115290210194 788.526813526157
s 13.044393853618718 -15.312984089030673 28.357377942649393 -15.312984089030673
S 957.6262849063181 735.2149429939761 957.6262849063181 788.526813526157
z" fill="none" stroke="none"></path>
<use xlink:href="#path-bapa2x7ludk-1" x="0" y="0" stroke="#003f85">
  <animateMotion begin="-2.675522078965227s" dur="23.583690778697243s" keyPoints="1;0" keyTimes="0;1" repeatCount="indefinite" calcMode="linear">
    <mpath xlink:href="#path33"></mpath>
  </animateMotion>
</use><path id="path34" d="M 983.8035044136008 167.47945771618225
c 0 50.10692832698324 -12.260205867240577 14.39241558328242 -26.652621450522997 14.39241558328242
S 930.4982615125547 217.58638604316548 930.4982615125547 167.47945771618225
s 12.260205867240577 -14.39241558328242 26.652621450522997 -14.39241558328242
S 983.8035044136008 117.37252938919902 983.8035044136008 167.47945771618225
z" fill="none" stroke="none"></path>
<use xlink:href="#path-bapa2x7ludk-1" x="0" y="0" stroke="#003f85">
  <animateMotion begin="-5.411670011429566s" dur="23.536794911245536s" keyPoints="1;0" keyTimes="0;1" repeatCount="indefinite" calcMode="linear">
    <mpath xlink:href="#path34"></mpath>
  </animateMotion>
</use><path id="path35" d="M 1007.7547915078928 1006.2181217883075
c 0 29.867502737044493 -7.308005988851312 8.578963552129801 -15.886969540981113 8.578963552129801
S 975.9808524259306 1036.085624525352 975.9808524259306 1006.2181217883075
s 7.308005988851312 -8.578963552129801 15.886969540981113 -8.578963552129801
S 1007.7547915078928 976.350619051263 1007.7547915078928 1006.2181217883075
z" fill="none" stroke="none"></path>
<use xlink:href="#path-bapa2x7ludk-3" x="0" y="0" stroke="#003f85">
  <animateMotion begin="-4.18446957612247s" dur="19.843537658868332s" keyPoints="1;0" keyTimes="0;1" repeatCount="indefinite" calcMode="linear">
    <mpath xlink:href="#path35"></mpath>
  </animateMotion>
</use><path id="path36" d="M 1034.323049556767 714.1114759789734
c 0 31.67969624918518 -7.751415039694246 9.099487220510637 -16.850902260204883 9.099487220510637
S 1000.6212450363573 745.7911722281586 1000.6212450363573 714.1114759789734
s 7.751415039694246 -9.099487220510637 16.850902260204883 -9.099487220510637
S 1034.323049556767 682.4317797297882 1034.323049556767 714.1114759789734
z" fill="none" stroke="none"></path>
<use xlink:href="#path-bapa2x7ludk-1" x="0" y="0" stroke="#003f85">
  <animateMotion begin="-0.46740033503990075s" dur="14.386845788432298s" keyPoints="0;1" keyTimes="0;1" repeatCount="indefinite" calcMode="linear">
    <mpath xlink:href="#path36"></mpath>
  </animateMotion>
</use><path id="path37" d="M 1065.555353496649 1238.6357341816322
c 0 61.60005988723823 -15.07235507879233 17.693634222930132 -32.76598930172246 17.693634222930132
S 1000.0233748932043 1300.2357940688705 1000.0233748932043 1238.6357341816322
s 15.07235507879233 -17.693634222930132 32.76598930172246 -17.693634222930132
S 1065.555353496649 1177.0356742943939 1065.555353496649 1238.6357341816322
z" fill="none" stroke="none"></path>
<use xlink:href="#path-bapa2x7ludk-3" x="0" y="0" stroke="#2e91ff">
  <animateMotion begin="-5.932561681504047s" dur="13.57567462687125s" keyPoints="0;1" keyTimes="0;1" repeatCount="indefinite" calcMode="linear">
    <mpath xlink:href="#path37"></mpath>
  </animateMotion>
</use><path id="path38" d="M 1103.2718467407462 1044.3955992529409
c 0 43.53347272453349 -10.651807156002874 12.504295357046853 -23.156102513049728 12.504295357046853
S 1056.9596417146468 1087.9290719774745 1056.9596417146468 1044.3955992529409
s 10.651807156002874 -12.504295357046853 23.156102513049728 -12.504295357046853
S 1103.2718467407462 1000.8621265284074 1103.2718467407462 1044.3955992529409
z" fill="none" stroke="none"></path>
<use xlink:href="#path-bapa2x7ludk-2" x="0" y="0" stroke="#003f85">
  <animateMotion begin="-5.528771377312966s" dur="23.549887862499272s" keyPoints="1;0" keyTimes="0;1" repeatCount="indefinite" calcMode="linear">
    <mpath xlink:href="#path38"></mpath>
  </animateMotion>
</use><path id="path39" d="M 1138.9676009187906 786.897526258931
c 0 64.34633691700687 -15.744316479693168 18.482458476161547 -34.226774955854715 18.482458476161547
S 1070.514051007081 851.2438631759378 1070.514051007081 786.897526258931
s 15.744316479693168 -18.482458476161547 34.226774955854715 -18.482458476161547
S 1138.9676009187906 722.5511893419241 1138.9676009187906 786.897526258931
z" fill="none" stroke="none"></path>
<use xlink:href="#path-bapa2x7ludk-3" x="0" y="0" stroke="#003f85">
  <animateMotion begin="-4.31155846669776s" dur="21.730212674183445s" keyPoints="0;1" keyTimes="0;1" repeatCount="indefinite" calcMode="linear">
    <mpath xlink:href="#path39"></mpath>
  </animateMotion>
</use><path id="path40" d="M 1150.5870610073355 823.2247909859885
c 0 51.72668233789917 -12.65652865714554 14.85766407577955 -27.51419273292509 14.85766407577955
S 1095.5586755414854 874.9514733238877 1095.5586755414854 823.2247909859885
s 12.65652865714554 -14.85766407577955 27.51419273292509 -14.85766407577955
S 1150.5870610073355 771.4981086480893 1150.5870610073355 823.2247909859885
z" fill="none" stroke="none"></path>
<use xlink:href="#path-bapa2x7ludk-2" x="0" y="0" stroke="#2e91ff">
  <animateMotion begin="-4.619942191237473s" dur="19.915730417432712s" keyPoints="0;1" keyTimes="0;1" repeatCount="indefinite" calcMode="linear">
    <mpath xlink:href="#path40"></mpath>
  </animateMotion>
</use><path id="path41" d="M 1186.600639755035 713.3877365915778
c 0 50.512030479202984 -12.359326606613495 14.508774712111496 -26.86810131872499 14.508774712111496
S 1132.864437117585 763.8997670707807 1132.864437117585 713.3877365915778
s 12.359326606613495 -14.508774712111496 26.86810131872499 -14.508774712111496
S 1186.600639755035 662.8757061123748 1186.600639755035 713.3877365915778
z" fill="none" stroke="none"></path>
<use xlink:href="#path-bapa2x7ludk-2" x="0" y="0" stroke="#2e91ff">
  <animateMotion begin="-3.8012821509060877s" dur="12.53591659097771s" keyPoints="1;0" keyTimes="0;1" repeatCount="indefinite" calcMode="linear">
    <mpath xlink:href="#path41"></mpath>
  </animateMotion>
</use><path id="path42" d="M 1195.7186301706963 643.1428427067885
c 0 26.04342924464788 -6.372328432201076 7.480559463888221 -13.852887896089296 7.480559463888221
S 1168.0128543785179 669.1862719514364 1168.0128543785179 643.1428427067885
s 6.372328432201076 -7.480559463888221 13.852887896089296 -7.480559463888221
S 1195.7186301706963 617.0994134621407 1195.7186301706963 643.1428427067885
z" fill="none" stroke="none"></path>
<use xlink:href="#path-bapa2x7ludk-3" x="0" y="0" stroke="#003f85">
  <animateMotion begin="-3.530523649116743s" dur="14.94733166964447s" keyPoints="0;1" keyTimes="0;1" repeatCount="indefinite" calcMode="linear">
    <mpath xlink:href="#path42"></mpath>
  </animateMotion>
</use></g>
</svg>