<svg xmlns="http://www.w3.org/2000/svg" xmlns:xlink="http://www.w3.org/1999/xlink" style="margin:auto;background:#16abfc;display:block;z-index:1;position:relative" width="1219" height="1321" preserveAspectRatio="xMidYMid" viewBox="0 0 1219 1321">
<g transform="translate(609.5,660.5) scale(1,1) translate(-609.5,-660.5)"><defs>
  <path id="path-j2jp5nw5sc-1" d="M-35 -35L35 -35L35 35L-35 35Z" fill="none" stroke="inherit" stroke-width="4.333333333333334" transform="scale(0.3)"></path>
  <path id="path-j2jp5nw5sc-2" d="M0 -37A37 37 0 0 1 0 37A37 37 0 0 1 0 -37" fill="none" stroke="inherit" stroke-width="4.333333333333334" transform="scale(0.3)"></path>
  <path id="path-j2jp5nw5sc-3" d="M0 -34.641L40 34.641L-40 34.641Z" fill="none" stroke="inherit" stroke-width="4.333333333333334" transform="scale(0.3)"></path>
</defs><path id="path0" d="M 62.338946601905576 683.2251683408296
c 0 20.733147420505816 -5.07300415608121 5.955265748443161 -11.02826990452437 5.955265748443161
S 40.28240679285683 703.9583157613354 40.28240679285683 683.2251683408296
s 5.07300415608121 -5.955265748443161 11.02826990452437 -5.955265748443161
S 62.338946601905576 662.4920209203237 62.338946601905576 683.2251683408296
z" fill="none" stroke="none"></path>
<use xlink:href="#path-j2jp5nw5sc-1" x="0" y="0" stroke="#ffffff">
  <animateMotion begin="-3.5896682463297735s" dur="19.233455068168045s" keyPoints="1;0" keyTimes="0;1" repeatCount="indefinite" calcMode="linear">
    <mpath xlink:href="#path0"></mpath>
  </animateMotion>
</use><path id="path1" d="M 96.45615466628783 224.7631391208777
c 0 45.01213521543098 -11.013607552711834 12.929017561879112 -23.942625114590946 12.929017561879112
S 48.57090443710593 269.77527433630866 48.57090443710593 224.7631391208777
s 11.013607552711834 -12.929017561879112 23.942625114590946 -12.929017561879112
S 96.45615466628783 179.7510039054467 96.45615466628783 224.7631391208777
z" fill="none" stroke="none"></path>
<use xlink:href="#path-j2jp5nw5sc-1" x="0" y="0" stroke="#ffffff">
  <animateMotion begin="-3.263464926337459s" dur="14.694065972154753s" keyPoints="1;0" keyTimes="0;1" repeatCount="indefinite" calcMode="linear">
    <mpath xlink:href="#path1"></mpath>
  </animateMotion>
</use><path id="path2" d="M 98.67696766818528 1127.8689105799358
c 0 38.97867252998782 -9.537334767975741 11.196001684145436 -20.73333645212118 11.196001684145436
S 57.210294763942926 1166.8475831099236 57.210294763942926 1127.8689105799358
s 9.537334767975741 -11.196001684145436 20.73333645212118 -11.196001684145436
S 98.67696766818528 1088.890238049948 98.67696766818528 1127.8689105799358
z" fill="none" stroke="none"></path>
<use xlink:href="#path-j2jp5nw5sc-3" x="0" y="0" stroke="#ffffff">
  <animateMotion begin="-4.612874084803801s" dur="15.37153180980939s" keyPoints="0;1" keyTimes="0;1" repeatCount="indefinite" calcMode="linear">
    <mpath xlink:href="#path2"></mpath>
  </animateMotion>
</use><path id="path3" d="M 133.0842831971927 1096.2021839801898
c 0 20.030393630823617 -4.901053760733437 5.753410936513166 -10.654464697246604 5.753410936513166
S 111.77535380269948 1116.2325776110135 111.77535380269948 1096.2021839801898
s 4.901053760733437 -5.753410936513166 10.654464697246604 -5.753410936513166
S 133.0842831971927 1076.1717903493661 133.0842831971927 1096.2021839801898
z" fill="none" stroke="none"></path>
<use xlink:href="#path-j2jp5nw5sc-2" x="0" y="0" stroke="#ffffff">
  <animateMotion begin="-2.513390220087388s" dur="17.883338201742053s" keyPoints="0;1" keyTimes="0;1" repeatCount="indefinite" calcMode="linear">
    <mpath xlink:href="#path3"></mpath>
  </animateMotion>
</use><path id="path4" d="M 152.37226728141593 788.1584165577857
c 0 22.486968718768672 -5.502130643954036 6.4590229298590875 -11.961153573813124 6.4590229298590875
S 128.44996013378966 810.6453852765544 128.44996013378966 788.1584165577857
s 5.502130643954036 -6.4590229298590875 11.961153573813124 -6.4590229298590875
S 152.37226728141593 765.671447839017 152.37226728141593 788.1584165577857
z" fill="none" stroke="none"></path>
<use xlink:href="#path-j2jp5nw5sc-1" x="0" y="0" stroke="#ffffff">
  <animateMotion begin="-2.2433262858448098s" dur="10.049072158465664s" keyPoints="0;1" keyTimes="0;1" repeatCount="indefinite" calcMode="linear">
    <mpath xlink:href="#path4"></mpath>
  </animateMotion>
</use><path id="path5" d="M 194.42376634301897 594.9763684819883
c 0 50.437161861578865 -12.341007689535253 14.487269896410952 -26.828277585946203 14.487269896410952
S 140.76721117112655 645.4135303435671 140.76721117112655 594.9763684819883
s 12.341007689535253 -14.487269896410952 26.828277585946203 -14.487269896410952
S 194.42376634301897 544.5392066204095 194.42376634301897 594.9763684819883
z" fill="none" stroke="none"></path>
<use xlink:href="#path-j2jp5nw5sc-1" x="0" y="0" stroke="#ffffff">
  <animateMotion begin="-1.80575017579091s" dur="10.409819733282767s" keyPoints="1;0" keyTimes="0;1" repeatCount="indefinite" calcMode="linear">
    <mpath xlink:href="#path5"></mpath>
  </animateMotion>
</use><path id="path6" d="M 218.53462706417568 1031.8169459496298
c 0 60.00611923782087 -14.682348324147657 17.235800206608122 -31.91814853075578 17.235800206608122
S 154.6983300026641 1091.8230651874508 154.6983300026641 1031.8169459496298
s 14.682348324147657 -17.235800206608122 31.91814853075578 -17.235800206608122
S 218.53462706417568 971.810826711809 218.53462706417568 1031.8169459496298
z" fill="none" stroke="none"></path>
<use xlink:href="#path-j2jp5nw5sc-2" x="0" y="0" stroke="#ffffff">
  <animateMotion begin="-2.681273706813011s" dur="15.374274537194934s" keyPoints="1;0" keyTimes="0;1" repeatCount="indefinite" calcMode="linear">
    <mpath xlink:href="#path6"></mpath>
  </animateMotion>
</use><path id="path7" d="M 258.20843434879765 153.43418582807342
c 0 36.75901476564484 -8.994227017125864 10.558440411408625 -19.55266742853449 10.558440411408625
S 219.10309949172864 190.19320059371827 219.10309949172864 153.43418582807342
s 8.994227017125864 -10.558440411408625 19.55266742853449 -10.558440411408625
S 258.20843434879765 116.67517106242857 258.20843434879765 153.43418582807342
z" fill="none" stroke="none"></path>
<use xlink:href="#path-j2jp5nw5sc-2" x="0" y="0" stroke="#ffffff">
  <animateMotion begin="-1.1191486438555465s" dur="19.606160951084192s" keyPoints="1;0" keyTimes="0;1" repeatCount="indefinite" calcMode="linear">
    <mpath xlink:href="#path7"></mpath>
  </animateMotion>
</use><path id="path8" d="M 277.98308582254907 845.809153443713
c 0 44.196645230104764 -10.814072769068186 12.69478107673222 -23.508853845800406 12.69478107673222
S 230.96537813094827 890.0057986738177 230.96537813094827 845.809153443713
s 10.814072769068186 -12.69478107673222 23.508853845800406 -12.69478107673222
S 277.98308582254907 801.6125082136082 277.98308582254907 845.809153443713
z" fill="none" stroke="none"></path>
<use xlink:href="#path-j2jp5nw5sc-1" x="0" y="0" stroke="#ffffff">
  <animateMotion begin="-0.06805288649067154s" dur="17.314105534897905s" keyPoints="1;0" keyTimes="0;1" repeatCount="indefinite" calcMode="linear">
    <mpath xlink:href="#path8"></mpath>
  </animateMotion>
</use><path id="path9" d="M 322.6377901282574 1140.642371021327
c 0 49.30035970860651 -12.062853971254782 14.160741618429528 -26.223595589684308 14.160741618429528
S 270.1905989488888 1189.9427307299336 270.1905989488888 1140.642371021327
s 12.062853971254782 -14.160741618429528 26.223595589684308 -14.160741618429528
S 322.6377901282574 1091.3420113127206 322.6377901282574 1140.642371021327
z" fill="none" stroke="none"></path>
<use xlink:href="#path-j2jp5nw5sc-2" x="0" y="0" stroke="#ffffff">
  <animateMotion begin="-3.4128582959653695s" dur="17.530053524726313s" keyPoints="0;1" keyTimes="0;1" repeatCount="indefinite" calcMode="linear">
    <mpath xlink:href="#path9"></mpath>
  </animateMotion>
</use><path id="path10" d="M 352.2217298710128 912.4115772605593
c 0 61.62546194908693 -15.078570476904249 17.70093055984412 -32.77950103674837 17.70093055984412
S 286.662727797516 974.0370392096462 286.662727797516 912.4115772605593
s 15.078570476904249 -17.70093055984412 32.77950103674837 -17.70093055984412
S 352.2217298710128 850.7861153114724 352.2217298710128 912.4115772605593
z" fill="none" stroke="none"></path>
<use xlink:href="#path-j2jp5nw5sc-1" x="0" y="0" stroke="#ffffff">
  <animateMotion begin="-0.30417030965635194s" dur="16.78166849274108s" keyPoints="0;1" keyTimes="0;1" repeatCount="indefinite" calcMode="linear">
    <mpath xlink:href="#path10"></mpath>
  </animateMotion>
</use><path id="path11" d="M 369.25647764835804 177.27190898990818
c 0 53.60071960415329 -13.115069690377931 15.39595137566105 -28.511021066038982 15.39595137566105
S 312.23443551628003 230.87262859406147 312.23443551628003 177.27190898990818
s 13.115069690377931 -15.39595137566105 28.511021066038982 -15.39595137566105
S 369.25647764835804 123.6711893857549 369.25647764835804 177.27190898990818
z" fill="none" stroke="none"></path>
<use xlink:href="#path-j2jp5nw5sc-2" x="0" y="0" stroke="#ffffff">
  <animateMotion begin="-0.6393783621276061s" dur="10.491524799341114s" keyPoints="1;0" keyTimes="0;1" repeatCount="indefinite" calcMode="linear">
    <mpath xlink:href="#path11"></mpath>
  </animateMotion>
</use><path id="path12" d="M 376.9788437902746 998.5035416271348
c 0 36.292974490386065 -8.880195885945525 10.424577779153443 -19.30477366509897 10.424577779153443
S 338.3692964600766 1034.796516117521 338.3692964600766 998.5035416271348
s 8.880195885945525 -10.424577779153443 19.30477366509897 -10.424577779153443
S 376.9788437902746 962.2105671367488 376.9788437902746 998.5035416271348
z" fill="none" stroke="none"></path>
<use xlink:href="#path-j2jp5nw5sc-2" x="0" y="0" stroke="#ffffff">
  <animateMotion begin="-2.9328268546865086s" dur="15.253254766516282s" keyPoints="0;1" keyTimes="0;1" repeatCount="indefinite" calcMode="linear">
    <mpath xlink:href="#path12"></mpath>
  </animateMotion>
</use><path id="path13" d="M 420.81386828424485 1194.7679988771768
c 0 32.03169087470009 -7.837541384235127 9.20059205975428 -17.03813344398941 9.20059205975428
S 386.73760139626603 1226.799689751877 386.73760139626603 1194.7679988771768
s 7.837541384235127 -9.20059205975428 17.03813344398941 -9.20059205975428
S 420.81386828424485 1162.7363080024766 420.81386828424485 1194.7679988771768
z" fill="none" stroke="none"></path>
<use xlink:href="#path-j2jp5nw5sc-2" x="0" y="0" stroke="#ffffff">
  <animateMotion begin="-2.769125708344211s" dur="10.198013249907383s" keyPoints="0;1" keyTimes="0;1" repeatCount="indefinite" calcMode="linear">
    <mpath xlink:href="#path13"></mpath>
  </animateMotion>
</use><path id="path14" d="M 420.79239847483257 374.82940100453334
c 0 27.6228829624456 -6.758790512087753 7.934232340276928 -14.693022852364681 7.934232340276928
S 391.40635277010324 402.45228396697894 391.40635277010324 374.82940100453334
s 6.758790512087753 -7.934232340276928 14.693022852364681 -7.934232340276928
S 420.79239847483257 347.20651804208774 420.79239847483257 374.82940100453334
z" fill="none" stroke="none"></path>
<use xlink:href="#path-j2jp5nw5sc-3" x="0" y="0" stroke="#ffffff">
  <animateMotion begin="-2.3953861651758213s" dur="10.361958609420839s" keyPoints="0;1" keyTimes="0;1" repeatCount="indefinite" calcMode="linear">
    <mpath xlink:href="#path14"></mpath>
  </animateMotion>
</use><path id="path15" d="M 468.23947118953896 221.53160386947613
c 0 24.991303753625175 -6.114893471631691 7.178353205828508 -13.2932466774602 7.178353205828508
S 441.6529778346185 246.5229076231013 441.6529778346185 221.53160386947613
s 6.114893471631691 -7.178353205828508 13.2932466774602 -7.178353205828508
S 468.23947118953896 196.54030011585095 468.23947118953896 221.53160386947613
z" fill="none" stroke="none"></path>
<use xlink:href="#path-j2jp5nw5sc-1" x="0" y="0" stroke="#ffffff">
  <animateMotion begin="-0.6092458737251083s" dur="11.048976427651189s" keyPoints="1;0" keyTimes="0;1" repeatCount="indefinite" calcMode="linear">
    <mpath xlink:href="#path15"></mpath>
  </animateMotion>
</use><path id="path16" d="M 502.1639939520174 678.7459013442161
c 0 63.02502851040561 -15.42101761424818 18.102933721073953 -33.52395133532213 18.102933721073953
S 435.11609128137314 741.7709298546217 435.11609128137314 678.7459013442161
s 15.42101761424818 -18.102933721073953 33.52395133532213 -18.102933721073953
S 502.1639939520174 615.7208728338105 502.1639939520174 678.7459013442161
z" fill="none" stroke="none"></path>
<use xlink:href="#path-j2jp5nw5sc-2" x="0" y="0" stroke="#ffffff">
  <animateMotion begin="-3.4212570369006112s" dur="14.771012694483506s" keyPoints="1;0" keyTimes="0;1" repeatCount="indefinite" calcMode="linear">
    <mpath xlink:href="#path16"></mpath>
  </animateMotion>
</use><path id="path17" d="M 521.1057536688276 979.129060145349
c 0 47.46461875698519 -11.613683312879353 13.633454323814895 -25.247137636694248 13.633454323814895
S 470.611478395439 1026.5936789023342 470.611478395439 979.129060145349
s 11.613683312879353 -13.633454323814895 25.247137636694248 -13.633454323814895
S 521.1057536688276 931.6644413883638 521.1057536688276 979.129060145349
z" fill="none" stroke="none"></path>
<use xlink:href="#path-j2jp5nw5sc-2" x="0" y="0" stroke="#ffffff">
  <animateMotion begin="-4.294934256412613s" dur="14.464394465132894s" keyPoints="1;0" keyTimes="0;1" repeatCount="indefinite" calcMode="linear">
    <mpath xlink:href="#path17"></mpath>
  </animateMotion>
</use><path id="path18" d="M 561.1795215571241 1066.6767741291308
c 0 57.278285411931996 -14.014899622068466 16.45227346938472 -30.467173091453187 16.45227346938472
S 500.2451753742177 1123.9550595410628 500.2451753742177 1066.6767741291308
s 14.014899622068466 -16.45227346938472 30.467173091453187 -16.45227346938472
S 561.1795215571241 1009.3984887171988 561.1795215571241 1066.6767741291308
z" fill="none" stroke="none"></path>
<use xlink:href="#path-j2jp5nw5sc-3" x="0" y="0" stroke="#ffffff">
  <animateMotion begin="-4.31057567188836s" dur="18.43567604063532s" keyPoints="0;1" keyTimes="0;1" repeatCount="indefinite" calcMode="linear">
    <mpath xlink:href="#path18"></mpath>
  </animateMotion>
</use><path id="path19" d="M 565.2290735164092 783.2151028556215
c 0 28.049679593669346 -6.863219475046754 8.056822862011408 -14.920042337058161 8.056822862011408
S 535.388988842293 811.2647824492908 535.388988842293 783.2151028556215
s 6.863219475046754 -8.056822862011408 14.920042337058161 -8.056822862011408
S 565.2290735164092 755.1654232619521 565.2290735164092 783.2151028556215
z" fill="none" stroke="none"></path>
<use xlink:href="#path-j2jp5nw5sc-1" x="0" y="0" stroke="#ffffff">
  <animateMotion begin="-0.16380439043310768s" dur="14.595949108029009s" keyPoints="0;1" keyTimes="0;1" repeatCount="indefinite" calcMode="linear">
    <mpath xlink:href="#path19"></mpath>
  </animateMotion>
</use><path id="path20" d="M 604.2205930133655 64.45172199932864
c 0 34.86920289965094 -8.531826241403953 10.015622109474208 -18.547448350878163 10.015622109474208
S 567.1256963116091 99.32092489897958 567.1256963116091 64.45172199932864
s 8.531826241403953 -10.015622109474208 18.547448350878163 -10.015622109474208
S 604.2205930133655 29.582519099677697 604.2205930133655 64.45172199932864
z" fill="none" stroke="none"></path>
<use xlink:href="#path-j2jp5nw5sc-2" x="0" y="0" stroke="#ffffff">
  <animateMotion begin="-1.6386720280975386s" dur="14.400823611299696s" keyPoints="1;0" keyTimes="0;1" repeatCount="indefinite" calcMode="linear">
    <mpath xlink:href="#path20"></mpath>
  </animateMotion>
</use><path id="path21" d="M 648.4037428342302 1227.8194503604504
c 0 58.6205930469806 -14.343336596601635 16.837829917749747 -31.181166514351382 16.837829917749747
S 586.0414098055275 1286.440043407431 586.0414098055275 1227.8194503604504
s 14.343336596601635 -16.837829917749747 31.181166514351382 -16.837829917749747
S 648.4037428342302 1169.19885731347 648.4037428342302 1227.8194503604504
z" fill="none" stroke="none"></path>
<use xlink:href="#path-j2jp5nw5sc-3" x="0" y="0" stroke="#ffffff">
  <animateMotion begin="-1.6286766853113388s" dur="15.615185528520456s" keyPoints="1;0" keyTimes="0;1" repeatCount="indefinite" calcMode="linear">
    <mpath xlink:href="#path21"></mpath>
  </animateMotion>
</use><path id="path22" d="M 642.6957997820692 772.653369146131
c 0 19.83437742231894 -4.853092348014209 5.697108408538419 -10.550200756552627 5.697108408538419
S 621.595398268964 792.48774656845 621.595398268964 772.653369146131
s 4.853092348014209 -5.697108408538419 10.550200756552627 -5.697108408538419
S 642.6957997820692 752.818991723812 642.6957997820692 772.653369146131
z" fill="none" stroke="none"></path>
<use xlink:href="#path-j2jp5nw5sc-1" x="0" y="0" stroke="#ffffff">
  <animateMotion begin="-1.594318100723986s" dur="19.2732755866833s" keyPoints="0;1" keyTimes="0;1" repeatCount="indefinite" calcMode="linear">
    <mpath xlink:href="#path22"></mpath>
  </animateMotion>
</use><path id="path23" d="M 693.2012297165666 264.56758265062507
c 0 65.13628577709235 -15.937601839075787 18.709358680654187 -34.64696051972997 18.709358680654187
S 623.9073086771066 329.70386842771745 623.9073086771066 264.56758265062507
s 15.937601839075787 -18.709358680654187 34.64696051972997 -18.709358680654187
S 693.2012297165666 199.43129687353272 693.2012297165666 264.56758265062507
z" fill="none" stroke="none"></path>
<use xlink:href="#path-j2jp5nw5sc-1" x="0" y="0" stroke="#ffffff">
  <animateMotion begin="-3.8143850410441704s" dur="11.809134086007656s" keyPoints="1;0" keyTimes="0;1" repeatCount="indefinite" calcMode="linear">
    <mpath xlink:href="#path23"></mpath>
  </animateMotion>
</use><path id="path24" d="M 725.7439104493922 1189.297358876594
c 0 37.711410348504124 -9.227259978889306 10.832000844783101 -20.059260823672407 10.832000844783101
S 685.6253888020474 1227.0087692250981 685.6253888020474 1189.297358876594
s 9.227259978889306 -10.832000844783101 20.059260823672407 -10.832000844783101
S 725.7439104493922 1151.5859485280898 725.7439104493922 1189.297358876594
z" fill="none" stroke="none"></path>
<use xlink:href="#path-j2jp5nw5sc-2" x="0" y="0" stroke="#ffffff">
  <animateMotion begin="-3.3268542910902035s" dur="18.996978093465408s" keyPoints="0;1" keyTimes="0;1" repeatCount="indefinite" calcMode="linear">
    <mpath xlink:href="#path24"></mpath>
  </animateMotion>
</use><path id="path25" d="M 727.7755949463126 1241.5279287430508
c 0 24.1323102331187 -5.904714205975852 6.931621024406436 -12.836335230382288 6.931621024406436
S 702.1029244855481 1265.6602389761695 702.1029244855481 1241.5279287430508
s 5.904714205975852 -6.931621024406436 12.836335230382288 -6.931621024406436
S 727.7755949463126 1217.395618509932 727.7755949463126 1241.5279287430508
z" fill="none" stroke="none"></path>
<use xlink:href="#path-j2jp5nw5sc-2" x="0" y="0" stroke="#ffffff">
  <animateMotion begin="-2.4464496001290814s" dur="16.380326035832123s" keyPoints="0;1" keyTimes="0;1" repeatCount="indefinite" calcMode="linear">
    <mpath xlink:href="#path25"></mpath>
  </animateMotion>
</use><path id="path26" d="M 760.3609329007901 299.40410696416075
c 0 39.471845206615136 -9.65800467821434 11.337657665729878 -20.99566234394422 11.337657665729878
S 718.3696082129017 338.87595217077586 718.3696082129017 299.40410696416075
s 9.65800467821434 -11.337657665729878 20.99566234394422 -11.337657665729878
S 760.3609329007901 259.93226175754563 760.3609329007901 299.40410696416075
z" fill="none" stroke="none"></path>
<use xlink:href="#path-j2jp5nw5sc-3" x="0" y="0" stroke="#ffffff">
  <animateMotion begin="-2.591492680199355s" dur="16.077705762395507s" keyPoints="0;1" keyTimes="0;1" repeatCount="indefinite" calcMode="linear">
    <mpath xlink:href="#path26"></mpath>
  </animateMotion>
</use><path id="path27" d="M 781.1498262044146 634.9861748595677
c 0 19.582166756893724 -4.791381227750591 5.624664919533304 -10.416046147283895 5.624664919533304
S 760.3177339098469 654.5683416164613 760.3177339098469 634.9861748595677
s 4.791381227750591 -5.624664919533304 10.416046147283895 -5.624664919533304
S 781.1498262044146 615.404008102674 781.1498262044146 634.9861748595677
z" fill="none" stroke="none"></path>
<use xlink:href="#path-j2jp5nw5sc-3" x="0" y="0" stroke="#ffffff">
  <animateMotion begin="-2.6287856778870564s" dur="17.899636839962533s" keyPoints="1;0" keyTimes="0;1" repeatCount="indefinite" calcMode="linear">
    <mpath xlink:href="#path27"></mpath>
  </animateMotion>
</use><path id="path28" d="M 817.2029988527928 944.1149044249693
c 0 33.341039724350516 -8.15791397510704 9.576681622951744 -17.734595598058785 9.576681622951744
S 781.7338076566751 977.4559441493197 781.7338076566751 944.1149044249693
s 8.15791397510704 -9.576681622951744 17.734595598058785 -9.576681622951744
S 817.2029988527928 910.7738647006188 817.2029988527928 944.1149044249693
z" fill="none" stroke="none"></path>
<use xlink:href="#path-j2jp5nw5sc-1" x="0" y="0" stroke="#ffffff">
  <animateMotion begin="-1.2265495647812763s" dur="19.25520281046007s" keyPoints="1;0" keyTimes="0;1" repeatCount="indefinite" calcMode="linear">
    <mpath xlink:href="#path28"></mpath>
  </animateMotion>
</use><path id="path29" d="M 856.7874446209515 1136.5239932205218
c 0 59.567900527654416 -14.575124597192037 17.109928874964567 -31.685053472156604 17.109928874964567
S 793.4173376766383 1196.0918937481763 793.4173376766383 1136.5239932205218
s 14.575124597192037 -17.109928874964567 31.685053472156604 -17.109928874964567
S 856.7874446209515 1076.9560926928673 856.7874446209515 1136.5239932205218
z" fill="none" stroke="none"></path>
<use xlink:href="#path-j2jp5nw5sc-1" x="0" y="0" stroke="#ffffff">
  <animateMotion begin="-3.58003982955624s" dur="18.093206387962415s" keyPoints="0;1" keyTimes="0;1" repeatCount="indefinite" calcMode="linear">
    <mpath xlink:href="#path29"></mpath>
  </animateMotion>
</use><path id="path30" d="M 874.2238279166395 1238.4696614013508
c 0 50.35865260967946 -12.32179797896412 14.464719366610058 -26.78651734557418 14.464719366610058
S 820.650793225491 1288.8283140110302 820.650793225491 1238.4696614013508
s 12.32179797896412 -14.464719366610058 26.78651734557418 -14.464719366610058
S 874.2238279166395 1188.1110087916713 874.2238279166395 1238.4696614013508
z" fill="none" stroke="none"></path>
<use xlink:href="#path-j2jp5nw5sc-3" x="0" y="0" stroke="#ffffff">
  <animateMotion begin="-3.416594516917255s" dur="14.06639241410619s" keyPoints="0;1" keyTimes="0;1" repeatCount="indefinite" calcMode="linear">
    <mpath xlink:href="#path30"></mpath>
  </animateMotion>
</use><path id="path31" d="M 900.3627456526043 419.81109862795074
c 0 25.75068075205989 -6.300698481886994 7.396472130910819 -13.697170612797812 7.396472130910819
S 872.9684044270087 445.56177938001065 872.9684044270087 419.81109862795074
s 6.300698481886994 -7.396472130910819 13.697170612797812 -7.396472130910819
S 900.3627456526043 394.06041787589083 900.3627456526043 419.81109862795074
z" fill="none" stroke="none"></path>
<use xlink:href="#path-j2jp5nw5sc-1" x="0" y="0" stroke="#ffffff">
  <animateMotion begin="-0.6820023578750922s" dur="14.36059904332362s" keyPoints="0;1" keyTimes="0;1" repeatCount="indefinite" calcMode="linear">
    <mpath xlink:href="#path31"></mpath>
  </animateMotion>
</use><path id="path32" d="M 929.6099154875607 920.8739125370865
c 0 61.873293412095386 -15.139210090193549 17.77211619283591 -32.91132628302946 17.77211619283591
S 863.7872629215018 982.7472059491819 863.7872629215018 920.8739125370865
s 15.139210090193549 -17.77211619283591 32.91132628302946 -17.77211619283591
S 929.6099154875607 859.0006191249912 929.6099154875607 920.8739125370865
z" fill="none" stroke="none"></path>
<use xlink:href="#path-j2jp5nw5sc-3" x="0" y="0" stroke="#ffffff">
  <animateMotion begin="-2.6551441377976968s" dur="12.241164575749426s" keyPoints="0;1" keyTimes="0;1" repeatCount="indefinite" calcMode="linear">
    <mpath xlink:href="#path32"></mpath>
  </animateMotion>
</use><path id="path33" d="M 954.3841945316627 1196.8445468641291
c 0 19.493226735285834 -4.769619307569937 5.599118317582101 -10.368737625152038 5.599118317582101
S 933.6467192813587 1216.337773599415 933.6467192813587 1196.8445468641291
s 4.769619307569937 -5.599118317582101 10.368737625152038 -5.599118317582101
S 954.3841945316627 1177.3513201288433 954.3841945316627 1196.8445468641291
z" fill="none" stroke="none"></path>
<use xlink:href="#path-j2jp5nw5sc-3" x="0" y="0" stroke="#ffffff">
  <animateMotion begin="-3.8629604108649396s" dur="11.848195428395552s" keyPoints="0;1" keyTimes="0;1" repeatCount="indefinite" calcMode="linear">
    <mpath xlink:href="#path33"></mpath>
  </animateMotion>
</use><path id="path34" d="M 972.0728901131905 625.6972091964049
c 0 26.795198371543123 -6.556271941973317 7.696493149273025 -14.252765091246342 7.696493149273025
S 943.5673599306978 652.492407567948 943.5673599306978 625.6972091964049
s 6.556271941973317 -7.696493149273025 14.252765091246342 -7.696493149273025
S 972.0728901131905 598.9020108248617 972.0728901131905 625.6972091964049
z" fill="none" stroke="none"></path>
<use xlink:href="#path-j2jp5nw5sc-3" x="0" y="0" stroke="#ffffff">
  <animateMotion begin="-3.974539867826312s" dur="12.85664664095738s" keyPoints="0;1" keyTimes="0;1" repeatCount="indefinite" calcMode="linear">
    <mpath xlink:href="#path34"></mpath>
  </animateMotion>
</use><path id="path35" d="M 1031.2635774089008 150.8086013557479
c 0 65.2584269655481 -15.967487449017087 18.744441787976584 -34.71192923699367 18.744441787976584
S 961.8397189349135 216.067028321296 961.8397189349135 150.8086013557479
s 15.967487449017087 -18.744441787976584 34.71192923699367 -18.744441787976584
S 1031.2635774089008 85.5501743901998 1031.2635774089008 150.8086013557479
z" fill="none" stroke="none"></path>
<use xlink:href="#path-j2jp5nw5sc-1" x="0" y="0" stroke="#ffffff">
  <animateMotion begin="-4.859531523524675s" dur="11.365577969740471s" keyPoints="1;0" keyTimes="0;1" repeatCount="indefinite" calcMode="linear">
    <mpath xlink:href="#path35"></mpath>
  </animateMotion>
</use><path id="path36" d="M 1035.4459775122425 962.6213177528311
c 0 53.47040867361423 -13.083185100990715 15.358521640293448 -28.441706741284165 15.358521640293448
S 978.5625640296741 1016.0917264264453 978.5625640296741 962.6213177528311
s 13.083185100990715 -15.358521640293448 28.441706741284165 -15.358521640293448
S 1035.4459775122425 909.150909079217 1035.4459775122425 962.6213177528311
z" fill="none" stroke="none"></path>
<use xlink:href="#path-j2jp5nw5sc-3" x="0" y="0" stroke="#ffffff">
  <animateMotion begin="-1.789944536749457s" dur="15.635216724140795s" keyPoints="1;0" keyTimes="0;1" repeatCount="indefinite" calcMode="linear">
    <mpath xlink:href="#path36"></mpath>
  </animateMotion>
</use><path id="path37" d="M 1057.8360223766292 1167.1486795156316
c 0 29.19488332419463 -7.143428898473154 8.385764359077182 -15.529193257550336 8.385764359077182
S 1026.7776358615286 1196.3435628398263 1026.7776358615286 1167.1486795156316
s 7.143428898473154 -8.385764359077182 15.529193257550336 -8.385764359077182
S 1057.8360223766292 1137.9537961914368 1057.8360223766292 1167.1486795156316
z" fill="none" stroke="none"></path>
<use xlink:href="#path-j2jp5nw5sc-1" x="0" y="0" stroke="#ffffff">
  <animateMotion begin="-1.354690213987929s" dur="17.559727228730345s" keyPoints="1;0" keyTimes="0;1" repeatCount="indefinite" calcMode="linear">
    <mpath xlink:href="#path37"></mpath>
  </animateMotion>
</use><path id="path38" d="M 1103.6146664447235 1248.6045116282057
c 0 58.03354475391021 -14.199697120637603 16.66920966335719 -30.86890678399479 16.66920966335719
S 1041.876852876734 1306.638056382116 1041.876852876734 1248.6045116282057
s 14.199697120637603 -16.66920966335719 30.86890678399479 -16.66920966335719
S 1103.6146664447235 1190.5709668742954 1103.6146664447235 1248.6045116282057
z" fill="none" stroke="none"></path>
<use xlink:href="#path-j2jp5nw5sc-3" x="0" y="0" stroke="#ffffff">
  <animateMotion begin="-3.931932840572212s" dur="15.165137345048954s" keyPoints="1;0" keyTimes="0;1" repeatCount="indefinite" calcMode="linear">
    <mpath xlink:href="#path38"></mpath>
  </animateMotion>
</use><path id="path39" d="M 1121.1474553309217 833.3031353510595
c 0 51.53801300196632 -12.610364883459845 14.803471819713732 -27.413836703173576 14.803471819713732
S 1066.3197819245747 884.8411483530258 1066.3197819245747 833.3031353510595
s 12.610364883459845 -14.803471819713732 27.413836703173576 -14.803471819713732
S 1121.1474553309217 781.7651223490932 1121.1474553309217 833.3031353510595
z" fill="none" stroke="none"></path>
<use xlink:href="#path-j2jp5nw5sc-3" x="0" y="0" stroke="#ffffff">
  <animateMotion begin="-0.09657279935119667s" dur="15.20169225173212s" keyPoints="0;1" keyTimes="0;1" repeatCount="indefinite" calcMode="linear">
    <mpath xlink:href="#path39"></mpath>
  </animateMotion>
</use><path id="path40" d="M 1152.0561742737127 233.24153745493226
c 0 44.24381263305863 -10.82561372936541 12.708329160559394 -23.533942889924802 12.708329160559394
S 1104.988288493863 277.48535008799087 1104.988288493863 233.24153745493226
s 10.82561372936541 -12.708329160559394 23.533942889924802 -12.708329160559394
S 1152.0561742737127 188.99772482187362 1152.0561742737127 233.24153745493226
z" fill="none" stroke="none"></path>
<use xlink:href="#path-j2jp5nw5sc-2" x="0" y="0" stroke="#ffffff">
  <animateMotion begin="-0.25433320491299427s" dur="16.53202557784285s" keyPoints="1;0" keyTimes="0;1" repeatCount="indefinite" calcMode="linear">
    <mpath xlink:href="#path40"></mpath>
  </animateMotion>
</use><path id="path41" d="M 1189.5799194384638 608.8070681177554
c 0 59.12128170358648 -14.465845523217967 16.98164474464718 -31.44749026786515 16.98164474464718
S 1126.6849389027336 667.928349821342 1126.6849389027336 608.8070681177554
s 14.465845523217967 -16.98164474464718 31.44749026786515 -16.98164474464718
S 1189.5799194384638 549.6857864141689 1189.5799194384638 608.8070681177554
z" fill="none" stroke="none"></path>
<use xlink:href="#path-j2jp5nw5sc-2" x="0" y="0" stroke="#ffffff">
  <animateMotion begin="-4.013987328820827s" dur="15.223421043780167s" keyPoints="1;0" keyTimes="0;1" repeatCount="indefinite" calcMode="linear">
    <mpath xlink:href="#path41"></mpath>
  </animateMotion>
</use><path id="path42" d="M 1216.9475819116558 783.2208296635698
c 0 63.75092708157116 -15.598631094426985 18.31143650215342 -33.910067596580404 18.31143650215342
S 1149.127446718495 846.971756745141 1149.127446718495 783.2208296635698
s 15.598631094426985 -18.31143650215342 33.910067596580404 -18.31143650215342
S 1216.9475819116558 719.4699025819987 1216.9475819116558 783.2208296635698
z" fill="none" stroke="none"></path>
<use xlink:href="#path-j2jp5nw5sc-1" x="0" y="0" stroke="#ffffff">
  <animateMotion begin="-4.958218257124148s" dur="19.902126621423534s" keyPoints="0;1" keyTimes="0;1" repeatCount="indefinite" calcMode="linear">
    <mpath xlink:href="#path42"></mpath>
  </animateMotion>
</use></g>
</svg>