<?xml version="1.0" encoding="utf-8"?>
<!-- Generator: Adobe Illustrator 20.0.0, SVG Export Plug-In . SVG Version: 6.00 Build 0)  -->
<svg version="1.1" id="Layer_1" xmlns="http://www.w3.org/2000/svg" xmlns:xlink="http://www.w3.org/1999/xlink" x="0px" y="0px"
	 viewBox="0 0 100 100" style="enable-background:new 0 0 100 100;" xml:space="preserve">
<style type="text/css">
	.st0{fill:#FFD05B;}
	.st1{fill:#54C0EB;}
	.st2{fill:#FFFFFF;}
	.st3{fill:#F1543F;}
	.st4{fill:#2B3B4E;}
	.st5{fill:#324A5E;}
</style>
<circle class="st0" cx="50" cy="50" r="50"/>
<rect x="18.8" y="18.8" class="st1" width="62.5" height="62.5"/>
<rect x="24.2" y="31.9" class="st2" width="51.6" height="43.9"/>
<rect x="24.2" y="23.4" class="st3" width="6.4" height="3.8"/>
<rect x="34.9" y="23.4" class="st2" width="6.4" height="3.8"/>
<rect x="45.5" y="23.4" class="st4" width="6.4" height="3.8"/>
<circle class="st5" cx="50" cy="53.8" r="16.1"/>
<g>
	<polygon class="st2" points="42.7,60.5 35.8,53.8 42.7,47.2 44.8,49.4 40.1,53.8 44.8,58.3 	"/>
	<polygon class="st2" points="57.3,60.5 55.2,58.3 59.9,53.8 55.2,49.4 57.3,47.2 64.2,53.8 	"/>
	<rect x="38.5" y="52.3" transform="matrix(0.3678 -0.9299 0.9299 0.3678 -18.4477 80.527)" class="st2" width="22.9" height="3"/>
</g>
</svg>
