<?xml version="1.0" encoding="utf-8"?>
<!-- Generator: Adobe Illustrator 23.0.1, SVG Export Plug-In . SVG Version: 6.00 Build 0)  -->
<svg version="1.1" id="Layer_1" xmlns="http://www.w3.org/2000/svg" xmlns:xlink="http://www.w3.org/1999/xlink" x="0px" y="0px"
	 viewBox="0 0 100 100" style="enable-background:new 0 0 100 100;" xml:space="preserve">
<style type="text/css">
	.st0{fill:#694B4B;}
	.st1{fill:#5A4146;}
	.st2{fill:#785550;}
	.st3{fill:#E6AF78;}
	.st4{fill:#EFF2FA;}
	.st5{fill:#D29B6E;}
	.st6{fill:#E4EAF6;}
	.st7{fill:#F0C087;}
	.st8{fill:#5B5D6E;}
	.st9{fill:#515262;}
	.st10{fill:#B4E1FA;}
	.st11{fill:#A0D2F0;}
</style>
<path class="st0" d="M17.9,31.6c-15.7,0-14,19.1-13.9,33c0,0.5,0.3,1,0.7,1.3c1.7,1.1,6.5,3.5,13.2,3.5s11.4-2.5,13.2-3.5
	c0.4-0.3,0.7-0.7,0.7-1.3C31.9,50.7,33.6,31.6,17.9,31.6z"/>
<path class="st1" d="M16.9,31.6C2.3,32.4,3.9,51,4,64.5c0,0.5,0.3,1,0.7,1.3c1.7,1.1,6.5,3.5,13.2,3.5l4-27.8"/>
<path class="st0" d="M17.9,31.6c-8.9,0-9.6,10.8-9.6,10.8c5.2-0.9,8.3,1.3,13.5-0.9l-4,27.8c6.7,0,11.4-2.5,13.2-3.5
	c0.4-0.3,0.7-0.7,0.7-1.3C31.9,50.7,33.6,31.6,17.9,31.6z"/>
<path class="st2" d="M31.8,64.5c0.1-11.9,1.3-27.7-8.3-31.9c-0.2,0.9-0.5,3.3,0.3,4.9c2,4,4,4,6,7c2,10.9-3.8,22.5-5.7,24.1l0,0
	c3.4-0.8,5.8-2.1,7-2.8C31.5,65.5,31.8,65.1,31.8,64.5z"/>
<path class="st3" d="M32.9,67.5l-8.9-3.7c-0.7-0.3-1.2-1-1.2-1.8v-2.4h-9.9V62c0,0.8-0.5,1.5-1.2,1.8l-8.9,3.7C1.7,68,1,69.1,1,70.3
	v4c0,1.1,0.9,2,2,2h29.8c1.1,0,2-0.9,2-2v-4C34.8,69.1,34,68,32.9,67.5z"/>
<path class="st4" d="M32.9,67.5L24.4,64l-6.5,2.8L11.4,64l-8.6,3.6C1.7,68,1,69.1,1,70.3v4c0,1.1,0.9,2,2,2h29.8c1.1,0,2-0.9,2-2v-4
	C34.8,69.1,34,68,32.9,67.5z"/>
<path class="st5" d="M22.9,59.6h-9.9V62c0,0.8-0.5,1.5-1.2,1.8l-1.4,0.6C20.9,67.1,22.9,59.6,22.9,59.6z"/>
<g>
	<path class="st6" d="M5.8,71.4l-4-3.2C1.3,68.8,1,69.5,1,70.3v4c0,1.1,0.9,2,2,2h4v-2.5C7,72.8,6.5,72,5.8,71.4z"/>
	<path class="st6" d="M34.8,74.3v-4c0-0.8-0.3-1.5-0.8-2.1l-4,3.2c-0.7,0.6-1.1,1.4-1.1,2.3v2.5h4C33.9,76.3,34.8,75.4,34.8,74.3z"
		/>
	<path class="st6" d="M18,74.3h-0.3c-0.5,0-0.8-0.4-0.8-0.8v-6.7h2v6.7C18.9,73.9,18.5,74.3,18,74.3z"/>
	<path class="st6" d="M17.9,66.8l-5.7-4.3c-0.4-0.3-0.9-0.2-1.1,0.2l-1.1,1.7l3.5,4.9c0.3,0.4,0.8,0.4,1.1,0.2L17.9,66.8z"/>
	<path class="st6" d="M17.9,66.8l5.7-4.3c0.4-0.3,0.9-0.2,1.1,0.2l1.1,1.7l-3.5,4.9c-0.3,0.4-0.8,0.4-1.1,0.2L17.9,66.8z"/>
</g>
<path class="st7" d="M22.9,40.5c-5,5-14.7,1-14.7,8.9l0.6,5.9c0.1,1.3,0.9,2.5,2,3.1l5.7,3.1c0.9,0.5,2,0.5,2.9,0l5.7-3.1
	c1.1-0.6,1.9-1.8,2-3.1l0.7-7c0.1-0.5,0.1-1,0-1.5C27.4,44.3,23.8,42.5,22.9,40.5z"/>
<path class="st3" d="M8.1,49.4l0.6,5.9c0.1,1.3,0.9,2.5,2,3.1l5.7,3.1c0.6,0.3,1.3,0.4,2,0.3l0,0c0,0-2.9-0.9-4.5-5.5
	c-0.5-1.4-1.2-8.9-0.6-9.8c1.2-1.8,8.1-2,10.1-5.3c-0.1-0.1-0.2-0.2-0.3-0.4c0,0,0,0,0,0c-0.1-0.1-0.2-0.3-0.2-0.4
	C17.9,45.5,8.1,41.5,8.1,49.4z"/>
<path class="st6" d="M25.1,74.3h-2.6c-0.9,0-1.7,0.8-1.7,1.7v0.3h6V76C26.8,75,26.1,74.3,25.1,74.3z"/>
<polygon class="st3" points="85.8,62.9 85.8,57.5 71.7,57.5 71.7,62.9 78.7,69.2 "/>
<path class="st4" d="M96.6,65.5L87,63.2c-0.1,0-0.3-0.1-0.4-0.2l-7.8,4.6l-7.5-4.8c-0.2,0.2-0.4,0.3-0.7,0.4l-9.6,2.3
	c-1.4,0.3-2.4,1.6-2.4,3v6.1c0,0.9,0.7,1.6,1.6,1.6h37.4c0.9,0,1.6-0.7,1.6-1.6v-6.1C99,67.1,98,65.8,96.6,65.5z"/>
<path class="st5" d="M71.7,57.5v5.8c8.8,3.2,14-4.8,14-4.8v-1H71.7L71.7,57.5z"/>
<path class="st7" d="M68.6,39.5l0.7,14.9c0.1,1.4,0.7,2.7,1.9,3.5l3.2,2.4c0.8,0.6,1.8,0.9,2.8,0.9h3.1c1,0,2-0.3,2.8-0.9l3.2-2.4
	c1.1-0.8,1.8-2.1,1.9-3.5l0.7-14.9L68.6,39.5L68.6,39.5z"/>
<path class="st3" d="M76.4,42.7c3.1,0,7.8-0.8,8.9-3.1H68.6l0.7,14.9c0.1,1.4,0.7,2.7,1.9,3.5l3.2,2.4c0.8,0.6,1.8,0.9,2.8,0.9h1.6
	c-1.6,0-4.7-3.1-4.7-7c0-1.9,0-7,0-9.4C74.1,44.2,74.8,42.7,76.4,42.7z"/>
<path class="st6" d="M93.3,71.1l5.1-4.5c0.4,0.5,0.7,1.2,0.7,1.9v6.1c0,0.9-0.7,1.6-1.6,1.6H92V74C92,72.9,92.5,71.9,93.3,71.1z"/>
<polygon class="st8" points="80.7,76.2 76.8,76.2 77.3,69.2 80.2,69.2 "/>
<path class="st9" d="M80.7,67.6h-3.9v0.5c0,1,0.8,1.9,1.9,1.9h0.1c1,0,1.9-0.8,1.9-1.9L80.7,67.6L80.7,67.6z"/>
<g>
	<path class="st6" d="M71.6,61.2l7.1,6.4c0,0-2,1-4.5,3c-0.5,0.4-1.3,0.2-1.5-0.4l-3.3-7.4l1.1-1.6C70.7,60.9,71.3,60.9,71.6,61.2z"
		/>
	<path class="st6" d="M85.9,61.2l-7.1,6.4c0,0,2,1,4.5,3c0.5,0.4,1.3,0.2,1.5-0.4l3.3-7.4L87,61.3C86.8,60.9,86.2,60.9,85.9,61.2z"
		/>
</g>
<path class="st2" d="M83.5,34.4l0.7,5.2c3.3,0.7,3.8,5.9,3.9,7.4c0,0.3,0.1,0.5,0.2,0.8l1.3,2c0,0-0.4-3.3,1.6-5.5
	C91.2,44.2,91.8,31.3,83.5,34.4z"/>
<path class="st7" d="M90.4,49.3l-0.9,3.5c-0.1,0.4-0.5,0.7-0.9,0.7l0,0c-0.5,0-0.9-0.4-0.9-0.8l-0.4-3.6c-0.1-1,0.6-1.8,1.6-1.8h0
	C89.9,47.3,90.6,48.3,90.4,49.3z"/>
<path class="st0" d="M69.4,33l1.2,0.8c-5.2,3.8-4.2,10.4-4.2,10.4c1.6,1.6,1.6,5.5,1.6,5.5l1.6-1.6c0,0-0.6-4.5,2.3-6.2
	c2.7-1.6,5.1-0.8,7.5-0.8c6.5,0,8.4-2.5,8-5.5c-0.2-1.6-2.5-4.8-8.6-4.7C76.3,31,71.7,31.8,69.4,33z"/>
<path class="st1" d="M68.9,40.4c0,0-0.8-3.3,1.6-6.6c-5.2,3.8-4.2,10.4-4.2,10.4c1.6,1.6,1.6,5.5,1.6,5.5l1.6-1.6
	c0,0-0.6-4.5,2.3-6.2c2.7-1.6,5.1-0.8,7.5-0.8c1.1,0,2-0.1,2.8-0.2C77.1,41.1,74.1,37.3,68.9,40.4z"/>
<path class="st3" d="M67.1,49.3l0.9,3.5c0.1,0.4,0.5,0.7,0.9,0.7l0,0c0.5,0,0.9-0.4,0.9-0.8l0.4-3.6c0.1-1-0.6-1.8-1.6-1.8h0
	C67.6,47.3,66.8,48.3,67.1,49.3z"/>
<path class="st6" d="M88.1,74.6h-3.9c-0.9,0-1.6,0.7-1.6,1.6l0,0h7l0,0C89.6,75.3,88.9,74.6,88.1,74.6z"/>
<path class="st0" d="M50,12c-26.7,0-23.8,32.5-23.6,56.1c0,0.9,0.5,1.7,1.2,2.2c3,1.8,11.1,6,22.4,6s19.4-4.2,22.4-6
	c0.8-0.5,1.2-1.3,1.2-2.2C73.8,44.5,76.8,12,50,12z"/>
<path class="st1" d="M48.3,12.1c-24.9,1.4-22,33-21.9,56c0,0.9,0.5,1.7,1.2,2.2c3,1.8,11.1,6,22.4,6l6.8-47.3"/>
<path class="st0" d="M50,12c-15.2,0-16.3,18.4-16.3,18.4c8.8-1.5,14.1,2.2,23-1.5L50,76.2c11.3,0,19.4-4.2,22.4-6
	c0.8-0.5,1.2-1.3,1.2-2.2C73.8,44.5,76.8,12,50,12z"/>
<path class="st2" d="M73.7,68.1C73.8,47.8,76,21,59.6,13.8c-0.3,1.5-0.8,5.6,0.5,8.3c3.4,6.8,6.8,6.8,10.1,11.8
	c3.4,18.6-6.5,38.3-9.7,41l0,0c5.8-1.4,9.9-3.6,11.9-4.7C73.2,69.8,73.7,69,73.7,68.1z"/>
<path class="st3" d="M75.6,73.2l-15.1-6.3c-1.3-0.5-2.1-1.8-2.1-3.1v-4.1H41.6v4.1c0,1.4-0.8,2.6-2.1,3.1l-15.1,6.3
	c-1.9,0.8-3.1,2.6-3.1,4.7v6.8c0,1.9,1.5,3.4,3.4,3.4h50.7c1.9,0,3.4-1.5,3.4-3.4v-6.8C78.7,75.8,77.5,74,75.6,73.2z"/>
<path class="st10" d="M75.6,73.2l-14.6-6.1l-11,4.8l-11-4.8l-14.6,6.1c-1.9,0.8-3.1,2.6-3.1,4.7v6.8c0,1.9,1.5,3.4,3.4,3.4h50.7
	c1.9,0,3.4-1.5,3.4-3.4v-6.8C78.7,75.8,77.5,74,75.6,73.2z"/>
<path class="st5" d="M58.5,59.7H41.6v4.1c0,1.4-0.8,2.6-2.1,3.1l-2.4,1C55.2,72.5,58.5,59.7,58.5,59.7z"/>
<g>
	<path class="st11" d="M29.6,79.7l-6.8-5.4c-0.9,0.9-1.5,2.2-1.5,3.5v6.8c0,1.9,1.5,3.4,3.4,3.4h6.8v-4.3
		C31.5,82.1,30.8,80.7,29.6,79.7z"/>
	<path class="st11" d="M78.7,84.6v-6.8c0-1.3-0.5-2.6-1.4-3.5l-6.8,5.4c-1.2,1-1.9,2.4-1.9,4V88h6.8C77.2,88,78.7,86.5,78.7,84.6z"
		/>
	<path class="st11" d="M50,84.6L50,84.6c-0.9,0-1.7-0.8-1.7-1.7V71.9h3.4v11.1C51.7,83.9,51,84.6,50,84.6z"/>
	<path class="st11" d="M50,71.9l-9.7-7.2c-0.6-0.5-1.5-0.3-1.9,0.3l-1.9,2.9l5.9,8.3c0.5,0.6,1.3,0.8,1.9,0.3L50,71.9z"/>
	<path class="st11" d="M50,71.9l9.7-7.2c0.6-0.5,1.5-0.3,1.9,0.3l1.9,2.9l-5.9,8.3c-0.5,0.6-1.3,0.8-1.9,0.3L50,71.9z"/>
</g>
<path class="st7" d="M58.5,27.2c-8.4,8.4-25,1.7-25,15.2l1,10c0.2,2.2,1.5,4.2,3.4,5.3l9.6,5.3c1.5,0.9,3.4,0.9,4.9,0l9.6-5.3
	c2-1.1,3.2-3.1,3.4-5.3l1.2-11.8c0.1-0.8,0.1-1.7,0.1-2.5C66.2,33.7,60.2,30.6,58.5,27.2z"/>
<path class="st3" d="M33.5,42.4l1,10c0.2,2.2,1.5,4.2,3.4,5.3l9.6,5.3c1.1,0.6,2.3,0.7,3.4,0.5l0,0c0,0-4.8-1.5-7.7-9.3
	c-0.9-2.4-2.1-15.1-1.1-16.6c2.1-3.1,13.7-3.4,17.2-9.1c-0.2-0.2-0.3-0.4-0.5-0.6c0,0,0,0,0-0.1c-0.1-0.2-0.3-0.4-0.4-0.7
	C50,35.6,33.5,28.9,33.5,42.4z"/>
<path class="st11" d="M63.5,84.6h-6.8c-0.9,0-1.7,0.8-1.7,1.7V88h10.1v-1.7C65.2,85.4,64.5,84.6,63.5,84.6z"/>
</svg>
