<?xml version="1.0" encoding="utf-8"?>
<!-- Generator: Adobe Illustrator 23.0.1, SVG Export Plug-In . SVG Version: 6.00 Build 0)  -->
<svg version="1.1" id="Layer_1" xmlns="http://www.w3.org/2000/svg" xmlns:xlink="http://www.w3.org/1999/xlink" x="0px" y="0px"
	 viewBox="0 0 100 100" style="enable-background:new 0 0 100 100;" xml:space="preserve">
<style type="text/css">
	.st0{fill:#E8D6BA;}
	.st1{fill:#F4E3C3;}
	.st2{fill:#31BAFD;}
	.st3{fill:#2B9ED8;}
	.st4{fill:#324A5E;}
	.st5{fill:#2B3B4E;}
</style>
<path class="st0" d="M50,21.7C29.1,21.7,10.8,33.1,1,50c9.8,16.9,28.1,28.3,49,28.3S89.2,66.9,99,50C89.2,33.1,70.9,21.7,50,21.7z"
	/>
<path class="st1" d="M99,50c-9.8-16.9-28.1-28.3-49-28.3v56.6C70.9,78.3,89.2,66.9,99,50z"/>
<circle class="st2" cx="50" cy="50" r="24.2"/>
<path class="st3" d="M74.2,50c0-13.4-10.9-24.2-24.2-24.2v48.5C63.4,74.2,74.2,63.4,74.2,50z"/>
<circle class="st4" cx="50" cy="50" r="16.7"/>
<path class="st5" d="M66.7,50c0-9.2-7.5-16.7-16.7-16.7v33.3C59.2,66.7,66.7,59.2,66.7,50z"/>
</svg>
