<?xml version="1.0" encoding="utf-8"?>
<!-- Generator: Adobe Illustrator 23.0.1, SVG Export Plug-In . SVG Version: 6.00 Build 0)  -->
<svg version="1.1" id="Capa_1" xmlns="http://www.w3.org/2000/svg" xmlns:xlink="http://www.w3.org/1999/xlink" x="0px" y="0px"
	 viewBox="0 0 100 100" style="enable-background:new 0 0 100 100;" xml:space="preserve">
<style type="text/css">
	.st0{fill:#FF4F19;}
	.st1{fill:#FDC88E;}
	.st2{fill:#FFB980;}
	.st3{fill:#FFE1B2;}
	.st4{fill:#7E5449;}
	.st5{fill:#D8DCE1;}
	.st6{fill:#9F6459;}
	.st7{fill:#FFFFFF;}
</style>
<g>
	<g>
		<path class="st0" d="M77.7,77.9l-3.5-20.8h0c-0.5-2.8-2.4-5.7-5.7-6.6c0,0-0.1,0-0.1,0l-8.1-1.2c0,0-0.2,0-0.2,0
			c-0.5,0-0.9,0.4-1,0.9c-0.4,3.5-3.3,6.3-7.1,7H48c-3.7-0.8-6.6-3.5-7.1-7c-0.1-0.5-0.5-0.9-1-0.9c-0.1,0-0.1,0-0.2,0l-8.1,1.2
			c0,0-0.1,0-0.1,0c-3.3,0.9-5.2,3.8-5.7,6.6h0l-3.5,20.8c-0.7,3.8,2.2,7.3,6,7.3h0.3h42.9h0.3C75.5,85.2,78.4,81.7,77.7,77.9z"/>
	</g>
	<g>
		<path class="st1" d="M50,48.3c-3.5,0-6.8-1.5-9.1-4c0,1.5-0.1,3.6-0.4,5.2c0.3,0.2,0.5,0.4,0.5,0.7c0.5,4.1,4.4,7.2,9.1,7.2
			c4.7,0,8.6-3.1,9.1-7.2c0-0.3,0.2-0.6,0.5-0.7c-0.4-1.6-0.4-3.7-0.4-5.2C56.8,46.7,53.5,48.3,50,48.3z"/>
	</g>
	<g>
		<path class="st2" d="M58.9,44.5c-2.4,2.3-5.5,3.8-8.9,3.8c-3.5,0-6.8-1.5-9.1-4c0,1.5-0.1,3.6-0.4,5.2c0.3,0.2,0.5,0.4,0.5,0.7
			c0.2,1.8,1.1,3.4,2.4,4.7C49.5,54,56.4,48,58.9,44.5z"/>
	</g>
	<g>
		<path class="st3" d="M59.1,22.9H41.9c-2.8,0-5.1,2.3-5.1,5.1V34c0,7.8,5.9,14.2,13.2,14.2S63.2,41.9,63.2,34v-7.1
			C63.2,24.7,61.4,22.9,59.1,22.9z"/>
	</g>
	<g>
		<path class="st4" d="M57.1,11.7H43.9c-1.9,0-3.5,1.3-3.9,3.1c-3.5,0.4-6.2,3.4-6.2,7v5.1c0,2.6,1.1,5.1,3,6.8V28
			c0-2.8,2.3-5.1,5.1-5.1h17.3c2.2,0,4.1,1.8,4.1,4.1v6.8c1.9-1.7,3-4.2,3-6.8v-6.1C66.2,15.8,62.1,11.7,57.1,11.7z"/>
	</g>
	<g>
		<path class="st5" d="M68.4,85.2H31.6c-0.8,0-1.5-0.7-1.5-1.5V63.8c0-0.8,0.7-1.5,1.5-1.5h36.8c0.8,0,1.5,0.7,1.5,1.5v19.9
			C69.9,84.5,69.2,85.2,68.4,85.2z"/>
	</g>
	<g>
		<g>
			<path class="st6" d="M97.5,88.3H2.5c-0.8,0-1.5-0.7-1.5-1.5s0.7-1.5,1.5-1.5h94.9c0.8,0,1.5,0.7,1.5,1.5S98.3,88.3,97.5,88.3z"/>
		</g>
	</g>
	<g>
		<circle class="st7" cx="50" cy="74.5" r="3.1"/>
	</g>
</g>
</svg>
