<?xml version="1.0" encoding="utf-8"?>
<!-- Generator: Adobe Illustrator 20.0.0, SVG Export Plug-In . SVG Version: 6.00 Build 0)  -->
<svg version="1.1" id="Layer_1" xmlns="http://www.w3.org/2000/svg" xmlns:xlink="http://www.w3.org/1999/xlink" x="0px" y="0px"
	 viewBox="0 0 72 72" style="enable-background:new 0 0 72 72;" xml:space="preserve">
<style type="text/css">
	.st0{fill:#FFEBB7;}
	.st1{fill:#5C546A;}
	.st2{fill:#00C37A;}
	.st3{fill:#009BCA;}
	.st4{fill:#E6BE94;}
	.st5{fill:#FF4F19;}
</style>
<g>
	<g>
		<path class="st0" d="M63.1,62.6H18.6c-4.8,0-8.7-3.9-8.7-8.6v-1.7c0-4.8,3.9-8.6,8.6-8.6h44.6C63.1,43.7,63.1,62.6,63.1,62.6z"/>
	</g>
	<g>
		<rect x="11.7" y="45.5" class="st1" width="4.8" height="15.2"/>
	</g>
	<g>
		<path class="st0" d="M58.6,40.8H8V27.5h50.7c1.4,0,2.6,1.1,2.6,2.6v8.1C61.2,39.6,60,40.8,58.6,40.8z"/>
	</g>
	<g>
		<rect x="14.6" y="10.3" class="st0" width="48.6" height="14.2"/>
	</g>
	<g>
		<path class="st2" d="M63.1,64.5H19.4C13.1,64.5,8,59.3,8,53.1S13,41.6,19.4,41.6h43.8c1.1,0,1.9,0.8,1.9,1.9
			c0,1.1-0.8,1.9-1.9,1.9H19.4c-4.1,0-7.6,3.4-7.6,7.6s3.4,7.6,7.6,7.6h43.8c1.1,0,1.9,0.8,1.9,1.9C65.1,63.8,64.1,64.5,63.1,64.5z"
			/>
	</g>
	<g>
		<g>
			<path class="st3" d="M57.4,41.7H6.9c-0.5,0-0.9-0.4-0.9-0.9c0-0.6,0.4-0.9,0.9-0.9h50.4c1.6,0,2.8-1.2,2.8-2.8v-5.7
				c0-1.6-1.2-2.8-2.8-2.8H6.9c-0.5,0-0.9-0.4-0.9-0.9c0-0.5,0.4-0.9,0.9-0.9h50.4c2.6,0,4.8,2.2,4.8,4.8v5.7
				C62.2,39.6,60.1,41.7,57.4,41.7z"/>
		</g>
	</g>
	<g>
		<path class="st4" d="M63.1,15.1H19.4c-0.5,0-0.9-0.4-0.9-0.9l0,0c0-0.5,0.4-0.9,0.9-0.9h43.8L63.1,15.1L63.1,15.1z"/>
	</g>
	<g>
		<path class="st4" d="M63.1,18.8H19.4c-0.5,0-0.9-0.4-0.9-0.9l0,0c0-0.5,0.4-0.9,0.9-0.9h43.8L63.1,18.8L63.1,18.8z"/>
	</g>
	<g>
		<path class="st4" d="M63.1,22.7H19.4c-0.5,0-0.9-0.4-0.9-0.9l0,0c0-0.5,0.4-0.9,0.9-0.9h43.8L63.1,22.7L63.1,22.7z"/>
	</g>
	<g>
		<path class="st4" d="M8,30.3h49.4c0.5,0,0.9,0.4,0.9,0.9l0,0c0,0.5-0.4,0.9-0.9,0.9H8V30.3z"/>
	</g>
	<g>
		<path class="st4" d="M8,34.1h49.4c0.5,0,0.9,0.4,0.9,0.9l0,0c0,0.5-0.4,0.9-0.9,0.9H8V34.1z"/>
	</g>
	<g>
		<path class="st4" d="M8,37.9h49.4c0.5,0,0.9,0.4,0.9,0.9l0,0c0,0.5-0.4,0.9-0.9,0.9H8C8,39.8,8,37.9,8,37.9z"/>
	</g>
	<g>
		<path class="st5" d="M64,26.5H18.5c-3.2,0-5.7-2.6-5.7-5.7v-7.6c0-3.2,2.6-5.7,5.7-5.7h45.7c1,0,1.9,0.8,1.9,1.9s-0.8,1.9-1.9,1.9
			H18.5c-1.1,0-1.9,0.8-1.9,1.9v7.6c0,1.1,0.8,1.9,1.9,1.9h45.7c1.1,0,1.9,0.8,1.9,1.9C66,25.6,65.2,26.5,64,26.5z"/>
	</g>
	<g>
		<path class="st4" d="M19.4,58.8c-0.5,0-0.9,0.4-0.9,0.9c0,0.6,0.4,0.9,0.9,0.9h43.8v-1.9H19.4L19.4,58.8z"/>
	</g>
	<g>
		<path class="st4" d="M19.4,55c-0.5,0-0.9,0.4-0.9,0.9c0,0.5,0.4,0.9,0.9,0.9h43.8V55H19.4L19.4,55z"/>
	</g>
	<g>
		<path class="st4" d="M19.4,51.2c-0.5,0-0.9,0.4-0.9,0.9c0,0.6,0.4,0.9,0.9,0.9h43.8v-1.9H19.4L19.4,51.2z"/>
	</g>
	<g>
		<path class="st4" d="M19.4,47.4c-0.5,0-0.9,0.4-0.9,0.9c0,0.5,0.4,1,0.9,1h43.8v-1.9L19.4,47.4L19.4,47.4z"/>
	</g>
</g>
</svg>
