<?xml version="1.0" encoding="utf-8"?>
<!-- Generator: Adobe Illustrator 20.0.0, SVG Export Plug-In . SVG Version: 6.00 Build 0)  -->
<svg version="1.1" id="Layer_1" xmlns="http://www.w3.org/2000/svg" xmlns:xlink="http://www.w3.org/1999/xlink" x="0px" y="0px"
	 viewBox="0 0 72 72" style="enable-background:new 0 0 72 72;" xml:space="preserve">
<style type="text/css">
	.st0{fill:#E2574C;}
	.st1{fill:#EFC75E;}
	.st2{fill:#DCB757;}
	.st3{fill:#D05046;}
</style>
<path class="st0" d="M28.4,48.8V44l-13.2,3.7c0,0,1-5.6,7.8-7.6c2.1-0.6,3.9-0.6,5.3-0.3V20.4h6.6c-0.7-2.2-1.4-3.9-2-5.1
	c-1-2-2-0.7-4.2,1.2c-1.6,1.3-5.6,4.2-11.6,5.7c-6,1.6-10.9,1.2-12.9,0.8C1.5,22.6,0,22,0.1,24.2c0.1,1.9,0.6,4.9,1.6,8.9
	c2.2,8.5,9.7,25,23.9,21.2c3.7-1,6.4-3,8.2-5.5L28.4,48.8L28.4,48.8z M7.2,33.2l10.1-2.6c0,0-0.3,3.9-4,4.9
	C9.4,36.4,7.2,33.2,7.2,33.2z"/>
<path class="st1" d="M66.4,20.8c-2.7,0.4-9.1,1.1-17-1.1s-13.2-5.8-15.3-7.6c-3-2.5-4.3-4.2-5.5-1.6c-1.1,2.3-2.6,6-4,11.2
	C21.5,33.1,19.3,57,38,62c18.8,5,28.7-16.8,31.8-28.1c1.4-5.2,2-9.2,2.2-11.7C72.2,19.3,70.2,20.1,66.4,20.8z M28.7,30.2
	c0,0,3-4.7,8-3.2c5.1,1.5,5.5,7,5.5,7L28.7,30.2z M41,50.7c-8.8-2.6-10.2-9.6-10.2-9.6l23.7,6.6C54.5,47.7,49.7,53.3,41,50.7z
	 M49.5,36.4c0,0,2.9-4.6,7.7-3.2c4.8,1.5,5.2,7,5.2,7L49.5,36.4z"/>
<path class="st2" d="M41.7,50.9L41,50.7c-8.8-2.6-10.2-9.6-10.2-9.6l12.5,3.5l6.4-24.8c-0.1-0.1-0.2-0.1-0.3-0.1
	c-7.9-2.1-13.2-5.8-15.3-7.6c-3-2.5-4.3-4.2-5.5-1.6c-1.1,2.3-2.6,6-4,11.2c-2.9,10.9-5.1,33.2,11.4,39.5l2.8,0.8L41.7,50.9
	L41.7,50.9z M28.7,30.2c0,0,3-4.7,8-3.2c5.1,1.5,5.5,7,5.5,7L28.7,30.2z"/>
<path class="st3" d="M23.7,45.4l-8.5,2.4c0,0,0.9-5.3,7.1-7.4l-4.8-18.2c-0.1,0.1-0.2,0.1-0.4,0.1c-6,1.6-10.9,1.2-12.9,0.8
	c-2.9-0.5-4.4-1.1-4.2,1.1c0.1,1.9,0.6,4.9,1.6,8.9c2.4,8.4,9.8,24.9,24,21.1l0.3-0.1C26,54.2,23.7,45.4,23.7,45.4z M7.2,33.2
	l10.1-2.6c0,0-0.3,3.9-4,4.9C9.4,36.4,7.2,33.2,7.2,33.2z"/>
</svg>
