<svg id="_1_communication" data-name="1 communication" xmlns="http://www.w3.org/2000/svg" width="72" height="72" viewBox="0 0 72 72">
  <metadata><?xpacket begin="﻿" id="W5M0MpCehiHzreSzNTczkc9d"?>
<x:xmpmeta xmlns:x="adobe:ns:meta/" x:xmptk="Adobe XMP Core 5.6-c138 79.159824, 2016/09/14-01:09:01        ">
   <rdf:RDF xmlns:rdf="http://www.w3.org/1999/02/22-rdf-syntax-ns#">
      <rdf:Description rdf:about=""/>
   </rdf:RDF>
</x:xmpmeta>
                                                                                                    
                                                                                                    
                                                                                                    
                                                                                                    
                                                                                                    
                                                                                                    
                                                                                                    
                                                                                                    
                                                                                                    
                                                                                                    
                                                                                                    
                                                                                                    
                                                                                                    
                                                                                                    
                                                                                                    
                                                                                                    
                                                                                                    
                                                                                                    
                                                                                                    
                                                                                                    
                           
<?xpacket end="w"?></metadata>
<defs>
    <style>
      .cls-1 {
        fill: #f2f2f2;
      }

      .cls-1, .cls-2, .cls-3, .cls-4, .cls-5 {
        fill-rule: evenodd;
      }

      .cls-2 {
        fill: #40596b;
      }

      .cls-3 {
        fill: #334a5e;
      }

      .cls-4 {
        fill: #e8eaea;
      }

      .cls-5 {
        fill: #4cdbc4;
      }
    </style>
  </defs>
  <path id="Ellipse_1_copy_4" data-name="Ellipse 1 copy 4" class="cls-1" d="M39.281,72H32.719a1.65,1.65,0,0,1-1.65-1.648v-4.5a1.649,1.649,0,0,1,1.65-1.649h6.563a1.649,1.649,0,0,1,1.649,1.649v4.5A1.65,1.65,0,0,1,39.281,72M6.316,41.614V35.306a29.683,29.683,0,0,1,59.367,0v6.307h4.5V35.306a34.183,34.183,0,0,0-68.367,0v6.307h4.5Z"/>
  <path id="Ellipse_1_copy_6" data-name="Ellipse 1 copy 6" class="cls-2" d="M39.281,72H32.719a1.65,1.65,0,0,1-1.65-1.648v-4.5a1.649,1.649,0,0,1,1.65-1.649h6.563a1.649,1.649,0,0,1,1.649,1.649v4.5A1.65,1.65,0,0,1,39.281,72m8.85-3H37.015V66.067H48.131A11.818,11.818,0,0,0,60.01,54.339V47h2.975v7.335A14.776,14.776,0,0,1,48.131,69M63.487,46.848h-3v7.385a11.628,11.628,0,0,1-.525,3.452,9.3,9.3,0,0,0,3.29-.932,14.547,14.547,0,0,0,.234-2.52V46.848h0ZM8.512,49.738a7.455,7.455,0,0,1-1.8.243C3.005,49.981,0,47.317,0,44.03s3.006-5.95,6.716-5.95a7.455,7.455,0,0,1,1.8.242V49.738h0ZM63.487,38.256a7.455,7.455,0,0,1,1.8-.242c3.71,0,6.716,2.664,6.716,5.95s-3.006,5.95-6.716,5.95a7.455,7.455,0,0,1-1.8-.242V38.256h0Z"/>
  <path id="Ellipse_1_copy_7" data-name="Ellipse 1 copy 7" class="cls-3" d="M39.323,72H32.677a1.68,1.68,0,0,1-1.671-1.688V65.7a1.679,1.679,0,0,1,1.671-1.688h6.646A1.68,1.68,0,0,1,40.992,65.7v4.613A1.68,1.68,0,0,1,39.323,72m24.164-24.87h-3v7.49a11.945,11.945,0,0,1-.525,3.5,9.2,9.2,0,0,0,3.29-.945,14.955,14.955,0,0,0,.234-2.556v-7.49h0ZM8.512,51.074V39.5a7.358,7.358,0,0,0-1.8-.246,7.32,7.32,0,0,0-2.311.39,8.662,8.662,0,0,0-.061.993v8.221a8.436,8.436,0,0,0,.281,2.136,7.324,7.324,0,0,0,2.094.328,7.345,7.345,0,0,0,1.8-.246M63.487,38.416V49.993a6.884,6.884,0,0,0,4.108-.144,8.364,8.364,0,0,0,.063-0.993V40.634a8.442,8.442,0,0,0-.282-2.136,6.762,6.762,0,0,0-3.89-.082"/>
  <path id="Ellipse_1_copy" data-name="Ellipse 1 copy" class="cls-4" d="M36,5.624m0-4.5"/>
  <path id="Ellipse_1_copy_5" data-name="Ellipse 1 copy 5" class="cls-4" d="M12.9,55.915V33.575a6.985,6.985,0,0,0-2.25.4V55.514a6.991,6.991,0,0,0,2.25.4M59.1,33.575v22.34a6.989,6.989,0,0,0,2.25-.4V33.976a6.986,6.986,0,0,0-2.25-.4m1.5-21.417a3.511,3.511,0,0,0,.25-0.288,34.1,34.1,0,0,0-49.7,0c0.083,0.1.158,0.2,0.249,0.288l3.019,2.817,0.007,0.006a29.551,29.551,0,0,1,43.149,0l0.009-.007Z"/>
  <path id="Ellipse_1_copy_3" data-name="Ellipse 1 copy 3" class="cls-5" d="M36,5.624m0-4.5,0,5.625a28.387,28.387,0,0,1,18.519,6.874A1.331,1.331,0,0,0,56.3,13.6l3.02-2.817a1.332,1.332,0,0,0-.009-1.964,35.2,35.2,0,0,0-46.623,0,1.33,1.33,0,0,0-.008,1.964L15.7,13.6a1.332,1.332,0,0,0,1.782.019A28.39,28.39,0,0,1,36,6.749m-20.021,52.2h0A3.076,3.076,0,0,1,12.9,55.873V33.619a3.077,3.077,0,1,1,6.155,0V55.873a3.076,3.076,0,0,1-3.076,3.076m40.11-28.408h0a3.076,3.076,0,0,1,3.076,3.076V55.871a3.076,3.076,0,1,1-6.153,0V33.617a3.076,3.076,0,0,1,3.076-3.076"/>
  <path id="Ellipse_1_copy_8" data-name="Ellipse 1 copy 8" class="cls-1" d="M12.993,56.008h0a6.973,6.973,0,0,1-7-6.95V40.963a6.973,6.973,0,0,1,7-6.95v22ZM59,34.013h0a6.974,6.974,0,0,1,7,6.95v8.095a6.974,6.974,0,0,1-7,6.95v-22Z"/>
</svg>
