<svg id="_2_developers" data-name="2 developers" xmlns="http://www.w3.org/2000/svg" width="72" height="72" viewBox="0 0 72 72">
  <metadata><?xpacket begin="﻿" id="W5M0MpCehiHzreSzNTczkc9d"?>
<x:xmpmeta xmlns:x="adobe:ns:meta/" x:xmptk="Adobe XMP Core 5.6-c138 79.159824, 2016/09/14-01:09:01        ">
   <rdf:RDF xmlns:rdf="http://www.w3.org/1999/02/22-rdf-syntax-ns#">
      <rdf:Description rdf:about=""/>
   </rdf:RDF>
</x:xmpmeta>
                                                                                                    
                                                                                                    
                                                                                                    
                                                                                                    
                                                                                                    
                                                                                                    
                                                                                                    
                                                                                                    
                                                                                                    
                                                                                                    
                                                                                                    
                                                                                                    
                                                                                                    
                                                                                                    
                                                                                                    
                                                                                                    
                                                                                                    
                                                                                                    
                                                                                                    
                                                                                                    
                           
<?xpacket end="w"?></metadata>
<defs>
    <style>
      .cls-1 {
        fill: #2b3a4e;
      }

      .cls-1, .cls-2, .cls-3, .cls-4 {
        fill-rule: evenodd;
      }

      .cls-2 {
        fill: #cac8c8;
      }

      .cls-3 {
        fill: #ff6f57;
      }

      .cls-4 {
        fill: #ffd05b;
      }
    </style>
  </defs>
  <path class="cls-1" d="M15.573,47.817L1.763,61.622a6.078,6.078,0,0,0,8.6,8.594l13.81-13.806Z"/>
  <path id="Shape_4_copy_4" data-name="Shape 4 copy 4" class="cls-2" d="M60.134,50.7l7.637-7.634L63.906,39.2a22.656,22.656,0,0,0,2.629-6.309H72V22.057H66.536a22.654,22.654,0,0,0-2.629-6.308l3.864-3.863L60.134,4.229,56.27,8.091a22.671,22.671,0,0,0-6.31-2.629V0H39.145V5.463a22.669,22.669,0,0,0-6.31,2.629L28.948,4.229l-7.637,7.634,3.864,3.863a22.653,22.653,0,0,0-2.629,6.308H17.082V32.845h5.464a22.656,22.656,0,0,0,2.629,6.308l-3.864,3.863,7.637,7.634,3.864-3.863a22.673,22.673,0,0,0,6.31,2.629v5.463H49.937V49.417a22.671,22.671,0,0,0,6.31-2.629ZM32.606,39.382a16.86,16.86,0,1,1,23.847,0A16.854,16.854,0,0,1,32.606,39.382ZM42,20.994h5.988V37.012H42V20.994Z"/>
  <path id="Shape_4_copy" data-name="Shape 4 copy" class="cls-3" d="M23.7,55.92l-7.631-7.629,5.238-5.236,7.631,7.629ZM33.99,26.006h6.019V37.012H33.99V26.006Z"/>
  <path id="Shape_4_copy_2" data-name="Shape 4 copy 2" class="cls-4" d="M50.01,17.015H56v20H50.01v-20Z"/>
</svg>
