<svg id="_3_designers" data-name="3 designers" xmlns="http://www.w3.org/2000/svg" width="72" height="72" viewBox="0 0 72 72">
  <metadata><?xpacket begin="﻿" id="W5M0MpCehiHzreSzNTczkc9d"?>
<x:xmpmeta xmlns:x="adobe:ns:meta/" x:xmptk="Adobe XMP Core 5.6-c138 79.159824, 2016/09/14-01:09:01        ">
   <rdf:RDF xmlns:rdf="http://www.w3.org/1999/02/22-rdf-syntax-ns#">
      <rdf:Description rdf:about=""/>
   </rdf:RDF>
</x:xmpmeta>
                                                                                                    
                                                                                                    
                                                                                                    
                                                                                                    
                                                                                                    
                                                                                                    
                                                                                                    
                                                                                                    
                                                                                                    
                                                                                                    
                                                                                                    
                                                                                                    
                                                                                                    
                                                                                                    
                                                                                                    
                                                                                                    
                                                                                                    
                                                                                                    
                                                                                                    
                                                                                                    
                           
<?xpacket end="w"?></metadata>
<defs>
    <style>
      .cls-1 {
        fill: #9baaab;
      }

      .cls-1, .cls-2, .cls-3, .cls-4, .cls-5, .cls-6, .cls-7 {
        fill-rule: evenodd;
      }

      .cls-2 {
        fill: #ef353c;
      }

      .cls-3 {
        fill: #365457;
      }

      .cls-4 {
        fill: #49cfd9;
      }

      .cls-5 {
        fill: #0294aa;
      }

      .cls-6 {
        fill: #ffd1a9;
      }

      .cls-7 {
        fill: #ff8b29;
      }
    </style>
  </defs>
  <path class="cls-1" d="M54.722,69H18.278a1.526,1.526,0,0,1,0-3.007H54.722A1.526,1.526,0,0,1,54.722,69Z"/>
  <path id="Shape_5_copy" data-name="Shape 5 copy" class="cls-2" d="M17.76,63H11.213a1.227,1.227,0,0,0-1.228,1.227v6.544A1.227,1.227,0,0,0,11.213,72H17.76a1.227,1.227,0,0,0,1.228-1.227V64.228A1.227,1.227,0,0,0,17.76,63Zm43.027,0H54.24a1.227,1.227,0,0,0-1.228,1.227v6.544A1.227,1.227,0,0,0,54.24,72h6.548a1.227,1.227,0,0,0,1.228-1.227V64.228A1.227,1.227,0,0,0,60.788,63Z"/>
  <path id="Shape_5_copy_2" data-name="Shape 5 copy 2" class="cls-3" d="M36,65.987A32.029,32.029,0,0,1,4,34a1.253,1.253,0,0,1,2.507,0,29.493,29.493,0,0,0,58.987,0A1.253,1.253,0,0,1,68,34,32.029,32.029,0,0,1,36,65.987Z"/>
  <path id="Shape_5_copy_4" data-name="Shape 5 copy 4" class="cls-4" d="M46.668-5.587A1.25,1.25,0,0,0,45.741-6h-18.5a1.25,1.25,0,0,0-.921.407,1.283,1.283,0,0,0-.332.961l1.8,24.448a1.264,1.264,0,0,0,1.254,1.179H43.624a1.264,1.264,0,0,0,1.252-1.162L46.993-4.615A1.285,1.285,0,0,0,46.668-5.587Z"/>
  <path id="Shape_5_copy_3" data-name="Shape 5 copy 3" class="cls-5" d="M27.213-6a1.206,1.206,0,0,0-.9.407,1.3,1.3,0,0,0-.324.961l1.756,24.448a1.246,1.246,0,0,0,1.223,1.179H36V-6H27.213Z"/>
  <path id="Shape_5_copy_5" data-name="Shape 5 copy 5" class="cls-6" d="M44.636,18.986H27.364L24,40.257a1.236,1.236,0,0,0,.118.75L34.74,62.014V37.634a3.444,3.444,0,1,1,2.519,0v24.38L47.877,41.006A1.236,1.236,0,0,0,48,40.257Z"/>
  <path id="Shape_5_copy_6" data-name="Shape 5 copy 6" class="cls-7" d="M27.364,18.986L24,40.257a1.236,1.236,0,0,0,.118.75L34.74,62.014V37.634A3.4,3.4,0,0,1,36,31.06V18.986H27.364Z"/>
</svg>
