<?xml version="1.0" encoding="utf-8"?>
<!-- Generator: Adobe Illustrator 20.0.0, SVG Export Plug-In . SVG Version: 6.00 Build 0)  -->
<svg version="1.1" id="Capa_1" xmlns="http://www.w3.org/2000/svg" xmlns:xlink="http://www.w3.org/1999/xlink" x="0px" y="0px"
	 viewBox="0 0 72 72" style="enable-background:new 0 0 72 72;" xml:space="preserve">
<style type="text/css">
	.st0{fill:#CDD6E0;}
	.st1{fill:#ACB3BA;}
	.st2{fill:#F2F2F2;}
	.st3{fill:#40596B;}
	.st4{fill:#FF7058;}
</style>
<circle class="st0" cx="36" cy="35.9" r="35.9"/>
<circle class="st1" cx="36" cy="35.9" r="25.9"/>
<path class="st2" d="M37,0c-0.7,0-1.2,0.7-1.2,1.3V15c0,0.7-0.6,1.3-1.3,1.3c-0.7,0-1.3-0.6-1.3-1.3V1.4C33.2,0.6,32.7,0,32,0
	c-0.7-0.1-1.5,0.6-1.5,1.3V15c0,0.7-0.6,1.3-1.3,1.3l0,0c-0.7,0-1.3-0.6-1.3-1.3V1.4c0-0.7-0.4-1.3-1.2-1.3
	c-0.7-0.1-1.5,0.6-1.5,1.3V15c0,0.7-0.6,1.3-1.3,1.3l0,0c-0.7,0-1.3-0.6-1.3-1.3V1.4c0-0.7-0.4-1.3-1.2-1.3
	c-0.7-0.1-1.5,0.6-1.5,1.3v15.1c0,2.5,1,4.8,2.7,6.6c2.7,2.7,4.2,6.4,3.9,10.2l-3,32.3c0,0.3,0,0.7,0,1c0.3,3.3,3.4,5.7,6.7,5.1
	c3-0.6,4.9-3.4,4.6-6.4l-2.8-32.2c-0.3-3.9,1.2-7.5,3.9-10.2c1.6-1.6,2.7-4,2.7-6.6v-15C38.4,0.6,37.8,0,37,0z"/>
<path class="st3" d="M32,33.7h-5.7l-2.8,31.9c0,0.3,0,0.7,0,1c0.3,3.3,3.4,5.7,6.7,5.1c3-0.6,4.9-3.4,4.6-6.4L32,33.7z"/>
<path class="st2" d="M49.9,0c0,0-6.4,2.5-9.1,21.8c-1,7.9,0.6,15.7,3.6,23c0.3,0.7,0.4,1.6,0.4,2.5L43,66.7c0,0.3,0,0.6,0,0.9
	c0.3,2.5,2.5,4.5,5.2,4.2c2.4-0.3,4-2.8,3.9-5.2L49.9,0z"/>
<path class="st4" d="M44.8,47.3c0,0.1,0,0.1,0,0.3L43,66.9c0,0.3,0,0.6,0,0.9c0.3,2.5,2.5,4.5,5.2,4.2c2.4-0.3,4-2.8,3.9-5.2
	l-0.6-19.3h-6.7L44.8,47.3L44.8,47.3z"/>
</svg>
