<?xml version="1.0" encoding="utf-8"?>
<!-- Generator: Adobe Illustrator 20.0.0, SVG Export Plug-In . SVG Version: 6.00 Build 0)  -->
<svg version="1.1" id="Layer_1" xmlns="http://www.w3.org/2000/svg" xmlns:xlink="http://www.w3.org/1999/xlink" x="0px" y="0px"
	 viewBox="0 0 72 72" style="enable-background:new 0 0 72 72;" xml:space="preserve">
<style type="text/css">
	.st0{fill:#FF3F62;}
	.st1{fill:#C61469;}
	.st2{fill:#00CCB3;}
	.st3{fill:#00EED1;}
</style>
<g>
	<path class="st0" d="M36,11.9c-3.2-4.4-8.4-7.4-14.4-7.4C12,4.6,4,12.5,4,22.1c0,4.3,1.5,8.1,4,11.2l28,34.1V11.9z"/>
	<polygon class="st1" points="36,46 36,67.4 45.7,55.7 45.7,46 	"/>
	<path class="st1" d="M45.7,33.3v-9.6h12.7v9.6H64l0.1-0.1c2.5-3,4-6.9,4-11.2c0-9.8-7.9-17.6-17.6-17.6c-5.9,0-11.2,2.9-14.4,7.4
		v21.5H45.7z"/>
	<polygon class="st2" points="58.3,33.3 58.3,23.7 52,23.7 52,55.7 58.3,55.7 58.3,46 68,46 68,33.3 	"/>
	<polygon class="st3" points="52,23.7 45.7,23.7 45.7,33.3 36,33.3 36,46 45.7,46 45.7,55.7 52,55.7 	"/>
</g>
</svg>
