<svg id="_1high_quality_development" data-name="1high quality development" xmlns="http://www.w3.org/2000/svg" width="72" height="72" viewBox="0 0 72 72">
  <metadata><?xpacket begin="﻿" id="W5M0MpCehiHzreSzNTczkc9d"?>
<x:xmpmeta xmlns:x="adobe:ns:meta/" x:xmptk="Adobe XMP Core 5.6-c138 79.159824, 2016/09/14-01:09:01        ">
   <rdf:RDF xmlns:rdf="http://www.w3.org/1999/02/22-rdf-syntax-ns#">
      <rdf:Description rdf:about=""/>
   </rdf:RDF>
</x:xmpmeta>
                                                                                                    
                                                                                                    
                                                                                                    
                                                                                                    
                                                                                                    
                                                                                                    
                                                                                                    
                                                                                                    
                                                                                                    
                                                                                                    
                                                                                                    
                                                                                                    
                                                                                                    
                                                                                                    
                                                                                                    
                                                                                                    
                                                                                                    
                                                                                                    
                                                                                                    
                                                                                                    
                           
<?xpacket end="w"?></metadata>
<defs>
    <style>
      .cls-1 {
        fill: #1185df;
      }

      .cls-1, .cls-2 {
        fill-rule: evenodd;
      }

      .cls-2 {
        fill: #4dcfdf;
      }
    </style>
  </defs>
  <path class="cls-1" d="M52.689,57.606a3.072,3.072,0,0,1-1.891-.73,2.67,2.67,0,0,1-.09-3.832L65.656,36.984,50.708,21.016a2.752,2.752,0,0,1,.09-3.832,2.665,2.665,0,0,1,3.782.091L71.239,35.159a2.726,2.726,0,0,1,0,3.741L54.67,56.784A2.774,2.774,0,0,1,52.689,57.606Zm-33.318,0a2.774,2.774,0,0,1-1.981-.821L0.731,38.9a2.726,2.726,0,0,1,0-3.741L17.39,17.275a2.588,2.588,0,0,1,3.782-.091,2.67,2.67,0,0,1,.09,3.832L6.4,36.984,21.352,52.952A2.786,2.786,0,0,1,19.371,57.606Z"/>
  <path id="Shape_6_copy" data-name="Shape 6 copy" class="cls-2" d="M32.068,66h-0.45a2.694,2.694,0,0,1-2.251-3.1L37.291,10.34a2.669,2.669,0,0,1,3.062-2.281,2.743,2.743,0,0,1,2.251,3.1L34.679,63.719A2.638,2.638,0,0,1,32.068,66Z"/>
</svg>
