<?xml version="1.0" encoding="utf-8"?>
<!-- Generator: Adobe Illustrator 20.0.0, SVG Export Plug-In . SVG Version: 6.00 Build 0)  -->
<svg version="1.1" id="Layer_1" xmlns="http://www.w3.org/2000/svg" xmlns:xlink="http://www.w3.org/1999/xlink" x="0px" y="0px"
	 viewBox="0 0 72 72" style="enable-background:new 0 0 72 72;" xml:space="preserve">
<style type="text/css">
	.st0{fill:#B4E1FA;}
	.st1{fill:#707487;}
	.st2{fill:#5B5D6E;}
	.st3{fill:#FFD782;}
	.st4{fill:#464655;}
	.st5{fill:#C7CFE2;}
	.st6{fill:#AFB9D2;}
	.st7{fill:#FFC36E;}
	.st8{fill:#959CB3;}
</style>
<polygon class="st0" points="62.1,31 48.4,31 48.4,18.6 59.6,18.6 "/>
<path class="st1" d="M2.5,52.1h67c0.7,0,1.2-0.6,1.2-1.2v-8.7H1.2v8.7C1.2,51.6,1.8,52.1,2.5,52.1z"/>
<polygon class="st2" points="48.4,42.2 48.4,22.3 43.4,22.3 43.4,42.2 1.2,42.2 1.2,47.2 70.8,47.2 70.8,42.2 "/>
<g>
	<path class="st3" d="M1.2,11.2h42.2c0.7,0,1.2,0.6,1.2,1.2v29.8c0,0.7-0.6,1.2-1.2,1.2H1.2c-0.7,0-1.2-0.6-1.2-1.2V12.4
		C0,11.7,0.6,11.2,1.2,11.2z"/>
	<path class="st3" d="M69,31.8l-5.8-1.7l-1.8-9.9c-0.4-2.4-2.5-4.1-4.9-4.1h-8.1c-0.7,0-1.2,0.6-1.2,1.2v22.3h23.6v-5.6
		C70.8,33,70,32.1,69,31.8z M52.1,29.8c-1.4,0-2.5-1.1-2.5-2.5v-6.2c0-0.7,0.6-1.2,1.2-1.2h6.9c0.6,0,1.1,0.4,1.2,1l1.5,8.1
		c0.1,0.4-0.3,0.9-0.7,0.9L52.1,29.8L52.1,29.8z"/>
</g>
<circle class="st4" cx="58.3" cy="53.4" r="7.4"/>
<circle class="st5" cx="58.3" cy="53.4" r="5"/>
<circle class="st6" cx="58.3" cy="53.4" r="1.9"/>
<circle class="st4" cx="12.4" cy="53.4" r="7.4"/>
<circle class="st5" cx="12.4" cy="53.4" r="5"/>
<circle class="st6" cx="12.4" cy="53.4" r="1.9"/>
<path class="st7" d="M48.4,50.9h0.5c0.5,0,0.9-0.3,1.1-0.7l2.7-5.4c0.4-0.8,1.3-1.4,2.2-1.4h6.9c0.9,0,1.8,0.5,2.2,1.4l2.7,5.4
	c0.2,0.4,0.6,0.7,1.1,0.7h3c0.7,0,1.2-0.6,1.2-1.2V41c0-1.4-1.1-2.5-2.5-2.5H47.2v11.2C47.2,50.3,47.7,50.9,48.4,50.9z"/>
<path class="st6" d="M43.4,54.6H31c-0.7,0-1.2-0.6-1.2-1.2v-5c0-0.7,0.6-1.2,1.2-1.2h12.4c0.7,0,1.2,0.6,1.2,1.2v5
	C44.7,54.1,44.1,54.6,43.4,54.6z"/>
<g>
	<path class="st8" d="M34.8,49.7L34.8,49.7c-0.7,0-1.2,0.6-1.2,1.2v3.7H36v-3.7C36,50.2,35.4,49.7,34.8,49.7z"/>
	<path class="st8" d="M39.7,49.7L39.7,49.7c-0.7,0-1.2,0.6-1.2,1.2v3.7H41v-3.7C41,50.2,40.4,49.7,39.7,49.7z"/>
</g>
<path class="st7" d="M41,41H3.7c-0.7,0-1.2-0.6-1.2-1.2l0,0c0-0.7,0.6-1.2,1.2-1.2H41c0.7,0,1.2,0.6,1.2,1.2l0,0
	C42.2,40.4,41.7,41,41,41z"/>
</svg>
