<?xml version="1.0" encoding="utf-8"?>
<!-- Generator: Adobe Illustrator 23.0.1, SVG Export Plug-In . SVG Version: 6.00 Build 0)  -->
<svg version="1.1" id="Layer_1" xmlns="http://www.w3.org/2000/svg" xmlns:xlink="http://www.w3.org/1999/xlink" x="0px" y="0px"
	 viewBox="0 0 90 80" style="enable-background:new 0 0 90 80;" xml:space="preserve">
<style type="text/css">
	.st0{display:none;}
	.st1{display:inline;fill-rule:evenodd;clip-rule:evenodd;fill:#A01212;}
	.st2{display:inline;fill-rule:evenodd;clip-rule:evenodd;fill:#FFFFFF;}
	.st3{display:inline;enable-background:new    ;}
	.st4{fill:#FFFFFF;}
	.st5{display:inline;fill-rule:evenodd;clip-rule:evenodd;fill:#7B7B7B;}
	.st6{display:inline;fill-rule:evenodd;clip-rule:evenodd;fill:#1D6CC5;}
	.st7{fill:#7B7B7B;}
	.st8{fill:#077FC8;}
	.st9{fill:#303030;}
	.st10{fill-rule:evenodd;clip-rule:evenodd;fill:#303030;}
	.st11{fill-rule:evenodd;clip-rule:evenodd;fill:#077FC8;}
	.st12{fill-rule:evenodd;clip-rule:evenodd;fill:#FFFFFF;}
</style>
<g class="st0">
	<rect x="-0.2" y="-0.9" class="st1" width="91.2" height="81.7"/>
</g>
<g id="log">
	<g class="st0">
		<path class="st2" d="M0.6,10h3v12.7h-3C0.6,22.7,0.6,10,0.6,10z M4.1,12.2h2c0.6,0,1.2,0.4,1.4,1v6C7.3,19.6,6.9,20,6.4,20H4.1
			v2.5c0,0,5.7,1,6.4-3.4v-5.9c0,0,0.3-4.1-6.4-3.4C4.1,11.2,4.1,12.2,4.1,12.2L4.1,12.2z M12.7,10h3v12.7h-3V10L12.7,10z M16.2,10
			h6v2.4h-6V10L16.2,10z M16.2,14.8h5.5v2.4h-5.6L16.2,14.8L16.2,14.8z M16.2,20.2h6.1v2.4h-6.2L16.2,20.2L16.2,20.2z M24.6,22.6
			L30.2,10h3l-5.5,12.7h-3.1V22.6z M27,15.5L24.7,10h3l1,2.2L27,15.5z M29.2,20.6l1,2h3l-2.4-5.3L29.2,20.6z M35.8,10v2.4h3
			c0.6,0.1,1,0.6,1,1.2c-0.1,0.6-0.4,1-1,1.2h-3V17h3.4c0.7,0.2,1.1,1,0.9,1.7v0.1c0,0,0.2,1.3-1.4,1.4h-2.8v2.4h3.9
			c0,0,2.8-0.1,3.1-3.6c0,0,0.4-2-2-3.3c1.1-0.4,1.8-1.5,1.8-2.7c-0.1-1.5-1.2-2.8-2.8-3.1L35.8,10L35.8,10z M46.5,22.6L52.1,10h3
			l-5.3,12.7h-3.3V22.6z M44.6,10l3.4,7.7l1.3-2.7l-2-5C47.3,10,44.6,10,44.6,10z M56,10h9.5v2.4H56V10L56,10z M59.4,12.8h2.9v9.8
			h-2.9V12.8L59.4,12.8z M67.8,10h2.9v12.7h-2.9V10L67.8,10z M71.2,10h6v2.4h-6V10L71.2,10z M71.2,14.8h5.5v2.4h-5.5V14.8L71.2,14.8
			z M71.2,20.2h6.1v2.4h-6.1V20.2L71.2,20.2z M87,13.9c0-1-0.8-1.7-1.8-1.7c-0.1,0-0.2,0-0.2,0V10c0,0,4.4,0,4.6,3.9H87z M84.6,12.2
			V10c0,0-5.2-0.1-4.7,4.3c0,0,0.1,2.4,4.1,3c0,0,3.4,0.3,3,1.7c0,0,0.3,1.6-2,1.3v2.3c0,0,3.3,0.2,4.5-2.3c0,0,1.7-3.2-2.3-5.1
			c0,0-3.1-0.4-3.4-1.4C83.7,13.8,83,12.7,84.6,12.2L84.6,12.2z M82.3,18.4c0,0-0.2,1.9,2.2,1.9v2.3c0,0-4.8,0.5-4.9-4.2L82.3,18.4
			L82.3,18.4z"/>
		<g class="st3">
			<path class="st4" d="M68.2,24.2v4.7h-0.3v-4.7H68.2z"/>
			<path class="st4" d="M69.4,26.6v2.3h-0.3V26h0.3v0.2c0.2-0.2,0.5-0.4,0.8-0.4s0.6,0.1,0.8,0.3s0.3,0.5,0.3,0.8v1.9H71V27
				c0-0.2-0.1-0.5-0.3-0.6c-0.2-0.2-0.4-0.3-0.6-0.3s-0.5,0.1-0.6,0.3C69.5,26.4,69.4,26.5,69.4,26.6z"/>
			<path class="st4" d="M72.6,26.2v2.6h-0.3v-2.6H72V26h0.3v-0.8c0-0.2,0.1-0.4,0.3-0.6c0.2-0.1,0.3-0.2,0.6-0.2
				c0.1,0,0.2,0,0.3,0.1l-0.1,0.2c-0.1,0-0.2-0.1-0.2-0.1c-0.1,0-0.3,0.1-0.4,0.2s-0.2,0.2-0.2,0.4V26h0.6v0.3L72.6,26.2L72.6,26.2z
				"/>
			<path class="st4" d="M75.2,25.7c0.4,0,0.8,0.2,1.1,0.5c0.3,0.3,0.5,0.7,0.5,1.1s-0.2,0.8-0.5,1.1C76,28.8,75.6,29,75.2,29
				s-0.8-0.2-1.1-0.5c-0.3-0.3-0.5-0.7-0.5-1.1s0.2-0.8,0.5-1.1C74.4,25.9,74.7,25.7,75.2,25.7z M74.2,26.4
				c-0.3,0.3-0.4,0.6-0.4,0.9s0.1,0.7,0.4,0.9c0.3,0.3,0.6,0.4,0.9,0.4c0.4,0,0.7-0.1,0.9-0.4c0.3-0.3,0.4-0.6,0.4-0.9
				s-0.1-0.7-0.4-0.9S75.6,26,75.2,26C74.8,26,74.5,26.1,74.2,26.4z"/>
			<path class="st4" d="M77.9,26v-1.2h0.3V26h0.6v0.3h-0.6v2.6h-0.3v-2.6h-0.6V26H77.9z"/>
			<path class="st4" d="M80.1,28.3c0.3,0.2,0.5,0.3,0.9,0.3s0.7-0.1,0.9-0.4l0.1-0.1l0.3,0.1c-0.1,0.1-0.1,0.1-0.2,0.2
				C81.8,28.8,81.4,29,81,29s-0.8-0.2-1.1-0.5c-0.3-0.3-0.5-0.7-0.5-1.1s0.2-0.8,0.5-1.1c0.3-0.3,0.7-0.5,1.1-0.5s0.7,0.1,1,0.3
				l0.1,0.1c0,0,0,0,0.1,0.1L82,26.5L80.1,28.3z M81.8,26.3C81.5,26.1,81.3,26,81,26c-0.4,0-0.7,0.1-0.9,0.4
				c-0.3,0.3-0.4,0.6-0.4,0.9s0.1,0.6,0.3,0.8L81.8,26.3z"/>
			<path class="st4" d="M85.5,28.2l0.3,0.1c-0.1,0.1-0.1,0.1-0.2,0.2c-0.3,0.3-0.7,0.5-1.1,0.5s-0.8-0.2-1.1-0.5
				c-0.3-0.3-0.5-0.7-0.5-1.1s0.2-0.8,0.5-1.1c0.3-0.3,0.7-0.5,1.1-0.5s0.8,0.2,1.1,0.5c0.1,0.1,0.1,0.1,0.2,0.2l-0.3,0.1l-0.1-0.1
				c-0.3-0.3-0.6-0.4-0.9-0.4s-0.7,0.1-0.9,0.4c-0.3,0.3-0.4,0.6-0.4,0.9s0.1,0.7,0.4,0.9c0.3,0.3,0.6,0.4,0.9,0.4s0.7-0.1,0.9-0.4
				C85.4,28.3,85.4,28.2,85.5,28.2z"/>
			<path class="st4" d="M86.5,24.2h0.3v2c0.2-0.2,0.5-0.3,0.8-0.3s0.6,0.1,0.8,0.3s0.3,0.5,0.3,0.8v1.9h-0.3V27
				c0-0.2-0.1-0.5-0.3-0.6c-0.2-0.2-0.4-0.3-0.6-0.3s-0.5,0.1-0.6,0.3c-0.1,0.1-0.1,0.2-0.2,0.2v2.3h-0.3L86.5,24.2L86.5,24.2z"/>
		</g>
	</g>
	<g class="st0">
		<path id="Rectangle_1_copy" class="st5" d="M35.8,47v2.4h3c0.6,0.1,1,0.6,1,1.2c-0.1,0.6-0.4,1-1,1.2h-3V54h3.4
			c0.7,0.2,1.1,1,0.9,1.7v0.1c0,0,0.2,1.3-1.4,1.4h-2.8v2.4h3.9c0,0,2.8-0.1,3.1-3.6c0,0,0.4-2-2-3.3c1.1-0.4,1.8-1.5,1.8-2.7
			c-0.1-1.5-1.2-2.8-2.8-3.1L35.8,47L35.8,47z M46.5,59.6L52.1,47h3l-5.3,12.7h-3.3V59.6z M44.6,47l3.4,7.7l1.3-2.7l-2-5H44.6
			L44.6,47z M56,47h9.5v2.4H56V47L56,47z M59.4,49.8h2.9v9.8h-2.9V49.8L59.4,49.8z M67.8,47h2.9v12.7h-2.9V47L67.8,47z M71.2,47h6
			v2.4h-6V47L71.2,47z M71.2,51.8h5.5v2.4h-5.5V51.8L71.2,51.8z M71.2,57.2h6.1v2.4h-6.1V57.2L71.2,57.2z M87,50.9
			c0-1-0.8-1.7-1.8-1.7c-0.1,0-0.2,0-0.2,0V47c0,0,4.4,0,4.6,3.9H87z M84.6,49.2V47c0,0-5.2-0.1-4.7,4.3c0,0,0.1,2.4,4.1,3
			c0,0,3.4,0.3,3,1.7c0,0,0.3,1.6-2,1.3v2.3c0,0,3.3,0.2,4.5-2.3c0,0,1.7-3.2-2.3-5.1c0,0-3.1-0.4-3.4-1.4
			C83.7,50.8,83,49.7,84.6,49.2L84.6,49.2z M82.3,55.4c0,0-0.2,1.9,2.2,1.9v2.3c0,0-4.8,0.5-4.9-4.2H82.3L82.3,55.4z"/>
		<path id="Rectangle_1_copy_2" class="st6" d="M0.6,47h3v12.7h-3C0.6,59.7,0.6,47,0.6,47z M4.1,49.2h2c0.6,0,1.2,0.4,1.4,1v6
			C7.3,56.6,6.9,57,6.4,57H4.1v2.5c0,0,5.7,1,6.4-3.4v-5.9c0,0,0.3-4.1-6.4-3.4C4.1,48.2,4.1,49.2,4.1,49.2L4.1,49.2z M12.7,47h3
			v12.7h-3V47L12.7,47z M16.2,47h6v2.4h-6V47L16.2,47z M16.2,51.8h5.5v2.4h-5.6L16.2,51.8L16.2,51.8z M16.2,57.2h6.1v2.4h-6.2
			L16.2,57.2L16.2,57.2z M24.6,59.6L30.2,47h3l-5.6,12.7h-3V59.6z M27,52.5L24.7,47h3l1,2.2L27,52.5z M29.2,57.6l1,2h3l-2.4-5.3
			L29.2,57.6z"/>
		<g class="st3">
			<path class="st7" d="M68.2,61.2v4.7h-0.3v-4.7H68.2z"/>
			<path class="st7" d="M69.4,63.6v2.3h-0.3V63h0.3v0.2c0.2-0.2,0.5-0.4,0.8-0.4s0.6,0.1,0.8,0.3s0.3,0.5,0.3,0.8v1.9H71V64
				c0-0.2-0.1-0.5-0.3-0.6c-0.2-0.2-0.4-0.3-0.6-0.3s-0.5,0.1-0.6,0.3C69.5,63.4,69.4,63.5,69.4,63.6z"/>
			<path class="st7" d="M72.6,63.2v2.6h-0.3v-2.6H72V63h0.3v-0.8c0-0.2,0.1-0.4,0.3-0.6c0.2-0.1,0.3-0.2,0.6-0.2
				c0.1,0,0.2,0,0.3,0.1l-0.1,0.2c-0.1,0-0.2-0.1-0.2-0.1c-0.1,0-0.3,0.1-0.4,0.2c-0.1,0.1-0.2,0.2-0.2,0.4V63h0.6v0.3L72.6,63.2
				L72.6,63.2z"/>
			<path class="st7" d="M75.2,62.7c0.4,0,0.8,0.2,1.1,0.5c0.3,0.3,0.5,0.7,0.5,1.1s-0.2,0.8-0.5,1.1C76,65.8,75.6,66,75.2,66
				s-0.8-0.2-1.1-0.5c-0.3-0.3-0.5-0.7-0.5-1.1s0.2-0.8,0.5-1.1C74.4,62.9,74.7,62.7,75.2,62.7z M74.2,63.4
				c-0.3,0.3-0.4,0.6-0.4,0.9s0.1,0.7,0.4,0.9c0.3,0.3,0.6,0.4,0.9,0.4c0.4,0,0.7-0.1,0.9-0.4c0.3-0.3,0.4-0.6,0.4-0.9
				s-0.1-0.7-0.4-0.9S75.6,63,75.2,63C74.8,63,74.5,63.1,74.2,63.4z"/>
			<path class="st7" d="M77.9,63v-1.2h0.3V63h0.6v0.3h-0.6v2.6h-0.3v-2.6h-0.6V63H77.9z"/>
			<path class="st7" d="M80.1,65.3c0.3,0.2,0.5,0.3,0.9,0.3s0.7-0.1,0.9-0.4l0.1-0.1l0.3,0.1c-0.1,0.1-0.1,0.1-0.2,0.2
				C81.8,65.8,81.4,66,81,66s-0.8-0.2-1.1-0.5c-0.3-0.3-0.5-0.7-0.5-1.1s0.2-0.8,0.5-1.1s0.7-0.5,1.1-0.5s0.7,0.1,1,0.3l0.1,0.1
				c0,0,0,0,0.1,0.1L82,63.5L80.1,65.3z M81.8,63.3C81.5,63.1,81.3,63,81,63c-0.4,0-0.7,0.1-0.9,0.4c-0.3,0.3-0.4,0.6-0.4,0.9
				s0.1,0.6,0.3,0.8L81.8,63.3z"/>
			<path class="st7" d="M85.5,65.2l0.3,0.1c-0.1,0.1-0.1,0.1-0.2,0.2c-0.3,0.3-0.7,0.5-1.1,0.5s-0.8-0.2-1.1-0.5
				c-0.3-0.3-0.5-0.7-0.5-1.1s0.2-0.8,0.5-1.1s0.7-0.5,1.1-0.5s0.8,0.2,1.1,0.5c0.1,0.1,0.1,0.1,0.2,0.2l-0.3,0.1l-0.1-0.1
				c-0.3-0.3-0.6-0.4-0.9-0.4s-0.7,0.1-0.9,0.4c-0.3,0.3-0.4,0.6-0.4,0.9s0.1,0.7,0.4,0.9c0.3,0.3,0.6,0.4,0.9,0.4
				S85.2,65.6,85.5,65.2C85.4,65.3,85.4,65.2,85.5,65.2z"/>
			<path class="st7" d="M86.5,61.2h0.3v2c0.2-0.2,0.5-0.3,0.8-0.3s0.6,0.1,0.8,0.3s0.3,0.5,0.3,0.8v1.9h-0.3V64
				c0-0.2-0.1-0.5-0.3-0.6c-0.2-0.2-0.4-0.3-0.6-0.3s-0.5,0.1-0.6,0.3c-0.1,0.1-0.1,0.2-0.2,0.2v2.3h-0.3L86.5,61.2L86.5,61.2z"/>
		</g>
	</g>
</g>
<g>
	<g>
		<g>
			<path class="st8" d="M22.5,58.3h3.4l1.3-1.8l-1.7-2.3L22.5,58.3z M12.4,49.7h8.9v-2.4h-8.9V49.7z M27.2,49.1l-1.3-1.8h-3.4l3,4.1
				L27.2,49.1z M29.8,52.8l4-5.5h-3.4l-2.3,3.2l0,0l-1.7,2.3l2.8,3.8l0,0l1.3,1.7h3.4L29.8,52.8z M12.4,58.3h8.9v-2.5h-8.9V58.3z
				 M12.4,53.7h8.9v-2.4h-8.9V53.7z"/>
		</g>
	</g>
</g>
<g>
	<path class="st9" d="M68.3,60.6v4.9H68v-4.9H68.3z"/>
	<path class="st9" d="M69.5,63.2v2.3h-0.2v-3h0.2v0.2c0.2-0.2,0.6-0.4,0.9-0.4c0.3,0,0.6,0.1,0.9,0.3c0.2,0.2,0.3,0.5,0.3,0.8v2
		h-0.2v-2c0-0.2-0.1-0.5-0.2-0.6c-0.2-0.2-0.4-0.2-0.6-0.2s-0.5,0.1-0.6,0.2C69.7,62.9,69.6,63,69.5,63.2z"/>
	<path class="st9" d="M73,62.8v2.7h-0.2v-2.7h-0.3v-0.2h0.3v-0.8c0-0.2,0.1-0.4,0.2-0.6c0.2-0.2,0.3-0.2,0.6-0.2
		c0.1,0,0.2,0,0.3,0.1l-0.1,0.2c-0.1,0-0.2-0.1-0.2-0.1c-0.2,0-0.3,0.1-0.4,0.2C73,61.4,73,61.5,73,61.7v0.8h0.6v0.2H73z"/>
	<path class="st9" d="M75.6,62.2c0.5,0,0.9,0.2,1.2,0.5c0.3,0.3,0.5,0.7,0.5,1.2s-0.2,0.9-0.5,1.2c-0.3,0.3-0.7,0.5-1.2,0.5
		s-0.9-0.2-1.2-0.5s-0.5-0.7-0.5-1.2s0.2-0.9,0.5-1.2S75.1,62.2,75.6,62.2z M74.6,62.9c-0.3,0.3-0.4,0.6-0.4,1c0,0.4,0.2,0.8,0.4,1
		c0.3,0.3,0.6,0.4,1,0.4s0.8-0.2,1-0.4s0.4-0.6,0.4-1c0-0.4-0.2-0.8-0.4-1c-0.3-0.3-0.6-0.4-1-0.4C75.3,62.4,74.9,62.5,74.6,62.9z"
		/>
	<path class="st9" d="M78.4,62.4v-1.3h0.2v1.3h0.6v0.2h-0.6v2.7h-0.2v-2.7h-0.6v-0.2H78.4z"/>
	<path class="st9" d="M87.3,60.6h0.2v2c0.2-0.2,0.5-0.3,0.8-0.3s0.6,0.1,0.9,0.3c0.2,0.2,0.3,0.5,0.3,0.8v2h-0.2v-2
		c0-0.2-0.1-0.5-0.2-0.6c-0.2-0.2-0.4-0.2-0.6-0.2c-0.2,0-0.5,0.1-0.6,0.2c-0.1,0.1-0.2,0.2-0.2,0.2v2.4h-0.2L87.3,60.6L87.3,60.6z"
		/>
</g>
<path class="st10" d="M82,50.5c0,0.6,0.3,0.9,0.5,1c0.1,0.1,0.3,0.1,0.4,0.1c0.5,0,1.1,0,1.6,0c-0.5,0.6-2,2.3-2,2.3
	s-1.9-0.3-2.7-1.6c-0.5-0.8-0.5-1.7-0.3-2.6c0.2-0.7,0.6-1.4,1.2-1.8c0.9-0.6,2.2-0.7,3.3-0.7c1.8,0,3.5,0,5.3,0c0,0.7,0,1.5,0,2.2
	c-2.1,0-4.3,0-6.4,0C82.7,49.6,82,49.8,82,50.5z M69.1,55.9h8.9v2.3h-8.9V55.9z M69.1,51.3h8.9v2.3h-8.9V51.3z M69.1,47.2h8.9v2.3
	h-8.9V47.2z M64.5,49.6H61l0,0h-2.9v-2.3h9.4v2.3H64.5L64.5,49.6z M55.7,57.1c-0.2,0.3-0.5,0.6-0.8,0.8c-0.8,0.5-1.7,0.5-2.6,0.4
	c-1.8,0-3.5,0-5.3-0.1c-0.1,0-0.5,0-0.6-0.1c-0.1-0.1,0-0.5,0-0.6c0-0.5,0-1.1,0-1.6c2.1,0,4.1,0,6.2,0c0.3,0,0.7,0,0.8-0.3
	c0.1-0.1,0.1-0.3,0.1-0.5c0-2.6,0-5.3,0-7.9c1,0,1.9,0,2.9,0c0,2,0,3.9,0.1,5.9c0,0.9,0,1.8-0.2,2.6C56.2,56.2,56,56.7,55.7,57.1z
	 M48.1,53.6c-0.1-0.1-0.3-0.1-0.4-0.2c-0.7-0.5-1.2-1.3-1.4-2.1c-0.2-1-0.1-2.1-0.1-3.1c0-0.1,0-1,0-1c0.9,0,1.8,0,2.7,0
	c0,1,0,1.9,0,2.9c0,0.3,0,0.6,0.1,0.8s0.3,0.5,0.6,0.6c0.1,0,0.2,0,0.3,0c0.7,0,1.4,0,2.1,0c0,0.8,0,1.6,0,2.3c-0.8,0-1.5,0-2.2,0
	C49.2,53.9,48.6,53.9,48.1,53.6z M44.8,54.6c0.1,0.7-0.1,1.4-0.4,2c-0.5,0.8-1.4,1.2-2.3,1.5c-0.9,0.2-1.8,0.2-2.7,0.2
	c-1.3,0-4.8,0-4.8,0s0-1.8,0-2.4c2.2,0,4.4,0,6.6,0c0.3,0,0.5,0,0.8-0.2c0.3-0.2,0.4-0.5,0.4-0.8c0-1.2-0.8-1.2-1.1-1.2
	c-2.2,0-4.4,0-6.5,0c0-0.8,0-1.7,0-2.5c2,0,4.1,0,6.1,0c0.4,0,0.9,0,1.1-0.1c0.2-0.1,0.4-0.4,0.3-1c-0.1-0.3-0.5-0.3-0.8-0.3
	c-2.3,0-4.5,0-6.8,0c0-0.8,0-1.6,0-2.4c1.8,0,3.6,0,5.3,0c0.8,0,1.7,0,2.5,0.2c0.8,0.2,1.6,0.7,2,1.4c0.3,0.6,0.4,1.3,0.3,1.9
	c-0.1,0.6-0.4,1.3-0.8,1.8c0.5,0.5,0.9,1.2,1,2C44.8,54.5,44.8,54.6,44.8,54.6z M34.6,53.6L34.6,53.6L34.6,53.6L34.6,53.6L34.6,53.6
	z M64.2,58.2h-2.9v-6.9h2.9V58.2z M87.1,54.9c0-0.9-0.9-1-1.2-1c-0.3,0-0.6,0-0.9,0c0.6-0.7,1.1-1.4,1.7-2c0.1-0.1,0.2-0.3,0.2-0.3
	s0.2,0.1,0.3,0.1c1.2,0.3,2.2,1.3,2.5,2.5c0.2,0.9,0,1.9-0.6,2.8c-0.3,0.4-0.7,0.8-1.2,1.1c-0.5,0.2-1.1,0.2-1.7,0.2
	c-0.8,0-1.6,0-2.4,0c-0.8,0-1.6,0-2.4,0c-0.4,0-1.6,0-1.6,0l0-2.3c0,0,4,0,6,0C86,55.9,87.1,55.9,87.1,54.9z"/>
<path class="st11" d="M10.8,54.8c-0.1,0.3-0.2,0.6-0.3,0.8c-0.5,1.1-1.5,2-2.7,2.5c-0.7,0.2-1.5,0.3-2.2,0.3c-0.8,0-2.6,0-2.6,0
	l-0.4,0v-0.6H1.9v-0.6h0.6l0-0.6l-0.6,0l0-0.6l-0.6,0l0,0.5l-0.6,0v-0.6H0.2v-0.6l0.5,0l0,0.6l0.6,0v-0.6l0.6,0v0.6c0,0,1.8,0,2.7,0
	s1.8-0.1,2.6-0.6c0.8-0.5,1.3-1.5,1.4-2.4c0-1-0.4-1.9-1-2.6c-0.3-0.3-0.7-0.6-1.2-0.7c-0.3-0.1-0.6-0.1-1-0.1c-1.1,0-3.5,0-3.5,0
	v0.6H1.3v-0.6l0.6,0v-0.6H1.3v0.6H0.8v-0.6h0.6v-0.6H0.8l0-0.6l-0.6,0v-0.5l0.5,0l0,0.5l0.6,0l0-0.5c0,0,2.5,0,3.8,0
	c1.3,0,2.6,0.2,3.6,0.9c1.2,0.8,2,2.2,2.2,3.7C11.1,52.9,11.1,53.9,10.8,54.8z M1.9,47.9H1.3l0,0.6h0.6V47.9z M2.5,48.5H1.9v0.6h0.6
	V48.5z M0.8,50.8v-0.6h0.6v0.6L0.8,50.8z M1.3,52H0.8v-0.6h0.6V52z M1.3,53.1H0.8l0-0.6h0.6L1.3,53.1z M1.3,54.3H0.8v-0.6l0.6,0
	L1.3,54.3z M1.3,55.5l-0.6,0l0-0.6h0.6L1.3,55.5z M1.3,51.3v-0.6h0.6v0.6H1.3z M1.3,52.5V52h0.6v0.6H1.3z M1.3,53.7v-0.6h0.6v0.6
	L1.3,53.7z M1.3,54.9v-0.6h0.6v0.6H1.3z M1.3,57.8H0.8l0-0.6h0.6L1.3,57.8z M1.3,56.6l0.6,0l0,0.6H1.3L1.3,56.6z M1.3,58.3v-0.6h0.6
	l0,0.6H1.3z M0.2,58.3v-0.6h0.5v0.6H0.2z M0.2,57.2v-0.6l0.6,0l0,0.6H0.2z M0.2,54.9v-0.6h0.5v0.6H0.2z M0.2,53.7v-0.6l0.5,0v0.6
	L0.2,53.7z M0.2,52.5V52h0.5v0.6H0.2z M0.2,51.3v-0.6l0.5,0v0.6H0.2z M0.2,49.6h0.5v0.6H0.2V49.6z M0.8,49.1H0.2l0-0.6l0.5,0V49.1z"
	/>
<path class="st9" d="M82.7,64.8c-0.3,0.3-0.7,0.6-1.1,0.6c-0.4,0-0.7-0.1-1-0.4l2.1-2c0,0,0,0,0,0l0.2-0.2c-0.3-0.4-0.8-0.6-1.3-0.6
	c-0.9,0-1.7,0.8-1.7,1.7s0.8,1.7,1.7,1.7c0.6,0,1.1-0.3,1.4-0.7L82.7,64.8z M81.6,62.4c0.4,0,0.7,0.2,0.9,0.4l-2.1,2
	c-0.2-0.2-0.3-0.6-0.3-0.9C80.1,63,80.7,62.4,81.6,62.4z"/>
<path class="st9" d="M86.3,64.8c-0.3,0.3-0.7,0.5-1.1,0.5c-0.8,0-1.4-0.7-1.4-1.4c0-0.8,0.6-1.4,1.4-1.4c0.4,0,0.8,0.2,1.1,0.5
	l0.3-0.1c-0.3-0.4-0.8-0.7-1.4-0.7c-0.9,0-1.7,0.8-1.7,1.7c0,0.9,0.8,1.7,1.7,1.7c0.6,0,1.1-0.3,1.4-0.7L86.3,64.8z"/>
<g>
	<g>
		<g>
			<path class="st4" d="M22.5,21.7h3.4l1.3-1.8l-1.7-2.3L22.5,21.7z M12.4,13.1h8.9v-2.4h-8.9V13.1z M27.2,12.5l-1.3-1.8h-3.4l3,4.1
				L27.2,12.5z M29.8,16.2l4-5.5h-3.4l-2.3,3.2l0,0l-1.7,2.3l2.8,3.8l0,0l1.3,1.7h3.4L29.8,16.2z M12.4,21.7h8.9v-2.5h-8.9V21.7z
				 M12.4,17.1h8.9v-2.4h-8.9V17.1z"/>
		</g>
	</g>
</g>
<g>
	<path class="st4" d="M68.3,24v4.9H68V24H68.3z"/>
	<path class="st4" d="M69.5,26.6v2.3h-0.2v-3h0.2v0.2c0.2-0.2,0.6-0.4,0.9-0.4c0.3,0,0.6,0.1,0.9,0.3c0.2,0.2,0.3,0.5,0.3,0.8v2
		h-0.2v-2c0-0.2-0.1-0.5-0.2-0.6c-0.2-0.2-0.4-0.2-0.6-0.2S70,26,69.8,26.2C69.7,26.3,69.6,26.4,69.5,26.6z"/>
	<path class="st4" d="M73,26.2v2.7h-0.2v-2.7h-0.3v-0.2h0.3v-0.8c0-0.2,0.1-0.4,0.2-0.6c0.2-0.2,0.3-0.2,0.6-0.2
		c0.1,0,0.2,0,0.3,0.1l-0.1,0.2c-0.1,0-0.2-0.1-0.2-0.1c-0.2,0-0.3,0.1-0.4,0.2C73,24.8,73,24.9,73,25.1v0.8h0.6v0.2H73z"/>
	<path class="st4" d="M75.6,25.6c0.5,0,0.9,0.2,1.2,0.5c0.3,0.3,0.5,0.7,0.5,1.2s-0.2,0.9-0.5,1.2c-0.3,0.3-0.7,0.5-1.2,0.5
		s-0.9-0.2-1.2-0.5c-0.3-0.3-0.5-0.7-0.5-1.2s0.2-0.9,0.5-1.2C74.7,25.8,75.1,25.6,75.6,25.6z M74.6,26.3c-0.3,0.3-0.4,0.6-0.4,1
		c0,0.4,0.2,0.8,0.4,1c0.3,0.3,0.6,0.4,1,0.4s0.8-0.2,1-0.4c0.3-0.3,0.4-0.6,0.4-1c0-0.4-0.2-0.8-0.4-1c-0.3-0.3-0.6-0.4-1-0.4
		C75.3,25.8,74.9,25.9,74.6,26.3z"/>
	<path class="st4" d="M78.4,25.8v-1.3h0.2v1.3h0.6v0.2h-0.6v2.7h-0.2v-2.7h-0.6v-0.2H78.4z"/>
	<path class="st4" d="M87.3,24h0.2v2c0.2-0.2,0.5-0.3,0.8-0.3s0.6,0.1,0.9,0.3c0.2,0.2,0.3,0.5,0.3,0.8v2h-0.2v-2
		c0-0.2-0.1-0.5-0.2-0.6c-0.2-0.2-0.4-0.2-0.6-0.2c-0.2,0-0.5,0.1-0.6,0.2c-0.1,0.1-0.2,0.2-0.2,0.2v2.4h-0.2L87.3,24L87.3,24z"/>
</g>
<path class="st12" d="M82,13.9c0,0.6,0.3,0.9,0.5,1c0.1,0.1,0.3,0.1,0.4,0.1c0.5,0,1.1,0,1.6,0c-0.5,0.6-2,2.3-2,2.3
	s-1.9-0.3-2.7-1.6c-0.5-0.8-0.5-1.7-0.3-2.6c0.2-0.7,0.6-1.4,1.2-1.8c0.9-0.6,2.2-0.7,3.3-0.7c1.8,0,3.5,0,5.3,0c0,0.7,0,1.5,0,2.2
	c-2.1,0-4.3,0-6.4,0C82.7,13,82,13.2,82,13.9z M69.1,19.3h8.9v2.3h-8.9V19.3z M69.1,14.7h8.9v2.3h-8.9V14.7z M69.1,10.6h8.9V13h-8.9
	V10.6z M64.5,13H61l0,0h-2.9v-2.3h9.4V13H64.5L64.5,13z M55.7,20.5c-0.2,0.3-0.5,0.6-0.8,0.8c-0.8,0.5-1.7,0.5-2.6,0.4
	c-1.8,0-3.5,0-5.3-0.1c-0.1,0-0.5,0-0.6-0.1c-0.1-0.1,0-0.5,0-0.6c0-0.5,0-1.1,0-1.6c2.1,0,4.1,0,6.2,0c0.3,0,0.7,0,0.8-0.3
	c0.1-0.1,0.1-0.3,0.1-0.5c0-2.6,0-5.3,0-7.9c1,0,1.9,0,2.9,0c0,2,0,3.9,0.1,5.9c0,0.9,0,1.8-0.2,2.6C56.2,19.6,56,20.1,55.7,20.5z
	 M48.1,17c-0.1-0.1-0.3-0.1-0.4-0.2c-0.7-0.5-1.2-1.3-1.4-2.1c-0.2-1-0.1-2.1-0.1-3.1c0-0.1,0-1,0-1c0.9,0,1.8,0,2.7,0
	c0,1,0,1.9,0,2.9c0,0.3,0,0.6,0.1,0.8c0.1,0.3,0.3,0.5,0.6,0.6c0.1,0,0.2,0,0.3,0c0.7,0,1.4,0,2.1,0c0,0.8,0,1.6,0,2.3
	c-0.8,0-1.5,0-2.2,0C49.2,17.3,48.6,17.3,48.1,17z M44.8,18c0.1,0.7-0.1,1.4-0.4,2c-0.5,0.8-1.4,1.2-2.3,1.5
	c-0.9,0.2-1.8,0.2-2.7,0.2c-1.3,0-4.8,0-4.8,0s0-1.8,0-2.4c2.2,0,4.4,0,6.6,0c0.3,0,0.5,0,0.8-0.2c0.3-0.2,0.4-0.5,0.4-0.8
	c0-1.2-0.8-1.2-1.1-1.2c-2.2,0-4.4,0-6.5,0c0-0.8,0-1.7,0-2.5c2,0,4.1,0,6.1,0c0.4,0,0.9,0,1.1-0.1c0.2-0.1,0.4-0.4,0.3-1
	c-0.1-0.3-0.5-0.3-0.8-0.3c-2.3,0-4.5,0-6.8,0c0-0.8,0-1.6,0-2.4c1.8,0,3.6,0,5.3,0c0.8,0,1.7,0,2.5,0.2c0.8,0.2,1.6,0.7,2,1.4
	c0.3,0.6,0.4,1.3,0.3,1.9c-0.1,0.6-0.4,1.3-0.8,1.8c0.5,0.5,0.9,1.2,1,2C44.8,17.9,44.8,18,44.8,18z M34.6,17L34.6,17L34.6,17
	L34.6,17L34.6,17z M64.2,21.6h-2.9v-6.9h2.9V21.6z M87.1,18.3c0-0.9-0.9-1-1.2-1c-0.3,0-0.6,0-0.9,0c0.6-0.7,1.1-1.4,1.7-2
	c0.1-0.1,0.2-0.3,0.2-0.3s0.2,0.1,0.3,0.1c1.2,0.3,2.2,1.3,2.5,2.5c0.2,0.9,0,1.9-0.6,2.8c-0.3,0.4-0.7,0.8-1.2,1.1
	c-0.5,0.2-1.1,0.2-1.7,0.2c-0.8,0-1.6,0-2.4,0c-0.8,0-1.6,0-2.4,0c-0.4,0-1.6,0-1.6,0l0-2.3c0,0,4,0,6,0
	C86,19.3,87.1,19.3,87.1,18.3z"/>
<path class="st12" d="M10.8,18.2c-0.1,0.3-0.2,0.6-0.3,0.8c-0.5,1.1-1.5,2-2.7,2.5c-0.7,0.2-1.5,0.3-2.2,0.3c-0.8,0-2.6,0-2.6,0
	l-0.4,0v-0.6H1.9v-0.6h0.6l0-0.6l-0.6,0l0-0.6l-0.6,0l0,0.5l-0.6,0v-0.6H0.2v-0.6l0.5,0l0,0.6l0.6,0v-0.6l0.6,0v0.6c0,0,1.8,0,2.7,0
	s1.8-0.1,2.6-0.6c0.8-0.5,1.3-1.5,1.4-2.4s-0.4-1.9-1-2.6c-0.3-0.3-0.7-0.6-1.2-0.7c-0.3-0.1-0.6-0.1-1-0.1c-1.1,0-3.5,0-3.5,0v0.6
	H1.3V13l0.6,0v-0.6H1.3V13H0.8v-0.6h0.6v-0.6H0.8l0-0.6l-0.6,0v-0.5l0.5,0l0,0.5l0.6,0l0-0.5c0,0,2.5,0,3.8,0c1.3,0,2.6,0.2,3.6,0.9
	c1.2,0.8,2,2.2,2.2,3.7C11.1,16.3,11.1,17.3,10.8,18.2z M1.9,11.3H1.3l0,0.6h0.6V11.3z M2.5,11.9H1.9v0.6h0.6V11.9z M0.8,14.2v-0.6
	h0.6v0.6L0.8,14.2z M1.3,15.4H0.8v-0.6h0.6V15.4z M1.3,16.5H0.8l0-0.6h0.6L1.3,16.5z M1.3,17.7H0.8v-0.6l0.6,0L1.3,17.7z M1.3,18.9
	l-0.6,0l0-0.6h0.6L1.3,18.9z M1.3,14.7v-0.6h0.6v0.6H1.3z M1.3,15.9v-0.6h0.6v0.6H1.3z M1.3,17.1v-0.6h0.6v0.6L1.3,17.1z M1.3,18.3
	v-0.6h0.6v0.6H1.3z M1.3,21.2H0.8l0-0.6h0.6L1.3,21.2z M1.3,20l0.6,0l0,0.6H1.3L1.3,20z M1.3,21.7v-0.6h0.6l0,0.6H1.3z M0.2,21.7
	v-0.6h0.5v0.6H0.2z M0.2,20.6V20l0.6,0l0,0.6H0.2z M0.2,18.3v-0.6h0.5v0.6H0.2z M0.2,17.1v-0.6l0.5,0v0.6L0.2,17.1z M0.2,15.9v-0.6
	h0.5v0.6H0.2z M0.2,14.7v-0.6l0.5,0v0.6H0.2z M0.2,13h0.5v0.6H0.2V13z M0.8,12.5H0.2l0-0.6l0.5,0V12.5z"/>
<path class="st4" d="M82.7,28.2c-0.3,0.3-0.7,0.6-1.1,0.6c-0.4,0-0.7-0.1-1-0.4l2.1-2c0,0,0,0,0,0l0.2-0.2c-0.3-0.4-0.8-0.6-1.3-0.6
	c-0.9,0-1.7,0.8-1.7,1.7s0.8,1.7,1.7,1.7c0.6,0,1.1-0.3,1.4-0.7L82.7,28.2z M81.6,25.8c0.4,0,0.7,0.2,0.9,0.4l-2.1,2
	c-0.2-0.2-0.3-0.6-0.3-0.9C80.1,26.4,80.7,25.8,81.6,25.8z"/>
<path class="st4" d="M86.3,28.2c-0.3,0.3-0.7,0.5-1.1,0.5c-0.8,0-1.4-0.7-1.4-1.4c0-0.8,0.6-1.4,1.4-1.4c0.4,0,0.8,0.2,1.1,0.5
	l0.3-0.1c-0.3-0.4-0.8-0.7-1.4-0.7c-0.9,0-1.7,0.8-1.7,1.7c0,0.9,0.8,1.7,1.7,1.7c0.6,0,1.1-0.3,1.4-0.7L86.3,28.2z"/>
</svg>
