<svg id="_1_portfolio" data-name="1 portfolio" xmlns="http://www.w3.org/2000/svg" width="72" height="72" viewBox="0 0 72 72">
  <metadata><?xpacket begin="﻿" id="W5M0MpCehiHzreSzNTczkc9d"?>
<x:xmpmeta xmlns:x="adobe:ns:meta/" x:xmptk="Adobe XMP Core 5.6-c138 79.159824, 2016/09/14-01:09:01        ">
   <rdf:RDF xmlns:rdf="http://www.w3.org/1999/02/22-rdf-syntax-ns#">
      <rdf:Description rdf:about=""/>
   </rdf:RDF>
</x:xmpmeta>
                                                                                                    
                                                                                                    
                                                                                                    
                                                                                                    
                                                                                                    
                                                                                                    
                                                                                                    
                                                                                                    
                                                                                                    
                                                                                                    
                                                                                                    
                                                                                                    
                                                                                                    
                                                                                                    
                                                                                                    
                                                                                                    
                                                                                                    
                                                                                                    
                                                                                                    
                                                                                                    
                           
<?xpacket end="w"?></metadata>
<defs>
    <style>
      .cls-1 {
        fill: #996358;
      }

      .cls-1, .cls-2, .cls-3, .cls-4, .cls-5 {
        fill-rule: evenodd;
      }

      .cls-2 {
        fill: #b97957;
      }

      .cls-3 {
        fill: #7d5c61;
      }

      .cls-4 {
        fill: #ffcd00;
      }

      .cls-5 {
        fill: #ffe670;
      }
    </style>
  </defs>
  <path class="cls-1" d="M68.867,41.988H3.133A1.132,1.132,0,0,0,2,43.119V62.345A5.667,5.667,0,0,0,7.667,68H64.333A5.667,5.667,0,0,0,70,62.345V43.119A1.132,1.132,0,0,0,68.867,41.988Z"/>
  <path id="Shape_3_copy" data-name="Shape 3 copy" class="cls-2" d="M66.375,14.012H5.625A5.633,5.633,0,0,0,0,19.64V39.227a5.66,5.66,0,0,0,3.463,5.2A82.727,82.727,0,0,0,32.625,51h6.8A82.689,82.689,0,0,0,68.538,44.43,5.66,5.66,0,0,0,72,39.227V19.64A5.633,5.633,0,0,0,66.375,14.012Z"/>
  <path id="Shape_3_copy_2" data-name="Shape 3 copy 2" class="cls-3" d="M46.5,16.01A1.366,1.366,0,0,1,45,14.84V10.161a1.547,1.547,0,0,1,3,0V14.84A1.366,1.366,0,0,1,46.5,16.01Zm-21,0A1.366,1.366,0,0,1,24,14.84V10.161a1.366,1.366,0,0,1,1.5-1.17,1.366,1.366,0,0,1,1.5,1.17V14.84A1.366,1.366,0,0,1,25.5,16.01ZM50,38.579A4.543,4.543,0,0,0,45.5,34h-18A4.543,4.543,0,0,0,23,38.579V49.936a82.261,82.261,0,0,0,10.125,1.069h6.8A81.873,81.873,0,0,0,50,49.938V38.579Z"/>
  <path id="Shape_3_copy_5" data-name="Shape 3 copy 5" class="cls-2" d="M47.77,10.015a2.25,2.25,0,0,1-.644-0.094A41.621,41.621,0,0,0,35.5,8.4,41.621,41.621,0,0,0,23.874,9.92a2.235,2.235,0,0,1-2.779-1.472,2.195,2.195,0,0,1,1.493-2.741A46.188,46.188,0,0,1,35.5,4,46.182,46.182,0,0,1,48.412,5.708a2.195,2.195,0,0,1,1.493,2.741A2.228,2.228,0,0,1,47.77,10.015Z"/>
  <path id="Shape_3_copy_3" data-name="Shape 3 copy 3" class="cls-4" d="M37.667,55H35.333A2.291,2.291,0,0,1,33,52.75V48.258a2.291,2.291,0,0,1,2.333-2.246h2.333A2.291,2.291,0,0,1,40,48.258V52.75A2.291,2.291,0,0,1,37.667,55Z"/>
  <path id="Shape_3_copy_4" data-name="Shape 3 copy 4" class="cls-5" d="M38.834,46.014H34.167A1.182,1.182,0,0,0,33,47.211v2.4A2.365,2.365,0,0,0,35.334,52h2.333A2.365,2.365,0,0,0,40,49.606v-2.4A1.182,1.182,0,0,0,38.834,46.014Z"/>
</svg>
