<svg xmlns="http://www.w3.org/2000/svg" width="220" height="220" viewBox="0 0 220 220">
  <metadata><?xpacket begin="﻿" id="W5M0MpCehiHzreSzNTczkc9d"?>
<x:xmpmeta xmlns:x="adobe:ns:meta/" x:xmptk="Adobe XMP Core 5.6-c138 79.159824, 2016/09/14-01:09:01        ">
   <rdf:RDF xmlns:rdf="http://www.w3.org/1999/02/22-rdf-syntax-ns#">
      <rdf:Description rdf:about=""
            xmlns:xmp="http://ns.adobe.com/xap/1.0/">
         <xmp:CreatorTool>Adobe Photoshop CC 2017 (Windows)</xmp:CreatorTool>
      </rdf:Description>
   </rdf:RDF>
</x:xmpmeta>
                                                                                                    
                                                                                                    
                                                                                                    
                                                                                                    
                                                                                                    
                                                                                                    
                                                                                                    
                                                                                                    
                                                                                                    
                                                                                                    
                                                                                                    
                                                                                                    
                                                                                                    
                                                                                                    
                                                                                                    
                                                                                                    
                                                                                                    
                                                                                                    
                                                                                                    
                                                                                                    
                           
<?xpacket end="w"?></metadata>
<defs>
    <style>
      .cls-1 {
        fill: #b3b3b3;
      }

      .cls-1, .cls-2, .cls-3 {
        fill-rule: evenodd;
      }

      .cls-2 {
        fill: #c2e2f2;
      }

      .cls-3 {
        fill: #406a80;
      }
    </style>
  </defs>
  <path id="Rounded_Rectangle_1" data-name="Rounded Rectangle 1" class="cls-1" d="M190,156H148v13h19a7,7,0,0,1,7,7v11a7,7,0,0,1-7,7H122a12,12,0,0,0,12-12V126h51a8,8,0,0,0,8-8V49a8,8,0,0,0-8-8H76a8,8,0,0,0-8,8V64H51V45A20,20,0,0,1,71,25H190a20,20,0,0,1,20,20v91A20,20,0,0,1,190,156Zm-10-23.031a6,6,0,1,0,6,6A6,6,0,0,0,180,132.969Z"/>
  <path id="Rounded_Rectangle_1_copy" data-name="Rounded Rectangle 1 copy" class="cls-2" d="M124,83V184a10,10,0,0,1-10,10H71.628A5.968,5.968,0,0,0,74,189.25v-3.807a6,6,0,1,0,0-8.886V164h35V90H46v9H31V83A10,10,0,0,1,41,73h73A10,10,0,0,1,124,83Z"/>
  <path id="Rounded_Rectangle_1_copy_2" data-name="Rounded Rectangle 1 copy 2" class="cls-3" d="M64,114v74a6,6,0,0,1-6,6H16a6,6,0,0,1-6-6V114a6,6,0,0,1,6-6H58A6,6,0,0,1,64,114ZM37,190a5,5,0,1,0-5-5A5,5,0,0,0,37,190Zm15.875-69H21v48H52.875V121Z"/>
</svg>
