<svg xmlns="http://www.w3.org/2000/svg" width="60" height="60" viewBox="0 0 60 60">
  <metadata><?xpacket begin="﻿" id="W5M0MpCehiHzreSzNTczkc9d"?>
<x:xmpmeta xmlns:x="adobe:ns:meta/" x:xmptk="Adobe XMP Core 5.6-c138 79.159824, 2016/09/14-01:09:01        ">
   <rdf:RDF xmlns:rdf="http://www.w3.org/1999/02/22-rdf-syntax-ns#">
      <rdf:Description rdf:about=""
            xmlns:xmp="http://ns.adobe.com/xap/1.0/">
         <xmp:CreatorTool>Adobe Photoshop CC 2017 (Windows)</xmp:CreatorTool>
      </rdf:Description>
   </rdf:RDF>
</x:xmpmeta>
                                                                                                    
                                                                                                    
                                                                                                    
                                                                                                    
                                                                                                    
                                                                                                    
                                                                                                    
                                                                                                    
                                                                                                    
                                                                                                    
                                                                                                    
                                                                                                    
                                                                                                    
                                                                                                    
                                                                                                    
                                                                                                    
                                                                                                    
                                                                                                    
                                                                                                    
                                                                                                    
                           
<?xpacket end="w"?></metadata>
<defs>
    <style>
      .cls-1 {
        fill: #2378b1;
        fill-rule: evenodd;
      }
    </style>
  </defs>
  <path class="cls-1" d="M40.763,7.642l1.543-2.593a1.286,1.286,0,0,1,2.243,1.258L43.006,8.9a1.255,1.255,0,0,1-1.121.629,2.005,2.005,0,0,1-.629-0.143A1.258,1.258,0,0,1,40.763,7.642ZM18.08,8.907a1.256,1.256,0,0,0,1.122.629,2.008,2.008,0,0,0,.629-0.143,1.274,1.274,0,0,0,.493-1.75L18.78,5.049a1.286,1.286,0,0,0-2.243,1.258Zm12.4-2.379A1.251,1.251,0,0,0,31.735,5.27V2.262a1.258,1.258,0,0,0-2.515,0V5.27A1.173,1.173,0,0,0,30.477,6.527ZM7.856,26.743H4.848a1.258,1.258,0,0,0,0,2.515H7.856A1.258,1.258,0,1,0,7.856,26.743Zm48.381-.062H53.229a1.258,1.258,0,1,0,0,2.515h3.008A1.258,1.258,0,0,0,56.237,26.68ZM53.923,14.436a1.274,1.274,0,0,0-1.75-.493l-2.593,1.543a1.274,1.274,0,0,0-.493,1.75,1.255,1.255,0,0,0,1.122.629,2,2,0,0,0,.629-0.143L53.43,16.18A1.259,1.259,0,0,0,53.923,14.436Zm-6.859,13.3a16.868,16.868,0,0,1-2.172,8.194,1.223,1.223,0,0,1-.279.493l-0.143.207a15,15,0,0,1-1.822,2.379c-2.45,3.429-3.708,6.373-3.643,8.259v0.071c0,0.143.071,0.35,0.071,0.558v6.335a4.765,4.765,0,0,1-4.758,4.758H26.74a4.766,4.766,0,0,1-4.758-4.758V47.272c0.071-1.822-1.38-4.693-3.688-8.052a13.872,13.872,0,0,1-2.1-2.8c-0.071-.143-0.143-0.207-0.208-0.35a16.449,16.449,0,0,1-2.243-8.259A16.661,16.661,0,0,1,47.064,27.739ZM36.928,48.976H24.006v2H36.928v-2h0Zm0,5.09V53.01H24.006v1.055a2.194,2.194,0,0,0,2.172,1.958h8.585A2.187,2.187,0,0,0,36.928,54.066Zm7.543-26.326a14.074,14.074,0,1,0-28.148,0,14.255,14.255,0,0,0,1.958,7.144h0v0.071a16.968,16.968,0,0,0,1.893,2.522l0.143,0.143q3.462,4.94,3.993,8.4H36.562c0.421-2.872,2.379-6.159,4.13-8.609a0.27,0.27,0,0,1,.143-0.143A9.526,9.526,0,0,0,42.442,35.1c0-.071.071-0.071,0.071-0.143s0.071-.071.071-0.143A13.741,13.741,0,0,0,44.471,27.739ZM11.5,15.487L8.906,13.944a1.286,1.286,0,0,0-1.258,2.243l2.593,1.543a1.021,1.021,0,0,0,.629.143,1.263,1.263,0,0,0,1.122-.629A1.285,1.285,0,0,0,11.5,15.487Z"/>
</svg>
