<svg xmlns="http://www.w3.org/2000/svg" width="60" height="60" viewBox="0 0 60 60">
  <metadata><?xpacket begin="﻿" id="W5M0MpCehiHzreSzNTczkc9d"?>
<x:xmpmeta xmlns:x="adobe:ns:meta/" x:xmptk="Adobe XMP Core 5.6-c138 79.159824, 2016/09/14-01:09:01        ">
   <rdf:RDF xmlns:rdf="http://www.w3.org/1999/02/22-rdf-syntax-ns#">
      <rdf:Description rdf:about=""
            xmlns:xmp="http://ns.adobe.com/xap/1.0/">
         <xmp:CreatorTool>Adobe Photoshop CC 2017 (Windows)</xmp:CreatorTool>
      </rdf:Description>
   </rdf:RDF>
</x:xmpmeta>
                                                                                                    
                                                                                                    
                                                                                                    
                                                                                                    
                                                                                                    
                                                                                                    
                                                                                                    
                                                                                                    
                                                                                                    
                                                                                                    
                                                                                                    
                                                                                                    
                                                                                                    
                                                                                                    
                                                                                                    
                                                                                                    
                                                                                                    
                                                                                                    
                                                                                                    
                                                                                                    
                           
<?xpacket end="w"?></metadata>
<defs>
    <style>
      .cls-1 {
        fill: #2378b1;
        fill-rule: evenodd;
      }
    </style>
  </defs>
  <path id="Ellipse_1_copy_6" data-name="Ellipse 1 copy 6" class="cls-1" d="M55.743,41.33c0,0.024,0,.049,0,0.073a6.174,6.174,0,0,1-1.263.261,5.645,5.645,0,0,1-2.043,3.356V45.24a11.289,11.289,0,0,1-.1,1.44c-0.026.2-.048,0.407-0.082,0.607V47.3h0a12.056,12.056,0,0,1-11.859,9.991H33.98v0.605a1.327,1.327,0,0,1-1.326,1.326H27.345a1.327,1.327,0,0,1-1.327-1.326V54.269a1.326,1.326,0,0,1,1.327-1.326h5.309a1.326,1.326,0,0,1,1.326,1.326v0.6h6.406a9.649,9.649,0,0,0,9.22-6.847c0-.012,0-0.024.008-0.036a9.671,9.671,0,0,0,.262-1.148c0.018-.105.034-0.211,0.049-0.318s0.018-.232.026-0.349a5.7,5.7,0,0,1-1,.1,2.473,2.473,0,0,1-4.945-.03v-17.9a2.473,2.473,0,0,1,4.946-.029,5.2,5.2,0,0,1,.906.091A5.66,5.66,0,0,1,54.2,31.988V29.708a23.761,23.761,0,0,0-6.537-16.362c-0.345-.365-0.718-0.7-1.085-1.043a1.065,1.065,0,0,1-1.357-.033,22.826,22.826,0,0,0-29.788,0,1.065,1.065,0,0,1-1.355.033c-0.372.348-.751,0.688-1.1,1.059h0A23.761,23.761,0,0,0,6.454,29.708v2.821a5.662,5.662,0,0,1,5.461-4.213v0.011c0.039,0,.076-0.011.116-0.011v0.035a2.475,2.475,0,1,1,4.95,0v17.9a2.475,2.475,0,0,1-4.95,0v0.034c-0.04,0-.076-0.01-0.116-0.011v0.011a5.663,5.663,0,0,1-5.3-3.709,6.05,6.05,0,0,1-1.518-.25c-0.015-.056-0.021-0.116-0.034-0.173a4.854,4.854,0,0,1-3.184-4.416A4.511,4.511,0,0,1,3.017,34.78H2.835V29.708a27.364,27.364,0,0,1,7.52-18.834l-0.012-.014c0.064-.067.136-0.126,0.2-0.193,0.289-.3.6-0.58,0.9-0.864a1.049,1.049,0,0,1,.136-1.394,28.312,28.312,0,0,1,37.5,0A1.05,1.05,0,0,1,49.212,9.8c0.3,0.285.613,0.566,0.9,0.866,0.063,0.066.135,0.123,0.2,0.19l-0.012.014a27.361,27.361,0,0,1,7.52,18.834v4.128a4.522,4.522,0,0,1,1.211,3.028A4.875,4.875,0,0,1,55.743,41.33Z"/>
</svg>
