<svg xmlns="http://www.w3.org/2000/svg" width="60" height="60" viewBox="0 0 60 60">
  <metadata><?xpacket begin="﻿" id="W5M0MpCehiHzreSzNTczkc9d"?>
<x:xmpmeta xmlns:x="adobe:ns:meta/" x:xmptk="Adobe XMP Core 5.6-c138 79.159824, 2016/09/14-01:09:01        ">
   <rdf:RDF xmlns:rdf="http://www.w3.org/1999/02/22-rdf-syntax-ns#">
      <rdf:Description rdf:about=""
            xmlns:xmp="http://ns.adobe.com/xap/1.0/">
         <xmp:CreatorTool>Adobe Photoshop CC 2017 (Windows)</xmp:CreatorTool>
      </rdf:Description>
   </rdf:RDF>
</x:xmpmeta>
                                                                                                    
                                                                                                    
                                                                                                    
                                                                                                    
                                                                                                    
                                                                                                    
                                                                                                    
                                                                                                    
                                                                                                    
                                                                                                    
                                                                                                    
                                                                                                    
                                                                                                    
                                                                                                    
                                                                                                    
                                                                                                    
                                                                                                    
                                                                                                    
                                                                                                    
                                                                                                    
                           
<?xpacket end="w"?></metadata>
<defs>
    <style>
      .cls-1 {
        fill: #2378b1;
        fill-rule: evenodd;
      }
    </style>
  </defs>
  <path id="Shape_1_copy_3" data-name="Shape 1 copy 3" class="cls-1" d="M56.59,44.576a4.634,4.634,0,0,1-3.4,1.414h-15.1c0,0.742,1.444,3.758,1.765,4.57a23.969,23.969,0,0,0,.963,2.207,3.442,3.442,0,0,1,.482,1.308A1.955,1.955,0,0,1,39.375,56H19.76a1.955,1.955,0,0,1-1.926-1.927,3.328,3.328,0,0,1,.481-1.324,21.266,21.266,0,0,0,.963-2.106c0.321-.8,1.766-3.895,1.766-4.657H5.8a4.838,4.838,0,0,1-3.49-1.414,4.557,4.557,0,0,1-1.325-3.4V10.79a4.556,4.556,0,0,1,1.325-3.4A4.839,4.839,0,0,1,5.8,5.975H53.19a4.636,4.636,0,0,1,3.4,1.415A4.634,4.634,0,0,1,58,10.79V41.175A4.636,4.636,0,0,1,56.59,44.576Zm-2.6-33.608A0.976,0.976,0,0,0,53.026,10H5.966A0.976,0.976,0,0,0,5,10.968V41.041A0.975,0.975,0,0,0,5.966,42H53.025a0.975,0.975,0,0,0,.963-0.962V10.968ZM32.848,33.528c-0.992-.975-0.5-2.432.566-3.478a2.865,2.865,0,0,1,3.858-.346c1.538,1.512.132,2.279,1.926,5.365C39.372,36.322,35.187,35.827,32.848,33.528ZM36.8,22.557l-3.774-3.881,1.632-1.7a1.765,1.765,0,0,1,2.493,0l1.564,1.743a1.36,1.36,0,0,1,0,1.926Zm-3.856,3.818c0.585,0.659.9,1.11,1.171,1.463,0.172,0.221-.055.289-0.158,0.342a4.841,4.841,0,0,0-1.332.957,4.766,4.766,0,0,0-.974,1.309c-0.053.1-.123,0.325-0.347,0.156-0.357-.268-0.8-0.559-1.462-1.125L26.064,33.26l-3.736-3.881L25.98,25.74c-3.3-3.425-7.207-8.12-6-9.324,1.406-1.193,5.954,2.777,9.263,6.075l2.9-2.885,3.809,3.774ZM25.412,34.09l-5.157,1.648a0.454,0.454,0,0,1-.549-0.54l1.72-5.1Z"/>
</svg>
