<svg xmlns="http://www.w3.org/2000/svg" width="60" height="60" viewBox="0 0 60 60">
  <metadata><?xpacket begin="﻿" id="W5M0MpCehiHzreSzNTczkc9d"?>
<x:xmpmeta xmlns:x="adobe:ns:meta/" x:xmptk="Adobe XMP Core 5.6-c138 79.159824, 2016/09/14-01:09:01        ">
   <rdf:RDF xmlns:rdf="http://www.w3.org/1999/02/22-rdf-syntax-ns#">
      <rdf:Description rdf:about=""
            xmlns:xmp="http://ns.adobe.com/xap/1.0/">
         <xmp:CreatorTool>Adobe Photoshop CC 2017 (Windows)</xmp:CreatorTool>
      </rdf:Description>
   </rdf:RDF>
</x:xmpmeta>
                                                                                                    
                                                                                                    
                                                                                                    
                                                                                                    
                                                                                                    
                                                                                                    
                                                                                                    
                                                                                                    
                                                                                                    
                                                                                                    
                                                                                                    
                                                                                                    
                                                                                                    
                                                                                                    
                                                                                                    
                                                                                                    
                                                                                                    
                                                                                                    
                                                                                                    
                                                                                                    
                           
<?xpacket end="w"?></metadata>
<defs>
    <style>
      .cls-1 {
        fill: #2378b1;
        fill-rule: evenodd;
      }
    </style>
  </defs>
  <path id="paper_plane_copy" data-name="paper plane copy" class="cls-1" d="M55.12,4.939c-2.4,15.7-4.518,28.433-5.905,37.885-0.186,1.269-.141,2.95-0.8,3.288-0.721.368-1.36,0.132-3.193-.4C42.188,44.84,38.489,43.8,34.5,42.7L29.032,53.159s-1.726,3.484-2.756,3.484c-1.593,0-1.364-2.333-1.364-2.333l0.027-14.42c-0.217-.059.186-0.031-0.031-0.09L37.479,21.506,17.438,38C13.107,36.815,8.989,35.686,5.5,34.72c-1.86-.516-2.127-0.857-2.127-1.611,0-.821,1.174-1.364,1.858-1.782C14.793,25.49,42.715,8.143,52.6,3.024c1.106-.573,1.5-0.81,1.955-0.552C55.027,2.743,55.249,4.089,55.12,4.939Z"/>
</svg>
