<?xml version="1.0" encoding="utf-8"?>
<!-- Generator: Adobe Illustrator 23.0.1, SVG Export Plug-In . SVG Version: 6.00 Build 0)  -->
<svg version="1.1" id="Layer_1" xmlns="http://www.w3.org/2000/svg" xmlns:xlink="http://www.w3.org/1999/xlink" x="0px" y="0px"
	 viewBox="0 0 220 220" style="enable-background:new 0 0 220 220;" xml:space="preserve">
<style type="text/css">
	.st0{fill-rule:evenodd;clip-rule:evenodd;fill:#608FBF;}
	.st1{fill-rule:evenodd;clip-rule:evenodd;fill:#BABFBF;}
</style>
<path class="st0" d="M94.9,136.2l0.1,42.4c0,0-0.4,6.5,4,6.5c2.9,0,7.7-9.7,7.7-9.7l18.4-31.2l-5.8-39.1L94.9,136.2z"/>
<path id="paper_plane" class="st1" d="M181.9,40.1c-6.7,43.7-12.6,79.1-16.4,105.3c-0.5,3.5-0.4,8.2-2.2,9.1c-2,1-3.8,0.4-8.9-1.1
	c-15.8-4.5-37.9-10.7-59.9-16.7l38.4-50.6L77.1,132c-12-3.3-23.5-6.4-33.2-9.1c-5.2-1.4-5.9-2.4-5.9-4.5c0-2.3,3.3-3.8,5.2-5
	C69.8,97.2,147.4,49,174.9,34.8c3.1-1.6,4.2-2.3,5.4-1.5C181.6,34,182.2,37.7,181.9,40.1z"/>
</svg>
