<svg xmlns="http://www.w3.org/2000/svg" width="60" height="60" viewBox="0 0 60 60">
  <metadata><?xpacket begin="﻿" id="W5M0MpCehiHzreSzNTczkc9d"?>
<x:xmpmeta xmlns:x="adobe:ns:meta/" x:xmptk="Adobe XMP Core 5.6-c138 79.159824, 2016/09/14-01:09:01        ">
   <rdf:RDF xmlns:rdf="http://www.w3.org/1999/02/22-rdf-syntax-ns#">
      <rdf:Description rdf:about=""
            xmlns:xmp="http://ns.adobe.com/xap/1.0/">
         <xmp:CreatorTool>Adobe Photoshop CC 2017 (Windows)</xmp:CreatorTool>
      </rdf:Description>
   </rdf:RDF>
</x:xmpmeta>
                                                                                                    
                                                                                                    
                                                                                                    
                                                                                                    
                                                                                                    
                                                                                                    
                                                                                                    
                                                                                                    
                                                                                                    
                                                                                                    
                                                                                                    
                                                                                                    
                                                                                                    
                                                                                                    
                                                                                                    
                                                                                                    
                                                                                                    
                                                                                                    
                                                                                                    
                                                                                                    
                           
<?xpacket end="w"?></metadata>
<defs>
    <style>
      .cls-1 {
        fill: #2378b1;
        fill-rule: evenodd;
      }
    </style>
  </defs>
  <path id="Shape_4_copy" data-name="Shape 4 copy" class="cls-1" d="M55.893,47.1L58.2,47.25v3.411l-2.31.149a6.454,6.454,0,0,1-.515,1.245l1.527,1.739-2.412,2.412-1.738-1.528a6.462,6.462,0,0,1-1.245.514L51.362,57.5H47.951L47.8,55.192a6.467,6.467,0,0,1-1.245-.514l-1.739,1.528-2.412-2.412,1.528-1.738a6.464,6.464,0,0,1-.515-1.245l-2.31-.149V47.25l2.31-.149a6.487,6.487,0,0,1,.515-1.245l-1.528-1.738,2.412-2.412,1.738,1.528a6.466,6.466,0,0,1,1.245-.514l0.149-2.31h3.41l0.149,2.31a6.466,6.466,0,0,1,1.245.514l1.739-1.528,2.412,2.412-1.528,1.738A6.482,6.482,0,0,1,55.893,47.1Zm-6.237-1.2a3.057,3.057,0,1,0,3.057,3.057A3.057,3.057,0,0,0,49.657,45.9ZM33.574,25.254a1.668,1.668,0,0,1,1.59-.106l8.531,3.967a1.664,1.664,0,0,1,.959,1.5v0.119a1.665,1.665,0,0,1-.959,1.5l-8.531,3.967a1.659,1.659,0,0,1-2.358-1.5V34.661a1.664,1.664,0,0,1,.96-1.5L39.1,30.678,33.766,28.2a1.666,1.666,0,0,1-.96-1.5V26.652A1.65,1.65,0,0,1,33.574,25.254Zm-2.224-4.981h0.042a1.658,1.658,0,0,1,1.579,2.164L27.35,39.851A1.653,1.653,0,0,1,25.771,41H25.729a1.659,1.659,0,0,1-1.58-2.163L29.77,21.424A1.653,1.653,0,0,1,31.349,20.272ZM24.314,34.661V34.7a1.659,1.659,0,0,1-2.357,1.5l-8.532-3.968a1.665,1.665,0,0,1-.959-1.5V30.619a1.664,1.664,0,0,1,.959-1.5l8.531-3.967a1.668,1.668,0,0,1,1.591.106,1.649,1.649,0,0,1,.766,1.4V26.7a1.664,1.664,0,0,1-.96,1.5l-5.336,2.48,5.336,2.479A1.664,1.664,0,0,1,24.314,34.661Zm27.345,3.52c-0.229,0-.45.029-0.675,0.044v-22.2H6V50.006h31.5c0,0.081-.007.162-0.007,0.243,0,0.722,2.783,1.553,2.922,2.234a10.364,10.364,0,0,0,.451,1.547H5.671a3.7,3.7,0,0,1-3.693-3.693V8.506a3.691,3.691,0,0,1,3.693-3.69H51.226a3.7,3.7,0,0,1,3.7,3.69V40c-0.293-.106-0.577-0.233-0.882-0.313C53.186,39.465,52.584,38.181,51.658,38.181ZM36.97,8.96a2.008,2.008,0,1,0,2.01,2.012A2.011,2.011,0,0,0,36.97,8.96Zm6.044,0.066a1.946,1.946,0,1,0,1.949,1.951A1.95,1.95,0,0,0,43.014,9.026Zm5.99,0a1.956,1.956,0,1,0,1.958,1.96A1.959,1.959,0,0,0,49,9.026Z"/>
</svg>
