<svg xmlns="http://www.w3.org/2000/svg" width="220" height="220" viewBox="0 0 220 220">
  <metadata><?xpacket begin="﻿" id="W5M0MpCehiHzreSzNTczkc9d"?>
<x:xmpmeta xmlns:x="adobe:ns:meta/" x:xmptk="Adobe XMP Core 5.6-c138 79.159824, 2016/09/14-01:09:01        ">
   <rdf:RDF xmlns:rdf="http://www.w3.org/1999/02/22-rdf-syntax-ns#">
      <rdf:Description rdf:about=""
            xmlns:xmp="http://ns.adobe.com/xap/1.0/">
         <xmp:CreatorTool>Adobe Photoshop CC 2017 (Windows)</xmp:CreatorTool>
      </rdf:Description>
   </rdf:RDF>
</x:xmpmeta>
                                                                                                    
                                                                                                    
                                                                                                    
                                                                                                    
                                                                                                    
                                                                                                    
                                                                                                    
                                                                                                    
                                                                                                    
                                                                                                    
                                                                                                    
                                                                                                    
                                                                                                    
                                                                                                    
                                                                                                    
                                                                                                    
                                                                                                    
                                                                                                    
                                                                                                    
                                                                                                    
                           
<?xpacket end="w"?></metadata>
<defs>
    <style>
      .cls-1 {
        fill: #c6c6c6;
      }

      .cls-1, .cls-2, .cls-3, .cls-4, .cls-5, .cls-6, .cls-7 {
        fill-rule: evenodd;
      }

      .cls-2 {
        fill: #2179a6;
      }

      .cls-3 {
        fill: #bf5347;
      }

      .cls-4 {
        fill: #e66356;
      }

      .cls-5 {
        fill: #727272;
      }

      .cls-6 {
        fill: #da7c43;
      }

      .cls-7 {
        fill: #e78244;
      }
    </style>
  </defs>
  <path class="cls-1" d="M139.877,164.02c0,2.6,5.063,12.076,6.188,14.925a84.133,84.133,0,0,0,3.374,7.737,12.064,12.064,0,0,1,1.689,4.587,6.853,6.853,0,0,1-6.752,6.754H75.623a6.851,6.851,0,0,1-6.75-6.754,11.661,11.661,0,0,1,1.687-4.64,74.632,74.632,0,0,0,3.375-7.382c1.125-2.811,6.188-12.556,6.188-15.227h59.754Z"/>
  <path id="Shape_1_copy" data-name="Shape 1 copy" class="cls-2" d="M205.047,26.968a16.25,16.25,0,0,0-11.918-4.959H26.806a16.963,16.963,0,0,0-12.232,4.959A15.97,15.97,0,0,0,9.93,38.886V147.145a15.97,15.97,0,0,0,4.644,11.919,16.959,16.959,0,0,0,12.232,4.956H193.132a16.926,16.926,0,0,0,16.874-16.875V38.886A16.244,16.244,0,0,0,205.047,26.968Zm-10.1,118.612a3.419,3.419,0,0,1-3.376,3.373H28.368a3.418,3.418,0,0,1-3.375-3.373V40.386a3.422,3.422,0,0,1,3.375-3.375h163.2a3.422,3.422,0,0,1,3.373,3.375V145.58h0Z"/>
  <path class="cls-3" d="M76.385,59.264c6.594-5.594,32.9,21.2,42.145,31.419a62.866,62.866,0,0,1,7.425,8.618c0.6,0.774-.194,1.014-0.553,1.2a16.963,16.963,0,0,0-4.667,3.356,16.682,16.682,0,0,0-3.415,4.588c-0.186.353-.431,1.137-1.217,0.545a63.4,63.4,0,0,1-8.767-7.3C96.716,91.973,70.791,64.859,76.385,59.264Z"/>
  <path id="Shape_2_copy" data-name="Shape 2 copy" class="cls-4" d="M137.007,105.843c5.392,5.3.463,7.99,6.753,18.8,0.608,4.392-14.062,2.657-22.26-5.4-3.477-3.417-1.746-8.524,1.983-12.191S133.531,102.425,137.007,105.843Z"/>
  <path class="cls-5" d="M81.466,107.236L75.436,125.1a1.59,1.59,0,0,0,1.924,1.892l18.076-5.776"/>
  <path id="Shape_3_copy" data-name="Shape 3 copy" class="cls-6" d="M119,70.446l13.353,13.227L97.721,118.3,84.626,104.7Z"/>
  <path id="Shape_3_copy_2" data-name="Shape 3 copy 2" class="cls-7" d="M142.083,67.325L136.6,61.216a6.186,6.186,0,0,0-8.738,0l-5.721,5.971,13.228,13.6,6.715-6.715A4.766,4.766,0,0,0,142.083,67.325Z"/>
</svg>
