<svg xmlns="http://www.w3.org/2000/svg" width="220" height="220" viewBox="0 0 220 220">
  <metadata><?xpacket begin="﻿" id="W5M0MpCehiHzreSzNTczkc9d"?>
<x:xmpmeta xmlns:x="adobe:ns:meta/" x:xmptk="Adobe XMP Core 5.6-c138 79.159824, 2016/09/14-01:09:01        ">
   <rdf:RDF xmlns:rdf="http://www.w3.org/1999/02/22-rdf-syntax-ns#">
      <rdf:Description rdf:about=""
            xmlns:xmp="http://ns.adobe.com/xap/1.0/">
         <xmp:CreatorTool>Adobe Photoshop CC 2017 (Windows)</xmp:CreatorTool>
      </rdf:Description>
   </rdf:RDF>
</x:xmpmeta>
                                                                                                    
                                                                                                    
                                                                                                    
                                                                                                    
                                                                                                    
                                                                                                    
                                                                                                    
                                                                                                    
                                                                                                    
                                                                                                    
                                                                                                    
                                                                                                    
                                                                                                    
                                                                                                    
                                                                                                    
                                                                                                    
                                                                                                    
                                                                                                    
                                                                                                    
                                                                                                    
                           
<?xpacket end="w"?></metadata>
<defs>
    <style>
      .cls-1 {
        fill: #e57733;
      }

      .cls-1, .cls-2 {
        fill-rule: evenodd;
      }

      .cls-2 {
        fill: #db5b0b;
      }
    </style>
  </defs>
  <path id="Shape_7_copy" data-name="Shape 7 copy" class="cls-1" d="M171.313,101.938a62.636,62.636,0,0,1-8.064,30.426,4.558,4.558,0,0,1-1.035,1.829l-0.53.77a55.672,55.672,0,0,1-6.764,8.834c-9.1,12.734-13.435,23.661-13.194,30.666v0.265c0,0.53.265,1.3,0.265,2.07v22.528a17.7,17.7,0,0,1-17.668,17.668H95.571A17.7,17.7,0,0,1,77.9,199.326V174.463c0.265-6.763-4.846-17.426-13.415-29.895a51.491,51.491,0,0,1-7.8-10.4c-0.265-.529-0.529-0.77-0.77-1.3A61.078,61.078,0,0,1,47.591,102.2,61.861,61.861,0,0,1,171.313,101.938ZM131.97,178.98H87.007v9H131.97v-9h0Zm0,20.792v-1.767H87.09v1.767a8.072,8.072,0,0,0,8.064,7.186h28.777A8.048,8.048,0,0,0,131.97,199.772Zm29.714-97.834a52.257,52.257,0,0,0-104.514,0,52.93,52.93,0,0,0,7.269,26.526h0v0.265a62.952,62.952,0,0,0,7.029,9.363L72,138.622c8.569,12.228,13.528,22.709,14.827,31.279h45.493c1.565-10.664,8.834-22.951,15.333-32.049a1,1,0,0,1,.53-0.53,35.337,35.337,0,0,0,5.969-8.064c0-.265.265-0.265,0.265-0.529s0.265-.265.265-0.53A51.01,51.01,0,0,0,161.684,101.938Z"/>
  <path id="Shape_7_copy_2" data-name="Shape 7 copy 2" class="cls-2" d="M147.916,27.32l5.729-9.628a4.774,4.774,0,1,1,8.328,4.67l-5.729,9.628a4.66,4.66,0,0,1-4.164,2.335,7.451,7.451,0,0,1-2.335-.529A4.67,4.67,0,0,1,147.916,27.32ZM63.693,32.014a4.661,4.661,0,0,0,4.164,2.335,7.45,7.45,0,0,0,2.335-.529,4.729,4.729,0,0,0,1.829-6.5l-5.729-9.628a4.774,4.774,0,1,0-8.328,4.67Zm46.264-8.834a4.644,4.644,0,0,0,4.67-4.67V7.341a4.67,4.67,0,0,0-9.34,0V18.51C105.022,21.086,107.092,23.18,109.957,23.18ZM25.734,97.774H14.566a4.67,4.67,0,1,0,0,9.339H25.734A4.67,4.67,0,1,0,25.734,97.774Zm179.638,0H194.2a4.67,4.67,0,1,0,0,9.339h11.168A4.67,4.67,0,1,0,205.372,97.774Zm-8.593-45.228a4.729,4.729,0,0,0-6.5-1.829l-9.628,5.729a4.729,4.729,0,0,0-1.829,6.5,4.661,4.661,0,0,0,4.164,2.335,7.451,7.451,0,0,0,2.335-.53l9.628-5.729A4.676,4.676,0,0,0,196.779,52.546Zm-157.517,3.9-9.628-5.729a4.774,4.774,0,1,0-4.67,8.328l9.628,5.729a3.792,3.792,0,0,0,2.335.53,4.689,4.689,0,0,0,4.164-2.335A4.772,4.772,0,0,0,39.262,56.445Z"/>
</svg>
