<svg xmlns="http://www.w3.org/2000/svg" width="220" height="220" viewBox="0 0 220 220">
  <metadata><?xpacket begin="﻿" id="W5M0MpCehiHzreSzNTczkc9d"?>
<x:xmpmeta xmlns:x="adobe:ns:meta/" x:xmptk="Adobe XMP Core 5.6-c138 79.159824, 2016/09/14-01:09:01        ">
   <rdf:RDF xmlns:rdf="http://www.w3.org/1999/02/22-rdf-syntax-ns#">
      <rdf:Description rdf:about=""
            xmlns:xmp="http://ns.adobe.com/xap/1.0/">
         <xmp:CreatorTool>Adobe Photoshop CC 2017 (Windows)</xmp:CreatorTool>
      </rdf:Description>
   </rdf:RDF>
</x:xmpmeta>
                                                                                                    
                                                                                                    
                                                                                                    
                                                                                                    
                                                                                                    
                                                                                                    
                                                                                                    
                                                                                                    
                                                                                                    
                                                                                                    
                                                                                                    
                                                                                                    
                                                                                                    
                                                                                                    
                                                                                                    
                                                                                                    
                                                                                                    
                                                                                                    
                                                                                                    
                                                                                                    
                           
<?xpacket end="w"?></metadata>
<defs>
    <style>
      .cls-1 {
        fill: #406a80;
      }

      .cls-1, .cls-2, .cls-3 {
        fill-rule: evenodd;
      }

      .cls-2 {
        fill: #242424;
      }

      .cls-3 {
        fill: #304d5d;
      }
    </style>
  </defs>
  <path class="cls-1" d="M192.8,140.41c-3.075-.811-4.116-5.431-7.446-5.431-0.817,0-1.627.028-2.431,0.079V55.026H24V175.957H135.775c-0.006.293-.025,0.582-0.025,0.876,0,2.6,10.013,5.138,10.515,7.589a37.318,37.318,0,0,0,1.622,5.568H23.247A13.3,13.3,0,0,1,9.958,176.7V28.2A13.281,13.281,0,0,1,23.247,14.921H182.673a13.3,13.3,0,0,1,13.3,13.277V141.409C194.936,141.033,193.879,140.694,192.8,140.41ZM138.452,29.831a6.636,6.636,0,1,0,6.644,6.651A6.648,6.648,0,0,0,138.452,29.831ZM158.53,30.05a6.432,6.432,0,1,0,6.441,6.447A6.445,6.445,0,0,0,158.53,30.05Zm18.971,0a6.463,6.463,0,1,0,6.472,6.478A6.474,6.474,0,0,0,177.5,30.05Z"/>
  <path class="cls-2" d="M179.5,162.75a11,11,0,1,1-11,11A11,11,0,0,1,179.5,162.75Zm30.754,17.138-8.313.535a23.229,23.229,0,0,1-1.852,4.48l5.5,6.258-8.679,8.678-6.255-5.5a23.185,23.185,0,0,1-4.48,1.85l-0.537,8.315H173.362l-0.536-8.314a23.265,23.265,0,0,1-4.479-1.85l-6.256,5.5-8.679-8.681,5.5-6.255a23.318,23.318,0,0,1-1.852-4.48l-8.312-.536V167.613l8.312-.537a23.4,23.4,0,0,1,1.852-4.479l-5.5-6.254,8.68-8.681,6.254,5.5a23.26,23.26,0,0,1,4.481-1.851l0.537-8.314h12.271l0.537,8.314a23.225,23.225,0,0,1,4.48,1.851l6.257-5.5,8.679,8.681-5.5,6.254a23.426,23.426,0,0,1,1.852,4.479l8.312,0.537v12.275Z"/>
  <path class="cls-3" d="M49.125,113.606l30.7,14.276a5.967,5.967,0,0,0,8.48-5.412v-0.157a5.988,5.988,0,0,0-3.453-5.411l-19.2-8.92,19.2-8.923a5.989,5.989,0,0,0,3.453-5.411V93.493a5.957,5.957,0,0,0-5.972-5.962,6,6,0,0,0-2.511.551l-30.7,14.275a5.987,5.987,0,0,0-3.451,5.41V108.2A6,6,0,0,0,49.125,113.606ZM88.58,142.685a5.988,5.988,0,0,0,4.819,2.447h0.153a5.946,5.946,0,0,0,5.68-4.144l20.224-62.663a5.966,5.966,0,0,0-5.68-7.789h-0.153a5.95,5.95,0,0,0-5.684,4.144L87.712,137.349A6,6,0,0,0,88.58,142.685Zm30.287-49.037a6,6,0,0,0,3.453,5.413l19.2,8.92-19.2,8.921a5.988,5.988,0,0,0-3.454,5.411v0.157a5.968,5.968,0,0,0,8.484,5.41l30.7-14.276a5.993,5.993,0,0,0,3.45-5.41v-0.427a5.989,5.989,0,0,0-3.452-5.41l-30.7-14.276a5.969,5.969,0,0,0-8.482,5.411v0.156h0Z"/>
</svg>
