<svg xmlns="http://www.w3.org/2000/svg" width="60" height="60" viewBox="0 0 60 60">
  <metadata><?xpacket begin="﻿" id="W5M0MpCehiHzreSzNTczkc9d"?>
<x:xmpmeta xmlns:x="adobe:ns:meta/" x:xmptk="Adobe XMP Core 5.6-c138 79.159824, 2016/09/14-01:09:01        ">
   <rdf:RDF xmlns:rdf="http://www.w3.org/1999/02/22-rdf-syntax-ns#">
      <rdf:Description rdf:about=""
            xmlns:xmp="http://ns.adobe.com/xap/1.0/">
         <xmp:CreatorTool>Adobe Photoshop CC 2017 (Windows)</xmp:CreatorTool>
      </rdf:Description>
   </rdf:RDF>
</x:xmpmeta>
                                                                                                    
                                                                                                    
                                                                                                    
                                                                                                    
                                                                                                    
                                                                                                    
                                                                                                    
                                                                                                    
                                                                                                    
                                                                                                    
                                                                                                    
                                                                                                    
                                                                                                    
                                                                                                    
                                                                                                    
                                                                                                    
                                                                                                    
                                                                                                    
                                                                                                    
                                                                                                    
                           
<?xpacket end="w"?></metadata>
<defs>
    <style>
      .cls-1 {
        fill: #2378b1;
        fill-rule: evenodd;
      }
    </style>
  </defs>
  <path id="Rounded_Rectangle_1_copy_3" data-name="Rounded Rectangle 1 copy 3" class="cls-1" d="M53.251,44.011H40.993V48h5.023a2.012,2.012,0,0,1,2.012,2.012v2.974A2.012,2.012,0,0,1,46.016,55H34.258a3.447,3.447,0,0,0,2.711-3.366V34.951H51.648a2.3,2.3,0,0,0,2.3-2.3V13.321a2.3,2.3,0,0,0-2.3-2.3H20.32a2.3,2.3,0,0,0-2.3,2.3V18H12.989V11.671a5.748,5.748,0,0,1,5.748-5.748H53.251A5.748,5.748,0,0,1,59,11.671V38.263A5.748,5.748,0,0,1,53.251,44.011Zm-3.251-7a1.969,1.969,0,1,0,1.951,1.969A1.96,1.96,0,0,0,50,37.015ZM31.138,19.969a2.874,2.874,0,0,1,2.874,2.874V52.121A2.874,2.874,0,0,1,31.138,55H18.482a1.7,1.7,0,0,0,1.493-1.678V52.329a1.694,1.694,0,0,0,.588.119,1.719,1.719,0,0,0,0-3.437,1.694,1.694,0,0,0-.588.119V46.01H28.99V24.99H11v1.983H6.97v-4.13a2.874,2.874,0,0,1,2.874-2.874H31.138ZM17.007,31.721V53.3a1.724,1.724,0,0,1-1.724,1.724H2.711A1.724,1.724,0,0,1,.987,53.3V31.721A1.724,1.724,0,0,1,2.711,30H15.282A1.724,1.724,0,0,1,17.007,31.721ZM9.078,53.031a1.516,1.516,0,1,0-1.516-1.516A1.516,1.516,0,0,0,9.078,53.031ZM14,33.042H4V46.979H14V33.042Z"/>
</svg>
