<?xml version="1.0" encoding="utf-8"?>
<!-- Generator: Adobe Illustrator 23.0.1, SVG Export Plug-In . SVG Version: 6.00 Build 0)  -->
<svg version="1.1" id="Capa_1" xmlns="http://www.w3.org/2000/svg" xmlns:xlink="http://www.w3.org/1999/xlink" x="0px" y="0px"
	 viewBox="0 0 220 220" style="enable-background:new 0 0 220 220;" xml:space="preserve">
<style type="text/css">
	.st0{fill:#40596B;}
	.st1{fill:#334A5E;}
	.st2{fill:#ADADAD;}
	.st3{fill:#E8EAEA;}
	.st4{fill:#4CDBC4;}
</style>
<g>
	<path class="st0" d="M119.8,217.5h-19.6c-2.7,0-4.9-2.2-4.9-4.9v-13.5c0-2.7,2.2-4.9,4.9-4.9h19.6c2.7,0,4.9,2.2,4.9,4.9v13.5
		C124.7,215.3,122.5,217.5,119.8,217.5"/>
	<path class="st0" d="M147.3,210.3h-33.5v-9h33.5c19.7,0,35.8-16,35.8-35.8v-22.4h9v22.4C192.1,190.3,172,210.3,147.3,210.3"/>
</g>
<path class="st1" d="M192.1,143.2h-9v22.4c0,3.6-0.6,7.1-1.6,10.5c3.5-0.3,6.8-1.3,9.8-2.8c0.4-2.5,0.7-5,0.7-7.6L192.1,143.2
	L192.1,143.2z"/>
<path class="st2" d="M21.4,126.8V108c0-48.9,39.8-88.6,88.6-88.6c48.9,0,88.6,39.8,88.6,88.6v18.8H212V108
	C212.1,51.6,166.3,5.9,110,5.9S7.9,51.6,7.9,107.9v18.8L21.4,126.8L21.4,126.8z"/>
<path class="st3" d="M183.5,38.8c0.3-0.3,0.5-0.6,0.7-0.9c-18.6-19.7-45-32.1-74.2-32.1S54.4,18.2,35.8,37.9
	c0.2,0.3,0.5,0.6,0.7,0.9l9,8.4l0,0c16.2-17.2,39-27.9,64.4-27.9s48.2,10.8,64.4,27.9l0,0L183.5,38.8z"/>
<path class="st0" d="M27.9,155c-1.7,0.4-3.5,0.7-5.4,0.7c-11.1,0-20.1-8.1-20.1-18c0-10,9-18,20.1-18c1.9,0,3.6,0.3,5.4,0.7V155
	L27.9,155z"/>
<path class="st1" d="M27.9,155v-34.6c-1.7-0.4-3.5-0.7-5.4-0.7c-2.4,0-4.7,0.4-6.9,1.2c-0.1,1-0.2,2-0.2,3v24.6
	c0,2.2,0.3,4.3,0.8,6.4c2,0.6,4.1,1,6.3,1C24.4,155.7,26.2,155.4,27.9,155"/>
<path class="st2" d="M41,169.5L41,169.5c-11.6,0-21.1-9.4-21.1-21.1v-24.6c0-11.6,9.4-21.1,21.1-21.1V169.5z"/>
<path class="st3" d="M41,169.5v-66.7c-2.4,0-4.6,0.5-6.7,1.2v64.3C36.4,169,38.7,169.5,41,169.5"/>
<path class="st4" d="M50.2,178.5L50.2,178.5c-5.1,0-9.2-4.1-9.2-9.2v-66.5c0-5.1,4.1-9.2,9.2-9.2s9.2,4.1,9.2,9.2v66.5
	C59.4,174.4,55.3,178.5,50.2,178.5"/>
<path class="st0" d="M192.1,117.2c1.7-0.4,3.5-0.7,5.4-0.7c11.1,0,20.1,8.1,20.1,18s-9,18-20.1,18c-1.9,0-3.6-0.3-5.4-0.7V117.2
	L192.1,117.2z"/>
<path class="st1" d="M192.1,117.2v34.6c1.7,0.4,3.5,0.7,5.4,0.7c2.4,0,4.7-0.4,6.9-1.2c0.1-1,0.2-2,0.2-3v-24.6
	c0-2.2-0.3-4.3-0.8-6.4c-2-0.6-4-1-6.3-1C195.6,116.5,193.8,116.8,192.1,117.2"/>
<path class="st2" d="M179,102.8L179,102.8c11.6,0,21.1,9.4,21.1,21.1v24.6c0,11.6-9.4,21.1-21.1,21.1V102.8z"/>
<path class="st3" d="M179,102.8v66.7c2.4,0,4.6-0.5,6.7-1.2V104C183.6,103.2,181.3,102.8,179,102.8"/>
<g>
	<path class="st4" d="M169.8,93.7L169.8,93.7c5.1,0,9.2,4.1,9.2,9.2v66.5c0,5.1-4.1,9.2-9.2,9.2s-9.2-4.1-9.2-9.2v-66.5
		C160.6,97.8,164.7,93.7,169.8,93.7"/>
	<path class="st4" d="M110,22.7c21.1,0,40.4,7.8,55.3,20.5c1.6,1.3,3.8,1.3,5.3-0.1l9-8.4c1.7-1.6,1.7-4.3,0-5.9
		C161,12.5,136.7,2.5,110,2.5s-51,10-69.6,26.4c-1.7,1.5-1.7,4.3,0,5.9l9,8.4c1.5,1.4,3.8,1.4,5.3,0.1C69.6,30.4,88.9,22.7,110,22.7
		"/>
</g>
</svg>
