<?xml version="1.0" encoding="utf-8"?>
<!-- Generator: Adobe Illustrator 20.0.0, SVG Export Plug-In . SVG Version: 6.00 Build 0)  -->
<svg version="1.1" id="Capa_1" xmlns="http://www.w3.org/2000/svg" xmlns:xlink="http://www.w3.org/1999/xlink" x="0px" y="0px"
	 viewBox="0 0 72 72" style="enable-background:new 0 0 72 72;" xml:space="preserve">
<style type="text/css">
	.st0{fill:#F05540;}
	.st1{fill:#F3705A;}
	.st2{fill:#FFD15C;}
	.st3{fill:#F7B64C;}
	.st4{fill:#415A6B;}
	.st5{fill:#344A5E;}
	.st6{fill:#8AD7F8;}
</style>
<rect x="50.3" y="15.4" class="st0" width="6.6" height="11.6"/>
<rect x="47.9" y="9.4" class="st1" width="11.8" height="6.3"/>
<path class="st2" d="M12.1,38.3V65h47.3V38.3C50.2,29.1,45,23.8,35.7,14.7l0,0C26.6,23.9,21.3,29.1,12.1,38.3z"/>
<path class="st3" d="M59.6,38.3c-9.3-9.3-14.5-14.5-23.7-23.7c-4.8,4.5-8.4,8.1-12,11.8s-7.3,7.2-11.9,11.9v5.4
	c9.3-9.3,14.5-14.5,23.7-23.7c9.3,9.3,14.5,14.5,23.7,23.7v0.7l0,0v-6.1H59.6L59.6,38.3z"/>
<path class="st4" d="M31.5,65H17.3V51c0-4,3.3-7.1,7.1-7.1l0,0c3.9,0,7.1,3.2,7.1,7.1V65z"/>
<rect x="35.7" y="43.9" class="st5" width="18.6" height="16.4"/>
<g>
	<rect x="37.7" y="45.7" class="st6" width="6.4" height="12.4"/>
	<rect x="46" y="45.7" class="st6" width="6.4" height="12.4"/>
</g>
<path class="st1" d="M64,33.4L38.7,8.1c-1.4-1.4-4-1.4-5.5,0L8.1,33.4c-1.5,1.4-1.5,3.9,0,5.5c1.4,1.4,3.9,1.4,5.4,0L36,16.4
	l22.4,22.4c1.5,1.4,4,1.4,5.5,0C65.4,37.2,65.4,34.8,64,33.4z"/>
</svg>
