<?xml version="1.0" encoding="utf-8"?>
<!-- Generator: Adobe Illustrator 20.0.0, SVG Export Plug-In . SVG Version: 6.00 Build 0)  -->
<svg version="1.1" id="Layer_1" xmlns="http://www.w3.org/2000/svg" xmlns:xlink="http://www.w3.org/1999/xlink" x="0px" y="0px"
	 viewBox="0 0 72 72" style="enable-background:new 0 0 72 72;" xml:space="preserve">
<style type="text/css">
	.st0{fill:#E4E7E7;}
	.st1{fill:#B6B9B9;}
	.st2{fill:#CCD0D2;}
	.st3{fill:#26A6D1;}
	.st4{fill:#2295BC;}
	.st5{fill:#419687;}
	.st6{fill:#51BBA8;}
	.st7{fill:#C2C5C5;}
	.st8{fill:#E2574C;}
	.st9{fill:#C04A40;}
</style>
<g>
	<path class="st0" d="M8.4,10.5h55.2v55.2H8.4V10.5z"/>
	<path class="st1" d="M8.4,29.7h55.2v4.2H8.4V29.7z"/>
	<path class="st2" d="M12.7,6.3h46.5l4.4,4.2H8.4L12.7,6.3z"/>
	<g>
		<path class="st3" d="M12.6,61.5h12.7V29.7H12.6V61.5z M29.6,61.5h12.7V29.7H29.6V61.5z M46.6,29.7v31.8h12.7V29.7H46.6z"/>
	</g>
	<path class="st0" d="M70,23.3l-6.8-6.3H8.8l-6.8,6.3l0,0v4.2c0,1.1,0.9,2.2,2.2,2.2h63.7c1.1,0,2.2-0.9,2.2-2.2L70,23.3L70,23.3z"
		/>
	<g>
		<rect x="40.2" y="55.1" class="st4" width="2.2" height="6.3"/>
		<polygon class="st4" points="21.1,50.8 21.1,44.5 12.6,44.5 12.6,61.5 25.3,61.5 25.3,50.8 		"/>
		<rect x="29.6" y="50.8" class="st4" width="4.2" height="10.6"/>
		<polygon class="st4" points="48.7,44.5 48.7,55.1 46.6,55.1 46.6,61.5 57.2,61.5 59.3,61.5 59.3,44.5 		"/>
	</g>
	<g>
		<rect x="12.6" y="29.7" class="st4" width="12.7" height="4.2"/>
		<rect x="46.6" y="29.7" class="st4" width="12.7" height="4.2"/>
		<rect x="29.6" y="29.7" class="st4" width="12.7" height="4.2"/>
	</g>
	<g>
		<path class="st5" d="M16.9,53H8.4c-2.4,0-4.2,1.9-4.2,4.2v4.2c0,2.4,1.9,4.2,4.2,4.2h8.5c2.4,0,4.2-1.9,4.2-4.2v-4.2
			C21.1,54.9,19.2,53,16.9,53z M63.5,53h-8.5c-2.4,0-4.2,1.9-4.2,4.2v4.2c0,2.4,1.9,4.2,4.2,4.2h8.5c2.4,0,4.2-1.9,4.2-4.2v-4.2
			C67.8,54.9,65.9,53,63.5,53z"/>
	</g>
	<g>
		<path class="st6" d="M63.5,53h-8.5c-0.7,0-1.2,0.1-1.7,0.4c-0.3,0.6-0.4,1.1-0.4,1.7v4.2c0,2.4,1.9,4.2,4.2,4.2h8.5
			c0.7,0,1.2-0.1,1.7-0.4c0.3-0.6,0.4-1.1,0.4-1.7v-4.2C67.8,54.9,65.9,53,63.5,53z"/>
		<path class="st6" d="M16.9,53H8.4c-0.7,0-1.2,0.1-1.7,0.4c-0.3,0.6-0.4,1.1-0.4,1.7v4.2c0,2.4,1.9,4.2,4.2,4.2H19
			c0.7,0,1.2-0.1,1.7-0.4c0.3-0.6,0.4-1.1,0.4-1.7v-4.2C21.1,54.9,19.2,53,16.9,53z"/>
	</g>
	<polygon class="st7" points="63.2,16.9 8.8,16.9 2.1,23.3 2.1,23.3 2.1,23.3 70,23.3 70,23.3 70,23.3 	"/>
	<g>
		<polygon class="st8" points="25.3,16.9 23.3,23.3 23.3,29.6 27.5,29.6 27.5,23.3 29.6,16.9 		"/>
		<path class="st8" d="M70,23.3l-6.8-6.3h-3.8l6.3,6.3v6.3h2.2c1.1,0,2.2-0.9,2.2-2.2L70,23.3L70,23.3L70,23.3z"/>
		<polygon class="st8" points="50.8,16.9 55.1,23.3 55.1,29.6 59.3,29.6 59.3,23.3 55.1,16.9 		"/>
		<polygon class="st8" points="16.9,16.9 12.6,23.3 12.6,29.6 16.9,29.6 16.9,23.3 21.1,16.9 		"/>
		<path class="st8" d="M4.2,29.6h2.2v-6.3l6.3-6.3H8.9l-6.9,6.3l0,0l0,0v4.2C2.1,28.6,3,29.6,4.2,29.6z"/>
		<rect x="33.8" y="16.9" class="st8" width="4.2" height="12.7"/>
		<polygon class="st8" points="48.7,29.6 48.7,23.3 46.6,16.9 42.3,16.9 44.5,23.3 44.5,29.6 		"/>
	</g>
	<g>
		<polygon class="st9" points="16.9,16.9 12.6,23.3 16.9,23.3 21.1,16.9 		"/>
		<polygon class="st9" points="70,23.3 63.2,16.9 59.3,16.9 65.7,23.3 70,23.3 		"/>
		<rect x="33.8" y="16.9" class="st9" width="4.2" height="6.3"/>
		<polygon class="st9" points="25.3,16.9 23.3,23.3 27.5,23.3 29.6,16.9 		"/>
		<polygon class="st9" points="50.8,16.9 55.1,23.3 59.3,23.3 55.1,16.9 		"/>
		<polygon class="st9" points="42.3,16.9 44.5,23.3 48.7,23.3 46.6,16.9 		"/>
	</g>
	<polygon class="st9" points="12.6,16.9 8.8,16.9 2.1,23.3 2.1,23.3 2.1,23.3 6.3,23.3 	"/>
</g>
</svg>
