<?xml version="1.0" encoding="utf-8"?>
<!-- Generator: Adobe Illustrator 20.0.0, SVG Export Plug-In . SVG Version: 6.00 Build 0)  -->
<svg version="1.1" id="Layer_1" xmlns="http://www.w3.org/2000/svg" xmlns:xlink="http://www.w3.org/1999/xlink" x="0px" y="0px"
	 viewBox="0 0 100 100" style="enable-background:new 0 0 100 100;" xml:space="preserve">
<style type="text/css">
	.st0{fill:#90DFAA;}
	.st1{fill:#E6E9EE;}
	.st2{fill:#F9B54C;}
	.st3{fill:#54C0EB;}
	.st4{fill:#FFFFFF;}
	.st5{fill:#FFD05B;}
	.st6{fill:#324A5E;}
	.st7{fill:#84DBFF;}
	.st8{fill:#2B3B4E;}
</style>
<circle class="st0" cx="50" cy="50" r="50"/>
<path class="st1" d="M92.1,73.5l-14.4-6.9l0,0l0,0l0,0l0,0l-14.4,6.9v19.1c1.3,1.5,2.8,2.9,4.3,4.2C77.8,92.9,86.3,85.9,92.1,77
	V73.5L92.1,73.5z"/>
<ellipse class="st2" cx="77.7" cy="70.2" rx="9.3" ry="9.4"/>
<polygon class="st3" points="81.6,79.5 73.8,79.5 75.3,84 80.1,84 "/>
<path class="st4" d="M68.7,68.2c0,0-1.2,6.4,9.1,11.3c0,0-7.6,0.6-9.8,7.7C67.8,87.5,63.6,72,68.7,68.2z"/>
<path class="st5" d="M89.2,60.9c-1.2,3.8-1.7,5.8-1.7,6l0,0c-2.6,3.6-6.1,6.1-9.8,6.1c-3.5,0-6.8-2.2-9.3-5.4l0,0
	c-2.5-3.1-3.1-7.4-3-11.1c1-1.9,2-4.4,2.6-7.2c3.5,2.1,10.4,2.3,10.4,2.3c-3.9-0.6-4.6-3.8-4.6-3.8c0.6,1.9,9.4,3.1,9.4,3.1
	C92.1,52.2,89.2,60.9,89.2,60.9z"/>
<g>
	<path class="st6" d="M68.4,67.6c-0.3-0.2-3.4-2.8-5.7-7.2c0.6-0.5,1.7-1.9,2.8-3.9C65.4,60.2,65.9,64.5,68.4,67.6z"/>
	<path class="st6" d="M87.5,66.9c0,0,0.5-2,1.7-6c0,0,3-8.7-6-10.1c0,0-8.7-1.2-9.4-3.1c0,0,0.6,3.1,4.6,3.8c0,0-6.9-0.2-10.4-2.3
		c0.9-4.3,0.8-9.3-1.9-14.1c1.7-0.6,3.7-0.8,6.3-0.1c0,0,12.2-4.9,18.4,6.2C97.6,53.1,89.2,65.8,87.5,66.9z"/>
	<path class="st6" d="M93.7,74.3l-5.1-2.4c0,2.4-0.1,6-0.6,10.6C90.2,79.8,92.1,77.2,93.7,74.3z"/>
</g>
<path class="st4" d="M88.7,81.7c0.7-4.8,1-11.2-2-13.5c0,0,1.2,6.4-9.1,11.3c0,0,5.5,0.5,8.5,5C87.1,83.5,87.9,82.6,88.7,81.7z"/>
<rect x="55.7" y="71.8" class="st1" width="9.6" height="16.1"/>
<ellipse class="st2" cx="52.8" cy="63.7" rx="9.3" ry="9.4"/>
<polygon class="st3" points="56.7,73.1 48.8,73.1 50.4,77.6 55.1,77.6 "/>
<path class="st7" d="M58.2,99.2l-3.1-21.7h-4.8L48,94.3C51.2,96.3,54.6,98,58.2,99.2z"/>
<path class="st8" d="M45.3,92.4C42,80,41.8,70,41.8,65.4l-12.7,6.1C32.4,79.9,38.1,87.2,45.3,92.4z"/>
<path class="st4" d="M43.7,61.7c0,0-1.2,6.4,9.1,11.3c0,0-7.6,0.6-9.8,7.7C42.8,81.1,38.7,65.5,43.7,61.7z"/>
<path class="st5" d="M64.3,54.5c-1.2,3.8-1.7,5.8-1.7,6l0,0c-2.6,3.6-6.1,6.1-9.8,6.1c-3.5,0-6.9-2.2-9.4-5.5
	c0.1,0.1,0.1,0.1,0.2,0.1c-2-2.5-2.8-5.7-3-8.9c1.2-2.5,2.3-5.7,2.7-9.4c3.6,2.1,10.3,2.3,10.3,2.3c-3.9-0.6-4.6-3.8-4.6-3.8
	c0.6,1.9,9.3,3.1,9.3,3.1C67.2,45.7,64.3,54.5,64.3,54.5z"/>
<g>
	<path class="st8" d="M40.6,52.3c0.2,3.1,0.9,6.4,3,8.9c-0.2-0.2-2.7-2.2-4.8-5.6C39.3,54.6,39.9,53.5,40.6,52.3z"/>
	<path class="st8" d="M62.5,60.5c0,0,0.5-2,1.7-6c0,0,3-8.7-6-10.1c0,0-8.7-1.2-9.3-3.1c0,0,0.6,3.1,4.6,3.8c0,0-6.7-0.2-10.3-2.3
		c0.4-4-0.2-8.4-2.6-12.8c-0.2-0.3-0.3-0.6-0.5-0.9c1.8-1.1,4.2-1.5,7.5-0.6c0,0,12.2-4.9,18.4,6.2C72.6,46.6,64.3,59.4,62.5,60.5z"
		/>
	<path class="st8" d="M62.7,60.4L62.7,60.4c-0.1,0.1-0.1,0,0-0.2C62.6,60.3,62.7,60.4,62.7,60.4z"/>
	<path class="st8" d="M85.7,85c-7.2,7.3-16.6,12.5-27.2,14.3c-0.1,0-0.2-0.1-0.2-0.1c2.2-6.8,3.5-13,4.3-18.3
		c0.1,0.2,2.7-9.4,1.3-15.4l18,8.7L85.7,85z"/>
</g>
<path class="st4" d="M61.8,61.7c0,0,1.2,6.4-9.1,11.3c0,0,7.6,0.6,9.8,7.7C62.7,81.1,66.8,65.5,61.8,61.7z"/>
<g>
	<path class="st1" d="M10.9,81.1c1.3,1.7,2.8,3.2,4.3,4.6C13.5,84.3,12.2,82.8,10.9,81.1L10.9,81.1z"/>
	<path class="st1" d="M36.9,79.4c-0.8,5.2-2,11.1-4,17.6c-5.7-2-10.9-5.1-15.4-8.9c-0.7-3.1-1.2-6-1.7-8.7
		c2.4-7.6,10.5-8.3,10.5-8.3S34.6,71.7,36.9,79.4z"/>
	<path class="st1" d="M26.4,71L26.4,71C26.5,71.1,26.5,71.1,26.4,71C26.5,71.1,26.4,71.1,26.4,71z"/>
</g>
<path class="st2" d="M36.1,59c0,0,1.3,6.9-9.6,12.1h-0.2C15.5,65.7,16.8,59,16.8,59s0,0-0.1,0c0-0.1,0.1-0.2,0.1-0.3
	c2.7,3.2,6,5.4,9.6,5.4s6.9-2.1,9.7-5.4C36.1,58.7,36.1,58.9,36.1,59L36.1,59z"/>
<g>
	<path class="st3" d="M26.5,71C26.5,71.1,26.5,71.1,26.5,71C26.4,71,26.4,71,26.5,71L26.5,71z"/>
	<path class="st3" d="M30.3,72.1L29,75.8h-5.1l-1.3-3.7c2.1-0.9,3.9-1,3.9-1S28.2,71.3,30.3,72.1z"/>
</g>
<path class="st7" d="M32,96.6l-2.9-20.8H24l-2.2,15.4C24.9,93.4,28.3,95.2,32,96.6z"/>
<g>
	<path class="st6" d="M17.6,88C11.3,82.8,6.5,76,3.5,68.2l11.1-5.4c-1.5,6.4,1.3,16.7,1.3,16.5C16.3,82,16.9,85,17.6,88z"/>
	<path class="st6" d="M17.6,88c-0.2-0.2-0.6-0.5-0.8-0.7C17,87.6,17.2,87.8,17.6,88L17.6,88z"/>
</g>
<path class="st4" d="M16.8,58.9c0,0-1.3,6.9,9.7,12.1c0,0-8.1,0.6-10.5,8.3C15.8,79.6,11.4,63,16.8,58.9z"/>
<path class="st5" d="M38.7,51.2c-1.3,4.2-1.8,6.4-1.8,6.4c-2.8,3.9-6.5,6.5-10.5,6.5c-3.8,0-7.2-2.4-10-5.8l0.1,0.1
	c-5.9-7.3-1.8-20.7-1.8-20.7c3,3.4,12.5,3.6,12.5,3.6c-4.2-0.7-4.9-4-4.9-4c0.7,2,10,3.3,10,3.3C42,41.8,38.7,51.2,38.7,51.2z"/>
<path class="st6" d="M20.9,23.5c0,0,13.1-5.2,19.7,6.6c7.1,12.7-1.8,26.4-3.6,27.5c0,0,0.5-2.2,1.8-6.4c0,0,3.1-9.4-6.4-10.8
	c0,0-9.3-1.3-10-3.3c0,0,0.7,3.4,4.9,4c0,0-9.5-0.2-12.5-3.6c0,0-4.1,13.5,1.9,20.7c0,0-10.2-8.3-9.1-20.9C7.5,37.4,7,20,20.9,23.5z
	"/>
<path id="SVGCleanerId_0" class="st6" d="M66.5,97.2C61.3,99.1,55.7,100,50,100c-6,0-11.7-1-17.1-3c2-6.5,3.2-12.4,4-17.6
	c0.1,0.2,2.8-10.2,1.3-16.5l19.3,9.3L66.5,97.2z"/>
<g>
	<path id="SVGCleanerId_0_1_" class="st6" d="M66.5,97.2C61.3,99.1,55.7,100,50,100c-6,0-11.7-1-17.1-3c2-6.5,3.2-12.4,4-17.6
		c0.1,0.2,2.8-10.2,1.3-16.5l19.3,9.3L66.5,97.2z"/>
</g>
<g>
	<path class="st4" d="M36.1,58.9c0,0,1.3,6.9-9.7,12.1c0,0,8.1,0.6,10.5,8.3C37,79.6,41.5,63,36.1,58.9z"/>
	<path class="st4" d="M35.9,61.7c0.5-1.7,0.2-2.7,0.2-2.7c1.1,0.9,1.8,2.2,2.2,3.9L35.9,61.7z"/>
</g>
<path class="st6" d="M35,45h-4.6H30h-7.2h-0.2H18c-1.4,0-2.5,1.1-2.5,2.5v2.1c0,1.4,1.1,2.5,2.5,2.5h5c0.6,0,1.3-0.2,1.7-0.6
	c0.2-0.1,0.2-0.2,0.3-0.3c0.3-0.8,0.9-1.3,1.6-1.3c0.6,0,1.3,0.5,1.6,1.3c0.1,0.2,0.2,0.2,0.3,0.3c0.5,0.4,1,0.6,1.7,0.6h5
	c1.4,0,2.5-1.1,2.5-2.5v-2.1C37.6,46.1,36.4,45,35,45z M17.9,51c-0.7,0-1.3-0.6-1.3-1.3v-2.1c0-0.7,0.6-1.3,1.3-1.3h4.7h0.2
	c0.7,0,1.3,0.6,1.3,1.3v2.1c0,0.2,0,0.4-0.1,0.6c-0.1,0.1-0.1,0.2-0.2,0.3c-0.2,0.3-0.6,0.6-1.1,0.6L17.9,51L17.9,51z M26.5,48.7
	c-0.4,0-0.7,0.1-1,0.2v-1.5c0-0.5-0.2-0.9-0.4-1.3H28c-0.2,0.4-0.4,0.9-0.4,1.3V49C27.2,48.9,26.9,48.7,26.5,48.7z M36.3,49.7
	c0,0.7-0.6,1.3-1.3,1.3h-5c-0.5,0-0.9-0.2-1.1-0.6c-0.1-0.1-0.1-0.2-0.2-0.3c0-0.2,0-0.3,0-0.5v-2.1c0-0.7,0.6-1.3,1.3-1.3h0.4H35
	c0.7,0,1.3,0.6,1.3,1.3V49.7L36.3,49.7z"/>
</svg>
