<?xml version="1.0" encoding="utf-8"?>
<!-- Generator: Adobe Illustrator 20.0.0, SVG Export Plug-In . SVG Version: 6.00 Build 0)  -->
<svg version="1.1" id="Capa_1" xmlns="http://www.w3.org/2000/svg" xmlns:xlink="http://www.w3.org/1999/xlink" x="0px" y="0px"
	 viewBox="0 0 100 100" style="enable-background:new 0 0 100 100;" xml:space="preserve">
<style type="text/css">
	.st0{fill:#FD8469;}
	.st1{fill:#ECF0F1;}
	.st2{display:none;fill:#545E73;}
	.st3{fill:#8697CB;}
	.st4{fill:#545E73;}
	.st5{display:none;}
	.st6{display:inline;}
	.st7{fill:#48A0DC;}
	.st8{fill:#B1D3EF;}
</style>
<g>
	<circle class="st0" cx="50" cy="50" r="50"/>
	<g>
		<circle class="st1" cx="50" cy="50" r="29"/>
		<path class="st2" d="M50,25c13.8,0,25,11.2,25,25S63.8,75,50,75S25,63.8,25,50S36.2,25,50,25 M50,21c-16,0-29,13-29,29
			s13,29,29,29s29-13,29-29S66,21,50,21L50,21z"/>
		<g>
			<path class="st3" d="M50,26.9c-0.6,0-1,0.4-1,1v1c0,0.6,0.4,1,1,1s1-0.4,1-1v-1C51,27.3,50.6,26.9,50,26.9z"/>
			<path class="st3" d="M50,69.9c-0.6,0-1,0.4-1,1v1c0,0.6,0.4,1,1,1s1-0.4,1-1v-1C51,70.3,50.6,69.9,50,69.9z"/>
			<path class="st3" d="M72,48.9h-1c-0.6,0-1,0.4-1,1c0,0.6,0.4,1,1,1h1c0.6,0,1-0.4,1-1C73,49.3,72.6,48.9,72,48.9z"/>
			<path class="st3" d="M29,48.9h-1c-0.6,0-1,0.4-1,1c0,0.6,0.4,1,1,1h1c0.6,0,1-0.4,1-1C30,49.3,29.6,48.9,29,48.9z"/>
			<path class="st3" d="M64.8,33.6l-0.7,0.7c-0.4,0.4-0.4,1,0,1.4c0.2,0.2,0.5,0.3,0.7,0.3s0.5-0.1,0.7-0.3l0.7-0.7
				c0.4-0.4,0.4-1,0-1.4C65.9,33.2,65.2,33.2,64.8,33.6z"/>
			<path class="st3" d="M34.4,64l-0.7,0.7c-0.4,0.4-0.4,1,0,1.4c0.2,0.2,0.5,0.3,0.7,0.3s0.5-0.1,0.7-0.3l0.7-0.7
				c0.4-0.4,0.4-1,0-1.4C35.5,63.6,34.8,63.6,34.4,64z"/>
			<path class="st3" d="M65.6,64c-0.4-0.4-1-0.4-1.4,0c-0.4,0.4-0.4,1,0,1.4l0.7,0.7c0.2,0.2,0.5,0.3,0.7,0.3s0.5-0.1,0.7-0.3
				c0.4-0.4,0.4-1,0-1.4L65.6,64z"/>
			<path class="st3" d="M35.2,33.6c-0.4-0.4-1-0.4-1.4,0c-0.4,0.4-0.4,1,0,1.4l0.7,0.7c0.2,0.2,0.5,0.3,0.7,0.3
				c0.3,0,0.5-0.1,0.7-0.3c0.4-0.4,0.4-1,0-1.4L35.2,33.6z"/>
		</g>
		<path class="st4" d="M47,50.9h-8c-0.6,0-1-0.4-1-1c0-0.6,0.4-1,1-1h8c0.6,0,1,0.4,1,1C48,50.4,47.6,50.9,47,50.9z"/>
		<path class="st4" d="M50,47.9c-0.6,0-1-0.4-1-1v-11c0-0.6,0.4-1,1-1s1,0.4,1,1v11C51,47.4,50.6,47.9,50,47.9z"/>
		<path class="st4" d="M50,53.9c-2.2,0-4-1.8-4-4s1.8-4,4-4s4,1.8,4,4S52.2,53.9,50,53.9z M50,47.9c-1.1,0-2,0.9-2,2
			c0,1.1,0.9,2,2,2s2-0.9,2-2C52,48.8,51.1,47.9,50,47.9z"/>
	</g>
	<g class="st5">
		<g class="st6">
			<path class="st7" d="M73.4,68.1c0-3.9-3.2-7.1-7-7.1c-2.6,0-4.8,1.4-6,3.5c-0.4-0.1-0.9-0.2-1.3-0.2c-2.1,0-3.8,1.5-4.2,3.5
				c-1.8,0.9-3,2.7-3,4.8c0,2.9,2.3,5.4,5.2,5.4h10.8c0.1,0,0.1,0,0.2,0c0.1,0,0.1,0,0.2,0h4.3c2.7,0,4.8-2.2,4.8-5
				C77.4,70.6,75.7,68.5,73.4,68.1z"/>
			<path class="st8" d="M72.5,79h-4.3c-0.1,0-0.1,0-0.2,0c0,0-0.1,0-0.2,0H57.1c-3.4,0-6.2-2.9-6.2-6.4c0-2.3,1.2-4.4,3.1-5.5
				c0.7-2.2,2.7-3.8,5.1-3.8c0.3,0,0.6,0,0.9,0.1c1.5-2.1,3.9-3.4,6.5-3.4c4.1,0,7.5,3.2,8,7.3c2.4,0.8,4,3.1,4,5.7
				C78.4,76.3,75.8,79,72.5,79z M68,77l0.2,0l4.4,0c2.1,0,3.8-1.8,3.8-4c0-1.9-1.3-3.6-3.1-3.9l-0.8-0.2l0-0.8c0-3.4-2.7-6.1-6-6.1
				c-2.1,0-4.1,1.1-5.2,3l-0.4,0.7l-0.8-0.3c-0.3-0.1-0.7-0.2-1-0.2c-1.5,0-2.9,1.1-3.2,2.7l-0.1,0.5l-0.4,0.2
				c-1.5,0.7-2.4,2.3-2.4,3.9c0,2.4,1.9,4.4,4.2,4.4L68,77z"/>
		</g>
	</g>
</g>
</svg>
