<?xml version="1.0" encoding="utf-8"?>
<!-- Generator: Adobe Illustrator 20.0.0, SVG Export Plug-In . SVG Version: 6.00 Build 0)  -->
<svg version="1.1" id="Capa_1" xmlns="http://www.w3.org/2000/svg" xmlns:xlink="http://www.w3.org/1999/xlink" x="0px" y="0px"
	 viewBox="0 0 72 72" style="enable-background:new 0 0 72 72;" xml:space="preserve">
<style type="text/css">
	.st0{fill:#3A556A;}
	.st1{fill:#44C4A1;}
	.st2{fill:#EBF0F3;}
	.st3{fill:#27A2DB;}
	.st4{fill:#E56353;}
	.st5{fill:#D5D6DB;}
</style>
<path class="st0" d="M45.9,17.6c-12.1,2.2-15.5,6-16.3,8.8c-0.5,1.5,0,3.2,1.2,4.3c1.8,1.7,5.5,4.7,11.1,5.9c4.6,1,1,2.9-2.7,4.3
	c-2.7,1-5.4,1.8-8.2,2.3C20.1,45.2-17.8,53.7,10,65.8c0.1,0,0.3,0.1,0.4,0.1h54.7c1,0,1.3-1.2,0.5-1.8c-4.6-3.1-11.6-10,1.6-18.2
	c16.5-10.2-14.5-16.8-20.4-17.7c-1.2-0.2-2.4-0.6-3.5-1.2c-2.7-1.6-4.9-4.8,6.3-9.5L45.9,17.6L45.9,17.6L45.9,17.6z"/>
<path class="st1" d="M18.9,42.4c-2.4,4-4,8.4-4.9,11.3c-0.3,0.9-1.5,0.9-1.8,0c-0.9-2.9-2.6-7.3-4.9-11.3C4.8,38,7.4,32.2,12.4,31.8
	c0.2,0,0.4,0,0.7,0c0.2,0,0.4,0,0.7,0C18.8,32.2,21.5,38,18.9,42.4z"/>
<circle class="st2" cx="13.1" cy="38.5" r="4.8"/>
<path class="st3" d="M66.9,26.6c-2.4,4-4,8.4-4.9,11.3c-0.3,0.9-1.5,0.9-1.8,0c-0.9-2.9-2.6-7.3-4.9-11.3
	c-2.5-4.4,0.1-10.1,5.1-10.5c0.2,0,0.4,0,0.7,0s0.4,0,0.7,0C66.9,16.4,69.5,22.2,66.9,26.6z"/>
<circle class="st2" cx="61.1" cy="22.7" r="4.8"/>
<path class="st4" d="M40.2,15.8c-2.2,3.7-3.6,7.7-4.5,10.3c-0.3,0.8-1.4,0.8-1.7,0c-0.8-2.6-2.3-6.7-4.5-10.3
	c-2.3-4,0.1-9.3,4.7-9.6c0.2,0,0.4,0,0.6,0c0.2,0,0.4,0,0.6,0C40.1,6.5,42.5,11.8,40.2,15.8z"/>
<circle class="st2" cx="34.8" cy="12.3" r="4.4"/>
<g>
	<path class="st5" d="M54.9,46.8L53,45.6c1.6-1.1,2.4-2.2,2.5-3.3c0.1-1.7-1.6-3.2-2.1-3.6l0.8-0.7c0.1,0.1,2.8,1.7,2.9,4.3
		C57.2,44,57,45,54.9,46.8z"/>
	<path class="st5" d="M48.7,35.8c-0.6-0.2-5.5-1.7-6.2-3.4l1.3-0.7c0.5,0.8,4.2,2.5,6,2.9L48.7,35.8z"/>
	<path class="st5" d="M35.2,56.3l0.3-1.8c7.5,0,11.7-4.6,11.7-4.6l1.3,0.8C48.5,51,44,56.4,35.2,56.3z"/>
</g>
</svg>
