<?xml version="1.0" encoding="utf-8"?>
<!-- Generator: Adobe Illustrator 23.0.1, SVG Export Plug-In . SVG Version: 6.00 Build 0)  -->
<svg version="1.1" xmlns="http://www.w3.org/2000/svg" xmlns:xlink="http://www.w3.org/1999/xlink" x="0px" y="0px"
	 viewBox="0 0 90 80" style="enable-background:new 0 0 90 80;" xml:space="preserve">
<style type="text/css">
	.st0{display:none;}
	.st1{display:inline;fill-rule:evenodd;clip-rule:evenodd;fill:#A01212;}
	.st2{display:inline;fill-rule:evenodd;clip-rule:evenodd;fill:#FFFFFF;}
	.st3{display:inline;enable-background:new    ;}
	.st4{fill:#FFFFFF;}
	.st5{display:inline;fill-rule:evenodd;clip-rule:evenodd;fill:#7B7B7B;}
	.st6{display:inline;fill-rule:evenodd;clip-rule:evenodd;fill:#1D6CC5;}
	.st7{fill:#7B7B7B;}
	.st8{enable-background:new    ;}
	.st9{fill:#303030;}
	.st10{fill:#077FC8;}
	.st11{fill-rule:evenodd;clip-rule:evenodd;fill:#303030;}
	.st12{fill-rule:evenodd;clip-rule:evenodd;fill:#FFFFFF;}
</style>
<g id="Layer_2" class="st0">
	<rect x="-0.2" y="-0.9" class="st1" width="91.2" height="81.7"/>
</g>
<g id="log">
	<g class="st0">
		<path class="st2" d="M0.6,10h3v12.7h-3C0.6,22.7,0.6,10,0.6,10z M4.1,12.2h2c0.6,0,1.2,0.4,1.4,1v6C7.3,19.6,6.9,20,6.4,20H4.1
			v2.5c0,0,5.7,1,6.4-3.4v-5.9c0,0,0.3-4.1-6.4-3.4C4.1,11.2,4.1,12.2,4.1,12.2L4.1,12.2z M12.7,10h3v12.7h-3V10L12.7,10z M16.2,10
			h6v2.4h-6V10L16.2,10z M16.2,14.8h5.5v2.4h-5.6L16.2,14.8L16.2,14.8z M16.2,20.2h6.1v2.4h-6.2L16.2,20.2L16.2,20.2z M24.6,22.6
			L30.2,10h3l-5.5,12.7h-3.1V22.6z M27,15.5L24.7,10h3l1,2.2L27,15.5z M29.2,20.6l1,2h3l-2.4-5.3L29.2,20.6z M35.8,10v2.4h3
			c0.6,0.1,1,0.6,1,1.2c-0.1,0.6-0.4,1-1,1.2h-3V17h3.4c0.7,0.2,1.1,1,0.9,1.7v0.1c0,0,0.2,1.3-1.4,1.4h-2.8v2.4h3.9
			c0,0,2.8-0.1,3.1-3.6c0,0,0.4-2-2-3.3c1.1-0.4,1.8-1.5,1.8-2.7c-0.1-1.5-1.2-2.8-2.8-3.1L35.8,10L35.8,10z M46.5,22.6L52.1,10h3
			l-5.3,12.7h-3.3V22.6z M44.6,10l3.4,7.7l1.3-2.7l-2-5C47.3,10,44.6,10,44.6,10z M56,10h9.5v2.4H56V10L56,10z M59.4,12.8h2.9v9.8
			h-2.9V12.8L59.4,12.8z M67.8,10h2.9v12.7h-2.9V10L67.8,10z M71.2,10h6v2.4h-6V10L71.2,10z M71.2,14.8h5.5v2.4h-5.5V14.8L71.2,14.8
			z M71.2,20.2h6.1v2.4h-6.1V20.2L71.2,20.2z M87,13.9c0-1-0.8-1.7-1.8-1.7c-0.1,0-0.2,0-0.2,0V10c0,0,4.4,0,4.6,3.9H87z M84.6,12.2
			V10c0,0-5.2-0.1-4.7,4.3c0,0,0.1,2.4,4.1,3c0,0,3.4,0.3,3,1.7c0,0,0.3,1.6-2,1.3v2.3c0,0,3.3,0.2,4.5-2.3c0,0,1.7-3.2-2.3-5.1
			c0,0-3.1-0.4-3.4-1.4C83.7,13.8,83,12.7,84.6,12.2L84.6,12.2z M82.3,18.4c0,0-0.2,1.9,2.2,1.9v2.3c0,0-4.8,0.5-4.9-4.2L82.3,18.4
			L82.3,18.4z"/>
		<g class="st3">
			<path class="st4" d="M68.2,24.2v4.7h-0.3v-4.7H68.2z"/>
			<path class="st4" d="M69.4,26.6v2.3h-0.3V26h0.3v0.2c0.2-0.2,0.5-0.4,0.8-0.4s0.6,0.1,0.8,0.3s0.3,0.5,0.3,0.8v1.9H71V27
				c0-0.2-0.1-0.5-0.3-0.6c-0.2-0.2-0.4-0.3-0.6-0.3s-0.5,0.1-0.6,0.3C69.5,26.4,69.4,26.5,69.4,26.6z"/>
			<path class="st4" d="M72.6,26.2v2.6h-0.3v-2.6H72V26h0.3v-0.8c0-0.2,0.1-0.4,0.3-0.6c0.2-0.1,0.3-0.2,0.6-0.2
				c0.1,0,0.2,0,0.3,0.1l-0.1,0.2c-0.1,0-0.2-0.1-0.2-0.1c-0.1,0-0.3,0.1-0.4,0.2s-0.2,0.2-0.2,0.4V26h0.6v0.3L72.6,26.2L72.6,26.2z
				"/>
			<path class="st4" d="M75.2,25.7c0.4,0,0.8,0.2,1.1,0.5c0.3,0.3,0.5,0.7,0.5,1.1s-0.2,0.8-0.5,1.1C76,28.8,75.6,29,75.2,29
				s-0.8-0.2-1.1-0.5c-0.3-0.3-0.5-0.7-0.5-1.1s0.2-0.8,0.5-1.1C74.4,25.9,74.7,25.7,75.2,25.7z M74.2,26.4
				c-0.3,0.3-0.4,0.6-0.4,0.9s0.1,0.7,0.4,0.9c0.3,0.3,0.6,0.4,0.9,0.4c0.4,0,0.7-0.1,0.9-0.4c0.3-0.3,0.4-0.6,0.4-0.9
				s-0.1-0.7-0.4-0.9S75.6,26,75.2,26C74.8,26,74.5,26.1,74.2,26.4z"/>
			<path class="st4" d="M77.9,26v-1.2h0.3V26h0.6v0.3h-0.6v2.6h-0.3v-2.6h-0.6V26H77.9z"/>
			<path class="st4" d="M80.1,28.3c0.3,0.2,0.5,0.3,0.9,0.3s0.7-0.1,0.9-0.4l0.1-0.1l0.3,0.1c-0.1,0.1-0.1,0.1-0.2,0.2
				C81.8,28.8,81.4,29,81,29s-0.8-0.2-1.1-0.5c-0.3-0.3-0.5-0.7-0.5-1.1s0.2-0.8,0.5-1.1c0.3-0.3,0.7-0.5,1.1-0.5s0.7,0.1,1,0.3
				l0.1,0.1c0,0,0,0,0.1,0.1L82,26.5L80.1,28.3z M81.8,26.3C81.5,26.1,81.3,26,81,26c-0.4,0-0.7,0.1-0.9,0.4
				c-0.3,0.3-0.4,0.6-0.4,0.9s0.1,0.6,0.3,0.8L81.8,26.3z"/>
			<path class="st4" d="M85.5,28.2l0.3,0.1c-0.1,0.1-0.1,0.1-0.2,0.2c-0.3,0.3-0.7,0.5-1.1,0.5s-0.8-0.2-1.1-0.5
				c-0.3-0.3-0.5-0.7-0.5-1.1s0.2-0.8,0.5-1.1c0.3-0.3,0.7-0.5,1.1-0.5s0.8,0.2,1.1,0.5c0.1,0.1,0.1,0.1,0.2,0.2l-0.3,0.1l-0.1-0.1
				c-0.3-0.3-0.6-0.4-0.9-0.4s-0.7,0.1-0.9,0.4c-0.3,0.3-0.4,0.6-0.4,0.9s0.1,0.7,0.4,0.9c0.3,0.3,0.6,0.4,0.9,0.4s0.7-0.1,0.9-0.4
				C85.4,28.3,85.4,28.2,85.5,28.2z"/>
			<path class="st4" d="M86.5,24.2h0.3v2c0.2-0.2,0.5-0.3,0.8-0.3s0.6,0.1,0.8,0.3s0.3,0.5,0.3,0.8v1.9h-0.3V27
				c0-0.2-0.1-0.5-0.3-0.6c-0.2-0.2-0.4-0.3-0.6-0.3s-0.5,0.1-0.6,0.3c-0.1,0.1-0.1,0.2-0.2,0.2v2.3h-0.3L86.5,24.2L86.5,24.2z"/>
		</g>
	</g>
	<g class="st0">
		<path id="Rectangle_1_copy" class="st5" d="M35.8,47v2.4h3c0.6,0.1,1,0.6,1,1.2c-0.1,0.6-0.4,1-1,1.2h-3V54h3.4
			c0.7,0.2,1.1,1,0.9,1.7v0.1c0,0,0.2,1.3-1.4,1.4h-2.8v2.4h3.9c0,0,2.8-0.1,3.1-3.6c0,0,0.4-2-2-3.3c1.1-0.4,1.8-1.5,1.8-2.7
			c-0.1-1.5-1.2-2.8-2.8-3.1L35.8,47L35.8,47z M46.5,59.6L52.1,47h3l-5.3,12.7h-3.3V59.6z M44.6,47l3.4,7.7l1.3-2.7l-2-5H44.6
			L44.6,47z M56,47h9.5v2.4H56V47L56,47z M59.4,49.8h2.9v9.8h-2.9V49.8L59.4,49.8z M67.8,47h2.9v12.7h-2.9V47L67.8,47z M71.2,47h6
			v2.4h-6V47L71.2,47z M71.2,51.8h5.5v2.4h-5.5V51.8L71.2,51.8z M71.2,57.2h6.1v2.4h-6.1V57.2L71.2,57.2z M87,50.9
			c0-1-0.8-1.7-1.8-1.7c-0.1,0-0.2,0-0.2,0V47c0,0,4.4,0,4.6,3.9H87z M84.6,49.2V47c0,0-5.2-0.1-4.7,4.3c0,0,0.1,2.4,4.1,3
			c0,0,3.4,0.3,3,1.7c0,0,0.3,1.6-2,1.3v2.3c0,0,3.3,0.2,4.5-2.3c0,0,1.7-3.2-2.3-5.1c0,0-3.1-0.4-3.4-1.4
			C83.7,50.8,83,49.7,84.6,49.2L84.6,49.2z M82.3,55.4c0,0-0.2,1.9,2.2,1.9v2.3c0,0-4.8,0.5-4.9-4.2H82.3L82.3,55.4z"/>
		<path id="Rectangle_1_copy_2" class="st6" d="M0.6,47h3v12.7h-3C0.6,59.7,0.6,47,0.6,47z M4.1,49.2h2c0.6,0,1.2,0.4,1.4,1v6
			C7.3,56.6,6.9,57,6.4,57H4.1v2.5c0,0,5.7,1,6.4-3.4v-5.9c0,0,0.3-4.1-6.4-3.4C4.1,48.2,4.1,49.2,4.1,49.2L4.1,49.2z M12.7,47h3
			v12.7h-3V47L12.7,47z M16.2,47h6v2.4h-6V47L16.2,47z M16.2,51.8h5.5v2.4h-5.6L16.2,51.8L16.2,51.8z M16.2,57.2h6.1v2.4h-6.2
			L16.2,57.2L16.2,57.2z M24.6,59.6L30.2,47h3l-5.6,12.7h-3V59.6z M27,52.5L24.7,47h3l1,2.2L27,52.5z M29.2,57.6l1,2h3l-2.4-5.3
			L29.2,57.6z"/>
		<g class="st3">
			<path class="st7" d="M68.2,61.2v4.7h-0.3v-4.7H68.2z"/>
			<path class="st7" d="M69.4,63.6v2.3h-0.3V63h0.3v0.2c0.2-0.2,0.5-0.4,0.8-0.4s0.6,0.1,0.8,0.3s0.3,0.5,0.3,0.8v1.9H71V64
				c0-0.2-0.1-0.5-0.3-0.6c-0.2-0.2-0.4-0.3-0.6-0.3s-0.5,0.1-0.6,0.3C69.5,63.4,69.4,63.5,69.4,63.6z"/>
			<path class="st7" d="M72.6,63.2v2.6h-0.3v-2.6H72V63h0.3v-0.8c0-0.2,0.1-0.4,0.3-0.6c0.2-0.1,0.3-0.2,0.6-0.2
				c0.1,0,0.2,0,0.3,0.1l-0.1,0.2c-0.1,0-0.2-0.1-0.2-0.1c-0.1,0-0.3,0.1-0.4,0.2c-0.1,0.1-0.2,0.2-0.2,0.4V63h0.6v0.3L72.6,63.2
				L72.6,63.2z"/>
			<path class="st7" d="M75.2,62.7c0.4,0,0.8,0.2,1.1,0.5c0.3,0.3,0.5,0.7,0.5,1.1s-0.2,0.8-0.5,1.1C76,65.8,75.6,66,75.2,66
				s-0.8-0.2-1.1-0.5c-0.3-0.3-0.5-0.7-0.5-1.1s0.2-0.8,0.5-1.1C74.4,62.9,74.7,62.7,75.2,62.7z M74.2,63.4
				c-0.3,0.3-0.4,0.6-0.4,0.9s0.1,0.7,0.4,0.9c0.3,0.3,0.6,0.4,0.9,0.4c0.4,0,0.7-0.1,0.9-0.4c0.3-0.3,0.4-0.6,0.4-0.9
				s-0.1-0.7-0.4-0.9S75.6,63,75.2,63C74.8,63,74.5,63.1,74.2,63.4z"/>
			<path class="st7" d="M77.9,63v-1.2h0.3V63h0.6v0.3h-0.6v2.6h-0.3v-2.6h-0.6V63H77.9z"/>
			<path class="st7" d="M80.1,65.3c0.3,0.2,0.5,0.3,0.9,0.3s0.7-0.1,0.9-0.4l0.1-0.1l0.3,0.1c-0.1,0.1-0.1,0.1-0.2,0.2
				C81.8,65.8,81.4,66,81,66s-0.8-0.2-1.1-0.5c-0.3-0.3-0.5-0.7-0.5-1.1s0.2-0.8,0.5-1.1s0.7-0.5,1.1-0.5s0.7,0.1,1,0.3l0.1,0.1
				c0,0,0,0,0.1,0.1L82,63.5L80.1,65.3z M81.8,63.3C81.5,63.1,81.3,63,81,63c-0.4,0-0.7,0.1-0.9,0.4c-0.3,0.3-0.4,0.6-0.4,0.9
				s0.1,0.6,0.3,0.8L81.8,63.3z"/>
			<path class="st7" d="M85.5,65.2l0.3,0.1c-0.1,0.1-0.1,0.1-0.2,0.2c-0.3,0.3-0.7,0.5-1.1,0.5s-0.8-0.2-1.1-0.5
				c-0.3-0.3-0.5-0.7-0.5-1.1s0.2-0.8,0.5-1.1s0.7-0.5,1.1-0.5s0.8,0.2,1.1,0.5c0.1,0.1,0.1,0.1,0.2,0.2l-0.3,0.1l-0.1-0.1
				c-0.3-0.3-0.6-0.4-0.9-0.4s-0.7,0.1-0.9,0.4c-0.3,0.3-0.4,0.6-0.4,0.9s0.1,0.7,0.4,0.9c0.3,0.3,0.6,0.4,0.9,0.4
				S85.2,65.6,85.5,65.2C85.4,65.3,85.4,65.2,85.5,65.2z"/>
			<path class="st7" d="M86.5,61.2h0.3v2c0.2-0.2,0.5-0.3,0.8-0.3s0.6,0.1,0.8,0.3s0.3,0.5,0.3,0.8v1.9h-0.3V64
				c0-0.2-0.1-0.5-0.3-0.6c-0.2-0.2-0.4-0.3-0.6-0.3s-0.5,0.1-0.6,0.3c-0.1,0.1-0.1,0.2-0.2,0.2v2.3h-0.3L86.5,61.2L86.5,61.2z"/>
		</g>
	</g>
	<g>
		<g class="st8">
			<path class="st9" d="M68.7,60.7v4.9h-0.2v-4.9H68.7z"/>
			<path class="st9" d="M70,63.2v2.3h-0.2v-3H70v0.2c0.2-0.2,0.6-0.4,0.9-0.4s0.6,0.1,0.9,0.3c0.2,0.2,0.3,0.5,0.3,0.8v2h-0.2v-2
				c0-0.2-0.1-0.5-0.2-0.6c-0.2-0.2-0.4-0.2-0.6-0.2s-0.5,0.1-0.6,0.2C70,63,70,63.1,70,63.2z"/>
			<path class="st9" d="M73.3,62.8v2.7h-0.2v-2.7h-0.3v-0.3h0.3v-0.8c0-0.2,0.1-0.4,0.2-0.6c0.2-0.2,0.3-0.2,0.6-0.2
				c0.1,0,0.2,0,0.3,0.1l-0.1,0.2c-0.1,0-0.2-0.1-0.2-0.1c-0.2,0-0.2,0.1-0.4,0.2c-0.1,0.1-0.2,0.2-0.2,0.4v0.8H74v0.2L73.3,62.8
				L73.3,62.8z"/>
			<path class="st9" d="M76,62.3c0.5,0,0.9,0.2,1.2,0.5c0.3,0.3,0.5,0.7,0.5,1.2c0,0.5-0.2,0.9-0.5,1.2s-0.7,0.5-1.2,0.5
				s-0.9-0.2-1.2-0.5s-0.5-0.7-0.5-1.2c0-0.5,0.2-0.9,0.5-1.2C75.1,62.4,75.5,62.3,76,62.3z M74.9,62.9c-0.2,0.2-0.4,0.6-0.4,1
				c0,0.4,0.2,0.7,0.4,1c0.2,0.2,0.6,0.4,1,0.4s0.7-0.2,1-0.4s0.4-0.6,0.4-1c0-0.4-0.2-0.7-0.4-1c-0.2-0.2-0.6-0.4-1-0.4
				C75.6,62.5,75.3,62.7,74.9,62.9z"/>
			<path class="st9" d="M78.8,62.5v-1.3H79v1.3h0.6v0.2H79v2.7h-0.2v-2.7h-0.6v-0.2H78.8z"/>
			<path class="st9" d="M81,64.9c0.2,0.2,0.6,0.3,0.9,0.3c0.4,0,0.7-0.2,1-0.4l0.1-0.1l0.3,0.1c-0.1,0.1-0.1,0.2-0.2,0.2
				c-0.3,0.3-0.7,0.5-1.2,0.5s-0.9-0.2-1.2-0.5s-0.5-0.7-0.5-1.2c0-0.5,0.2-0.9,0.5-1.2c0.3-0.3,0.7-0.5,1.2-0.5
				c0.4,0,0.7,0.1,1,0.3c0.1,0.1,0.1,0.1,0.2,0.2c0,0,0,0,0.1,0.1L82.9,63L81,64.9z M82.7,62.8c-0.2-0.2-0.5-0.2-0.8-0.2
				c-0.4,0-0.7,0.2-1,0.4c-0.2,0.2-0.4,0.6-0.4,1c0,0.3,0.1,0.6,0.2,0.8L82.7,62.8z"/>
			<path class="st9" d="M86.6,64.8l0.2,0.2c-0.1,0.1-0.1,0.2-0.2,0.2c-0.3,0.3-0.7,0.5-1.2,0.5s-0.9-0.2-1.2-0.5s-0.5-0.7-0.5-1.2
				c0-0.5,0.2-0.9,0.5-1.2c0.3-0.3,0.7-0.5,1.2-0.5s0.9,0.2,1.2,0.5c0.1,0.1,0.2,0.2,0.2,0.2l-0.3,0.1L86.4,63
				c-0.2-0.2-0.6-0.4-1-0.4s-0.7,0.2-1,0.4c-0.2,0.2-0.4,0.6-0.4,1s0.2,0.7,0.4,1c0.2,0.2,0.6,0.4,1,0.4s0.7-0.2,1-0.4
				C86.5,64.8,86.5,64.8,86.6,64.8z"/>
			<path class="st9" d="M87.5,60.7h0.2v2c0.2-0.2,0.5-0.3,0.8-0.3s0.6,0.1,0.9,0.3c0.2,0.2,0.3,0.5,0.3,0.8v2h-0.2v-2
				c0-0.2-0.1-0.5-0.2-0.6c-0.2-0.2-0.4-0.2-0.6-0.2s-0.5,0.1-0.6,0.2c-0.1,0.1-0.2,0.2-0.2,0.2v2.4h-0.2L87.5,60.7L87.5,60.7z"/>
		</g>
		<g>
			<g>
				<path class="st10" d="M22.9,58.3h3.4l1.3-1.8l-1.7-2.3L22.9,58.3z M12.8,49.7h8.8v-2.4h-8.8V49.7z M27.5,49.1l-1.3-1.8h-3.4
					l3,4.1L27.5,49.1z M30.2,52.8l4-5.5h-3.4l-2.3,3.2l0,0l-1.7,2.3l2.8,3.8l0,0l1.3,1.7h3.4L30.2,52.8z M12.8,58.3h8.8v-2.5h-8.8
					V58.3z M12.8,53.8h8.8v-2.4h-8.8V53.8z M1.8,53.4v-0.6H1.2v0.6H1.8z M2.4,56.5v-0.6l0,0l0,0H1.8v0.6H2.4z M1.2,54.6h0.6v-0.6
					H1.2V54.6z M0.6,52.2v0.6h0.6v-0.6H0.6z M1.2,51.6v0.6h0.6v-0.6H1.2z M1.2,48.5H0.6v0.6h0.6V48.5z M10.2,48.9
					c-0.5-0.5-1-0.9-1.7-1.2c-0.6-0.3-1.4-0.4-2.3-0.4c0,0-0.2,0-0.4,0c-0.2,0-0.3,0-0.6,0c-1.3,0-3.5,0-3.5,0V48H1.2v-0.6H0.6V48
					h0.6v0.6h0.6v0.6H1.2v0.6h0.6v-0.6h0.6v0.6H1.8v0.6h0.6v-0.6c0,0,1.6,0,2.8,0c0.2,0,0.4,0,0.6,0c0.4,0,0.6,0,0.6,0
					c0.2,0,0.5,0.1,0.7,0.2c0.3,0.2,0.6,0.4,0.8,0.7c0.2,0.3,0.5,0.6,0.6,1c0.2,0.4,0.2,0.6,0.2,1s-0.1,0.6-0.2,1
					c-0.2,0.4-0.3,0.7-0.6,1c-0.2,0.3-0.6,0.6-0.9,0.7c-0.3,0.2-0.6,0.2-1,0.2H2.8v0.6h0.6v0.6H3v-0.6H2.4v0.6H1.8v0.4h0.6v0.6H1.8
					v-0.6H1.2v0.6H0.6l0,0h6c0.8,0,1.5-0.2,2.1-0.5c0.6-0.3,1.1-0.7,1.5-1.3c0.4-0.6,0.7-1.1,1-1.8c0.2-0.6,0.3-1.3,0.3-1.9
					c0-0.8-0.2-1.5-0.4-2.2C11,50,10.6,49.4,10.2,48.9z M2.4,48.5H1.8v-0.6h0.6V48.5z M3.1,49.2H2.4v-0.6h0.6V49.2z M2.4,54.1v-0.6
					H1.8v0.6H2.4z M2.4,52.2H1.8v0.6h0.6V52.2z M0.6,53.4v0.6h0.6v-0.6H0.6z M0.6,49.7v0.6h0.6v-0.6H0.6z M1.8,51.6h0.6v-0.6H1.8
					V51.6z M0.6,51.6h0.6v-0.6H0.6V51.6z M1.8,56.5H1.2v0.6h0.6L1.8,56.5L1.8,56.5z M1.2,50.4V51h0.6v-0.6H1.2z M0.6,57.1v0.6h0.6
					v-0.6H0.6z M1.8,55.3h0.6v-0.6H1.8V55.3H1.2v-0.6H0.6v0.6v0.6v-0.6h0.6v0.6h0.6L1.8,55.3L1.8,55.3z M0.6,55.8v0.6h0.6v-0.6H0.6z
					"/>
			</g>
		</g>
		<path class="st11" d="M82.9,49.7c-0.2,0-0.4,0.1-0.5,0.3c-0.1,0.2-0.2,0.3-0.2,0.6c0,0.1,0,0.2,0.1,0.2c0.1,0.1,0.1,0.2,0.2,0.3
			c0.1,0.1,0.2,0.2,0.2,0.2c0.1,0.1,0.2,0.1,0.2,0.1h1.9l-1.8,2.4h-0.3c-0.5,0-0.9-0.1-1.3-0.2s-0.7-0.4-1-0.7
			c-0.2-0.3-0.5-0.7-0.6-1.1s-0.2-0.8-0.2-1.2c0-0.5,0.1-1,0.2-1.4c0.2-0.4,0.4-0.8,0.7-1c0.3-0.3,0.6-0.6,1-0.7s0.9-0.2,1.4-0.2
			h6.8v2.4L82.9,49.7C82.9,49.7,82.9,49.7,82.9,49.7z M69.4,55.8h8.8v2.4h-8.8V55.8z M69.4,51.3h8.8v2.4h-8.8V51.3z M69.4,47.3h8.8
			v2.4h-8.8V47.3z M64.7,49.7h-3.5l0,0h-2.9v-2.4h9.5v2.4H64.7L64.7,49.7z M55.7,57.1c-0.2,0.3-0.6,0.6-0.9,0.8s-0.7,0.3-1.1,0.3h-7
			v-2.5h6.4c0.2,0,0.2-0.1,0.4-0.3c0.2-0.2,0.2-0.3,0.2-0.6v-1l0,0v-0.6l0,0v-1.8l0,0v-4.3h2.7v7.6c0,0.3-0.1,0.7-0.2,1.1
			C56.1,56.5,56,56.8,55.7,57.1z M48.3,53.8c-0.4-0.2-0.7-0.4-1-0.7c-0.2-0.3-0.5-0.6-0.6-1s-0.2-0.8-0.2-1.2v-3.5h2.7v3.3
			c0,0.2,0.1,0.5,0.2,0.6c0.2,0.2,0.3,0.3,0.5,0.3h2.4v1.8V54h-2.7C49.1,54.1,48.7,53.9,48.3,53.8z M45,54.7c0,0.5-0.1,0.9-0.2,1.3
			s-0.3,0.8-0.6,1.1c-0.3,0.3-0.6,0.6-1.1,0.8c-0.4,0.2-0.9,0.3-1.4,0.3h-6.8v-2.4h0.3l0,0h6.5c0.1,0,0.2-0.1,0.3-0.1
			c0.1-0.1,0.2-0.2,0.2-0.2c0.1-0.1,0.2-0.2,0.2-0.3c0-0.2,0.1-0.2,0.1-0.3c0-0.2-0.1-0.5-0.2-0.7c-0.2-0.2-0.4-0.3-0.6-0.3H35l0,0
			h-0.3v-0.1l0,0v-2.4H35l0,0h6.6c0.2,0,0.5-0.2,0.6-0.3c0.2-0.2,0.2-0.3,0.2-0.5s-0.1-0.4-0.2-0.5c-0.2-0.1-0.3-0.2-0.6-0.2H35l0,0
			h-0.3v-2.4h6.8c0.5,0,1,0.1,1.4,0.2s0.8,0.4,1,0.6c0.3,0.2,0.5,0.6,0.6,1s0.2,0.8,0.2,1.3c0,0.4-0.1,0.8-0.2,1.2s-0.4,0.7-0.6,1
			c0.2,0.2,0.5,0.6,0.6,1C45,54,45,54.3,45,54.7z M64.5,58.3h-2.7v-7.1h2.7V58.3z M86.8,55.8c0.1-0.1,0.2-0.2,0.2-0.2
			c0.1-0.1,0.2-0.2,0.2-0.3c0.1-0.1,0.1-0.2,0.1-0.3c0-0.2-0.1-0.3-0.2-0.6c-0.2-0.2-0.4-0.3-0.6-0.3h-1.4l1.8-2.3
			c0.3,0,0.6,0.1,1,0.2c0.4,0.2,0.7,0.4,1,0.7c0.3,0.3,0.5,0.6,0.6,1c0.2,0.4,0.2,0.8,0.2,1.3c0,0.3-0.1,0.7-0.2,1.1
			c-0.2,0.4-0.3,0.8-0.6,1.1c-0.2,0.3-0.6,0.6-0.9,0.8s-0.7,0.3-1.1,0.3h-7.3v-2.5h6.8C86.6,55.8,86.7,55.8,86.8,55.8z"/>
	</g>
	<g id="Layer_3">
		<g class="st8">
			<path class="st4" d="M68.5,23.9v4.9h-0.2v-4.9H68.5z"/>
			<path class="st4" d="M69.8,26.5v2.3h-0.2v-3h0.2V26c0.2-0.2,0.6-0.4,0.9-0.4s0.6,0.1,0.9,0.3c0.2,0.2,0.3,0.5,0.3,0.8v2h-0.2v-2
				c0-0.2-0.1-0.5-0.2-0.6c-0.2-0.2-0.4-0.2-0.6-0.2s-0.5,0.1-0.6,0.2C69.9,26.3,69.8,26.4,69.8,26.5z"/>
			<path class="st4" d="M73.2,26.1v2.7H73v-2.7h-0.3v-0.2H73v-0.8c0-0.2,0.1-0.4,0.2-0.6c0.2-0.2,0.3-0.2,0.6-0.2
				c0.1,0,0.2,0,0.3,0.1L74,24.5c-0.1,0-0.2,0-0.2,0c-0.2,0-0.2,0.1-0.4,0.2c-0.1,0.1-0.2,0.2-0.2,0.4v0.8h0.6v0.2H73.2z"/>
			<path class="st4" d="M75.9,25.5c0.5,0,0.9,0.2,1.2,0.5c0.3,0.3,0.5,0.7,0.5,1.2s-0.2,0.9-0.5,1.2c-0.3,0.3-0.7,0.5-1.2,0.5
				c-0.5,0-0.9-0.2-1.2-0.5c-0.3-0.3-0.5-0.7-0.5-1.2s0.2-0.9,0.5-1.2C75,25.7,75.4,25.5,75.9,25.5z M74.8,26.3
				c-0.2,0.2-0.4,0.6-0.4,1s0.2,0.7,0.4,1c0.2,0.2,0.6,0.4,1,0.4c0.4,0,0.7-0.2,1-0.4c0.2-0.2,0.4-0.6,0.4-1s-0.2-0.7-0.4-1
				c-0.2-0.2-0.6-0.4-1-0.4C75.5,25.9,75.1,26,74.8,26.3z"/>
			<path class="st4" d="M78.7,25.9v-1.3h0.2v1.3h0.6v0.2h-0.6v2.7h-0.2v-2.7H78v-0.2H78.7z"/>
			<path class="st4" d="M80.8,28.3c0.2,0.2,0.6,0.3,0.9,0.3c0.4,0,0.7-0.2,1-0.4l0.1-0.1l0.3,0.1c-0.1,0.1-0.1,0.2-0.2,0.2
				c-0.3,0.3-0.7,0.5-1.2,0.5c-0.5,0-0.9-0.2-1.2-0.5c-0.3-0.3-0.5-0.7-0.5-1.2s0.2-0.9,0.5-1.2c0.3-0.3,0.7-0.5,1.2-0.5
				c0.4,0,0.7,0.1,1,0.3c0.1,0.1,0.1,0.1,0.2,0.2c0,0,0,0,0.1,0.1l-0.2,0.2L80.8,28.3z M82.6,26.1c-0.2-0.2-0.5-0.2-0.8-0.2
				c-0.4,0-0.7,0.2-1,0.4c-0.2,0.2-0.4,0.6-0.4,1c0,0.3,0.1,0.6,0.2,0.8L82.6,26.1z"/>
			<path class="st4" d="M86.5,28.1l0.3,0.1c-0.1,0.1-0.1,0.2-0.2,0.2c-0.3,0.3-0.7,0.5-1.2,0.5c-0.5,0-0.9-0.2-1.2-0.5
				s-0.5-0.7-0.5-1.2s0.2-0.9,0.5-1.2c0.3-0.3,0.7-0.5,1.2-0.5c0.5,0,0.9,0.2,1.2,0.5c0.1,0.1,0.2,0.2,0.2,0.2l-0.3,0.1l-0.1-0.1
				c-0.2-0.2-0.6-0.4-1-0.4c-0.4,0-0.7,0.2-1,0.4c-0.2,0.2-0.4,0.6-0.4,1s0.2,0.7,0.4,1c0.2,0.2,0.6,0.4,1,0.4
				C85.8,28.6,86.2,28.4,86.5,28.1C86.4,28.2,86.4,28.1,86.5,28.1z"/>
			<path class="st4" d="M87.4,23.9h0.2v2c0.2-0.2,0.5-0.3,0.8-0.3c0.3,0,0.6,0.1,0.9,0.3c0.2,0.2,0.3,0.5,0.3,0.8v2h-0.2v-2
				c0-0.2-0.1-0.5-0.2-0.6s-0.4-0.2-0.6-0.2c-0.2,0-0.5,0.1-0.6,0.2c-0.1,0.1-0.2,0.2-0.2,0.2v2.4h-0.2L87.4,23.9L87.4,23.9z"/>
		</g>
		<g>
			<g>
				<path class="st4" d="M27.3,12.4l-1.3-1.8h-3.4l3,4.1L27.3,12.4z M22.7,21.6h3.4l1.3-1.8l-1.7-2.3L22.7,21.6z M12.6,17h8.8v-2.4
					h-8.8V17z M12.6,13.1h8.8v-2.4h-8.8V13.1z M12.6,21.6h8.8v-2.5h-8.8V21.6z M30,16.1l4-5.5h-3.4l-2.3,3.2l0,0l-1.7,2.3l2.8,3.8
					l0,0l1.3,1.7h3.4L30,16.1z M1.6,16.7V16H1v0.6H1.6z M0.4,15.5v0.6H1v-0.6H0.4z M0.4,16.7v0.6H1v-0.6H0.4z M1,14.9v0.6h0.6v-0.6
					H1z M1,17.9h0.6v-0.6H1V17.9z M2.2,15.5H1.6v0.6h0.6V15.5z M1,11.9H0.4v0.6H1V11.9z M2.2,17.3v-0.6H1.6v0.6H2.2z M10,12.2
					c-0.5-0.5-1-0.9-1.7-1.2c-0.7-0.2-1.4-0.4-2.3-0.4c0,0-0.2,0-0.4,0c-0.2,0-0.3,0-0.6,0c-1.3,0-3.5,0-3.5,0v0.6H1v-0.6H0.4v0.6H1
					v0.6h0.6v0.6H1v0.6h0.6v-0.6h0.6v0.6H1.6v0.6h0.6v-0.6c0,0,1.6,0,2.8,0c0.2,0,0.4,0,0.6,0c0.4,0,0.6,0,0.6,0
					c0.2,0,0.5,0.1,0.7,0.2c0.3,0.2,0.6,0.4,0.8,0.7c0.2,0.3,0.5,0.6,0.6,1c0.2,0.4,0.2,0.6,0.2,1s-0.1,0.6-0.2,1
					c-0.2,0.4-0.3,0.7-0.6,1c-0.2,0.3-0.6,0.6-0.9,0.7c-0.3,0.2-0.6,0.2-1,0.2H2.6v0.6h0.6v0.6H2.8v-0.6H2.2v0.6H1.6v0.6h0.6v0.6
					H1.6v-0.6H1v0.6h5.4c0.8,0,1.5-0.2,2.1-0.5C9.2,21,9.6,20.6,10,20c0.4-0.6,0.7-1.1,1-1.8c0.2-0.6,0.3-1.3,0.3-1.9
					c0-0.8-0.2-1.5-0.4-2.2C10.8,13.3,10.5,12.7,10,12.2z M2.2,11.9H1.6v-0.6h0.6V11.9z M2.9,12.4H2.2v-0.6h0.6V12.4z M1,13.6v0.6
					h0.6v-0.6H1z M0.4,13.1v0.6H1v-0.6H0.4z M1.6,14.9h0.6v-0.6H1.6V14.9z M0.4,14.9H1v-0.6H0.4V14.9z M2.2,19.7v-0.6l0,0l0,0H1.6
					v0.6H2.2z M1.6,19.7H1v0.6h0.6L1.6,19.7L1.6,19.7z M0.4,19.2v0.6H1v-0.6H0.4z M0.4,20.4V21H1v-0.6H0.4z M1.6,18.5h0.6v-0.6H1.6
					V18.5H1v-0.6H0.4v0.6v0.6v-0.6H1v0.6h0.6L1.6,18.5L1.6,18.5z"/>
			</g>
		</g>
		<path class="st12" d="M82.8,13.1c-0.2,0-0.4,0.1-0.5,0.3s-0.2,0.3-0.2,0.6c0,0.1,0,0.2,0.1,0.2c0.1,0.1,0.1,0.2,0.2,0.3
			s0.2,0.2,0.2,0.2c0.1,0.1,0.2,0.1,0.2,0.1h1.9L83,17.3h-0.3c-0.5,0-0.9-0.1-1.3-0.2s-0.7-0.4-1-0.7c-0.2-0.3-0.5-0.7-0.6-1.1
			c-0.2-0.4-0.2-0.8-0.2-1.2c0-0.5,0.1-1,0.2-1.4c0.2-0.4,0.4-0.8,0.7-1c0.3-0.3,0.6-0.6,1-0.7c0.4-0.2,0.9-0.2,1.4-0.2h6.8V13
			L82.8,13.1L82.8,13.1z M69.3,19.2h8.8v2.4h-8.8V19.2z M69.3,14.6h8.8V17h-8.8V14.6z M69.3,10.6h8.8V13h-8.8V10.6z M64.6,13.1h-3.5
			l0,0h-2.9v-2.4h9.5v2.4H64.6L64.6,13.1z M55.6,20.5c-0.2,0.3-0.6,0.6-0.9,0.8s-0.7,0.3-1.1,0.3h-7v-2.5H53c0.2,0,0.2-0.1,0.4-0.3
			c0.2-0.2,0.2-0.3,0.2-0.6v-1l0,0v-0.6l0,0v-1.8l0,0v-4.3h2.7v7.6c0,0.3-0.1,0.7-0.2,1.1C56,19.7,55.8,20.1,55.6,20.5z M48.1,17.1
			c-0.4-0.2-0.7-0.4-1-0.7c-0.2-0.3-0.5-0.6-0.6-1c-0.2-0.4-0.2-0.8-0.2-1.2v-3.5H49v3.3c0,0.2,0.1,0.5,0.2,0.6
			c0.2,0.2,0.3,0.3,0.5,0.3h2.4v1.9v0.6h-2.7C48.9,17.3,48.5,17.3,48.1,17.1z M44.9,18.1c0,0.5-0.1,0.9-0.2,1.3s-0.3,0.8-0.6,1.1
			s-0.6,0.6-1.1,0.8c-0.4,0.2-0.9,0.3-1.4,0.3h-6.8v-2.4h0.3l0,0h6.5c0.1,0,0.2-0.1,0.3-0.1c0.1-0.1,0.2-0.2,0.2-0.2
			c0.1-0.1,0.2-0.2,0.2-0.3c0-0.2,0.1-0.2,0.1-0.3c0-0.2-0.1-0.5-0.2-0.7c-0.2-0.2-0.4-0.3-0.6-0.3h-6.5l0,0h-0.3v-0.1l0,0v-2.4h0.3
			l0,0h6.6c0.2,0,0.5-0.2,0.6-0.3c0.2-0.2,0.2-0.3,0.2-0.5s-0.1-0.4-0.2-0.5c-0.2-0.1-0.3-0.2-0.6-0.2h-6.6l0,0h-0.3v-2.4h6.8
			c0.5,0,1,0.1,1.4,0.2c0.4,0.2,0.8,0.4,1,0.6c0.3,0.2,0.5,0.6,0.6,1c0.2,0.4,0.2,0.8,0.2,1.3c0,0.4-0.1,0.8-0.2,1.2
			c-0.2,0.4-0.4,0.7-0.6,1c0.2,0.2,0.5,0.6,0.6,1C44.8,17.3,44.9,17.7,44.9,18.1z M64.4,21.6h-2.7v-7h2.7V21.6z M86.7,19.1
			c0.1-0.1,0.2-0.2,0.2-0.2c0.1-0.1,0.2-0.2,0.2-0.3c0.1-0.1,0.1-0.2,0.1-0.3c0-0.2-0.1-0.3-0.2-0.6c-0.2-0.2-0.4-0.3-0.6-0.3H85
			l1.9-2.3c0.3,0,0.6,0.1,1,0.2c0.4,0.2,0.7,0.4,1,0.7c0.3,0.3,0.5,0.6,0.6,1c0.2,0.4,0.2,0.8,0.2,1.3c0,0.3-0.1,0.7-0.2,1.1
			c-0.2,0.4-0.3,0.8-0.6,1.1c-0.2,0.3-0.6,0.6-0.9,0.8c-0.3,0.2-0.7,0.3-1.1,0.3h-7.3v-2.5h6.8C86.5,19.2,86.6,19.1,86.7,19.1z"/>
	</g>
</g>
</svg>
